<svg xmlns="http://www.w3.org/2000/svg" xmlns:xlink="http://www.w3.org/1999/xlink" id="Layer_1" width="366" height="240" x="0" y="0" enable-background="new 0 0 366 240" version="1.0" viewBox="0 0 366 240" xml:space="preserve"><polygon fill="#CCC" fill-rule="evenodd" points="270.37 82.72 286.47 116.5 287.23 116.17 263.54 66.79" clip-rule="evenodd"/><polygon fill="#666" fill-rule="evenodd" points="197.2 222.84 194.35 231.79 333.84 158.85 356.18 141.14" clip-rule="evenodd"/><polygon fill="#999" fill-rule="evenodd" points="194.35 231.79 197.2 222.84 8.81 156.7 30.96 173.08" clip-rule="evenodd"/><polygon fill="#B0B0B0" fill-rule="evenodd" points="197.2 222.84 356.18 141.14 345.37 113.42 195.88 182.88" clip-rule="evenodd"/><polygon fill="#CCC" fill-rule="evenodd" points="8.81 156.7 197.2 222.84 195.88 182.88 19.71 126.811" clip-rule="evenodd"/><polygon fill="#999" fill-rule="evenodd" points="84.03 73.01 70.19 49.6 52.95 115.94 74.79 122.44" clip-rule="evenodd"/><polygon fill="#7D7D7D" fill-rule="evenodd" points="170.97 60.7 171.54 47.45 84.03 73.01 81.17 88.31" clip-rule="evenodd"/><polygon fill="#999" fill-rule="evenodd" points="170.97 60.7 270.37 82.72 263.54 66.79 171.54 47.45" clip-rule="evenodd"/><polygon fill="#E3E3E3" fill-rule="evenodd" points="263.54 66.79 287.23 116.17 311.689 105.61 275.689 43.11" clip-rule="evenodd"/><polygon fill="#CCC" fill-rule="evenodd" points="171.54 47.45 263.54 66.79 275.689 43.11 170.63 23.17" clip-rule="evenodd"/><polygon fill="#B0B0B0" fill-rule="evenodd" points="171.54 47.45 170.63 23.17 70.19 49.6 84.03 73.01" clip-rule="evenodd"/><path fill="#F7F7F7" fill-rule="evenodd" d="M275.689,43.11l36,62.5l-119.85,51.73l-138.89-41.4L70.19,49.6	l100.44-26.43L275.689,43.11z M48.7,44.62l-28.99,82.19l176.17,56.069l149.49-69.46l-51.091-76.39L169.22,14.22L48.7,44.62z" clip-rule="evenodd"/><line x1="42.12" x2="48.7" y1="62.51" y2="44.62" fill="none" fill-rule="evenodd" clip-rule="evenodd"/><line x1="42.12" x2="8.81" y1="62.51" y2="156.7" fill="none" fill-rule="evenodd" clip-rule="evenodd"/><g><g><line x1="178.75" x2="190.58" y1="96.72" y2="83.96" fill="none" stroke="#00BD00" stroke-linecap="round" stroke-linejoin="round" stroke-width="2"/><polygon fill="#00BD00" points="191.337 87.364 196.577 77.439 187.077 83.414"/></g></g><g><g><line x1="178.75" x2="178.8" y1="96.72" y2="71.27" fill="none" stroke="#0000BD" stroke-linecap="round" stroke-linejoin="round" stroke-width="2"/><polygon fill="#0000BD" points="181.665 73.257 178.782 62.411 175.855 73.246"/></g></g><g><g><line x1="178.75" x2="205.05" y1="96.72" y2="103.3" fill="none" stroke="#E30000" stroke-linecap="round" stroke-linejoin="round" stroke-width="2"/><polygon fill="#E30000" points="202.432 105.603 213.652 105.416 203.841 99.966"/></g></g><polygon fill="none" fill-rule="evenodd" stroke="#000" stroke-linejoin="bevel" stroke-width="2" points="48.7 44.62 8.81 156.7 30.96 173.08 194.35 231.79 333.84 158.85 356.18 141.14 345.37 113.42 294.279 37.03 169.22 14.22" clip-rule="evenodd"/><polyline fill="none" fill-rule="evenodd" stroke="#000" stroke-linecap="round" stroke-linejoin="bevel" stroke-width="2" points="52.95 115.94 191.84 157.34 311.689 105.61" clip-rule="evenodd"/><polyline fill="none" fill-rule="evenodd" stroke="#000" stroke-linejoin="bevel" stroke-width="2" points="287.23 116.17 270.37 82.72 170.97 60.7 81.17 88.31 74.68 122.41" clip-rule="evenodd"/></svg>