<svg xmlns="http://www.w3.org/2000/svg" xmlns:xlink="http://www.w3.org/1999/xlink" width="521.28" height="417.41" x="0" y="0" enable-background="new 0 0 521.28 417.41" version="1.1" viewBox="0 0 521.28 417.41" xml:space="preserve"><g id="Viewport_x5F_BG"><g><line x1="65.88" x2="520.28" y1="164.03" y2="283.79" fill="none" fill-rule="evenodd" stroke="#D4D4D4" stroke-linecap="round" stroke-linejoin="round" clip-rule="evenodd"/><line x1="397.56" x2="520.28" y1="416.41" y2="187.69" fill="none" fill-rule="evenodd" stroke="#D4D4D4" stroke-linecap="round" stroke-linejoin="round" clip-rule="evenodd"/><line x1="163.75" x2="520.28" y1="95.23" y2="173.12" fill="none" fill-rule="evenodd" stroke="#D4D4D4" stroke-linecap="round" stroke-linejoin="round" clip-rule="evenodd"/><line x1="152.94" x2="520.28" y1="102.83" y2="184.84" fill="none" fill-rule="evenodd" stroke="#D4D4D4" stroke-linecap="round" stroke-linejoin="round" clip-rule="evenodd"/><line x1="141.76" x2="520.28" y1="110.69" y2="197.08" fill="none" fill-rule="evenodd" stroke="#D4D4D4" stroke-linecap="round" stroke-linejoin="round" clip-rule="evenodd"/><line x1="130.2" x2="520.28" y1="118.82" y2="209.88" fill="none" fill-rule="evenodd" stroke="#D4D4D4" stroke-linecap="round" stroke-linejoin="round" clip-rule="evenodd"/><line x1="435.93" x2="520.28" y1="416.41" y2="243.34" fill="none" fill-rule="evenodd" stroke="#D4D4D4" stroke-linecap="round" stroke-linejoin="round" clip-rule="evenodd"/><line x1="105.84" x2="520.28" y1="135.94" y2="237.32" fill="none" fill-rule="evenodd" stroke="#D4D4D4" stroke-linecap="round" stroke-linejoin="round" clip-rule="evenodd"/><line x1="93" x2="520.28" y1="144.96" y2="252.051" fill="none" fill-rule="evenodd" stroke="#D4D4D4" stroke-linecap="round" stroke-linejoin="round" clip-rule="evenodd"/><line x1="79.69" x2="520.28" y1="154.32" y2="267.521" fill="none" fill-rule="evenodd" stroke="#D4D4D4" stroke-linecap="round" stroke-linejoin="round" clip-rule="evenodd"/><line x1="205.69" x2="421.44" y1="416.41" y2="140.75" fill="none" fill-rule="evenodd" stroke="#D4D4D4" stroke-linecap="round" stroke-linejoin="round" clip-rule="evenodd"/><line x1="1" x2="413.081" y1="279.56" y2="416.41" fill="none" fill-rule="evenodd" stroke="#D4D4D4" stroke-linecap="round" stroke-linejoin="round" clip-rule="evenodd"/><line x1="1" x2="336.78" y1="301.16" y2="416.41" fill="none" fill-rule="evenodd" stroke="#D4D4D4" stroke-linecap="round" stroke-linejoin="round" clip-rule="evenodd"/><line x1="359.19" x2="509.61" y1="416.41" y2="159.61" fill="none" fill-rule="evenodd" stroke="#D4D4D4" stroke-linecap="round" stroke-linejoin="round" clip-rule="evenodd"/><line x1="320.81" x2="486.959" y1="416.41" y2="154.77" fill="none" fill-rule="evenodd" stroke="#D4D4D4" stroke-linecap="round" stroke-linejoin="round" clip-rule="evenodd"/><line x1="1" x2="260.48" y1="324.25" y2="416.41" fill="none" fill-rule="evenodd" stroke="#D4D4D4" stroke-linecap="round" stroke-linejoin="round" clip-rule="evenodd"/><line x1="244.07" x2="442.879" y1="416.41" y2="145.34" fill="none" fill-rule="evenodd" stroke="#D4D4D4" stroke-linecap="round" stroke-linejoin="round" clip-rule="evenodd"/><line x1="1" x2="493.93" y1="222.46" y2="371.62" fill="none" fill-rule="evenodd" stroke="#D4D4D4" stroke-linecap="round" stroke-linejoin="round" clip-rule="evenodd"/><line x1="1" x2="244.58" y1="301.65" y2="102.92" fill="none" fill-rule="evenodd" stroke="#D4D4D4" stroke-linecap="round" stroke-linejoin="round" clip-rule="evenodd"/><line x1="1" x2="226.55" y1="275.98" y2="99.07" fill="none" fill-rule="evenodd" stroke="#D4D4D4" stroke-linecap="round" stroke-linejoin="round" clip-rule="evenodd"/><line x1="1" x2="208.82" y1="252.221" y2="95.27" fill="none" fill-rule="evenodd" stroke="#D4D4D4" stroke-linecap="round" stroke-linejoin="round" clip-rule="evenodd"/><line x1="1" x2="476.169" y1="259.33" y2="412.171" fill="none" fill-rule="evenodd" stroke="#D4D4D4" stroke-linecap="round" stroke-linejoin="round" clip-rule="evenodd"/><line x1="1" x2="191.38" y1="230.16" y2="91.54" fill="none" fill-rule="evenodd" stroke="#D4D4D4" stroke-linecap="round" stroke-linejoin="round" clip-rule="evenodd"/><line x1="60.61" x2="319.79" y1="370.94" y2="119.01" fill="none" fill-rule="evenodd" stroke="#D4D4D4" stroke-linecap="round" stroke-linejoin="round" clip-rule="evenodd"/><line x1="34.74" x2="300.51" y1="361.421" y2="114.88" fill="none" fill-rule="evenodd" stroke="#D4D4D4" stroke-linecap="round" stroke-linejoin="round" clip-rule="evenodd"/><line x1="9.53" x2="281.55" y1="352.15" y2="110.83" fill="none" fill-rule="evenodd" stroke="#D4D4D4" stroke-linecap="round" stroke-linejoin="round" clip-rule="evenodd"/><line x1="87.17" x2="339.419" y1="380.721" y2="123.21" fill="none" fill-rule="evenodd" stroke="#D4D4D4" stroke-linecap="round" stroke-linejoin="round" clip-rule="evenodd"/><line x1="142.47" x2="379.7" y1="401.07" y2="131.83" fill="none" fill-rule="evenodd" stroke="#D4D4D4" stroke-linecap="round" stroke-linejoin="round" clip-rule="evenodd"/><line x1="171.27" x2="400.39" y1="411.66" y2="136.25" fill="none" fill-rule="evenodd" stroke="#D4D4D4" stroke-linecap="round" stroke-linejoin="round" clip-rule="evenodd"/><line x1="21.15" x2="509.93" y1="195.47" y2="335.101" fill="none" fill-rule="evenodd" stroke="#D4D4D4" stroke-linecap="round" stroke-linejoin="round" clip-rule="evenodd"/><line x1="5.03" x2="502.129" y1="206.8" y2="352.891" fill="none" fill-rule="evenodd" stroke="#D4D4D4" stroke-linecap="round" stroke-linejoin="round" clip-rule="evenodd"/><line x1="36.64" x2="517.35" y1="184.58" y2="318.171" fill="none" fill-rule="evenodd" stroke="#D4D4D4" stroke-linecap="round" stroke-linejoin="round" clip-rule="evenodd"/></g><g><line x1="174.22" x2="520.28" y1="87.87" y2="161.89" fill="none" fill-rule="evenodd" stroke="#8A8A8A" stroke-linecap="round" stroke-linejoin="round" clip-rule="evenodd"/><line x1="118.23" x2="520.28" y1="127.23" y2="223.28" fill="none" fill-rule="evenodd" stroke="#8A8A8A" stroke-linecap="round" stroke-linejoin="round" clip-rule="evenodd"/><line x1="474.31" x2="520.28" y1="416.41" y2="311.48" fill="none" fill-rule="evenodd" stroke="#8A8A8A" stroke-linecap="round" stroke-linejoin="round" clip-rule="evenodd"/><line x1="282.44" x2="464.72" y1="416.41" y2="150.01" fill="none" fill-rule="evenodd" stroke="#8A8A8A" stroke-linecap="round" stroke-linejoin="round" clip-rule="evenodd"/><line x1="1" x2="184.18" y1="349.01" y2="416.41" fill="none" fill-rule="evenodd" stroke="#8A8A8A" stroke-linecap="round" stroke-linejoin="round" clip-rule="evenodd"/><line x1="1" x2="262.911" y1="329.46" y2="106.84" fill="none" fill-rule="evenodd" stroke="#8A8A8A" stroke-linecap="round" stroke-linejoin="round" clip-rule="evenodd"/><line x1="1" x2="485.29" y1="240.33" y2="391.351" fill="none" fill-rule="evenodd" stroke="#8A8A8A" stroke-linecap="round" stroke-linejoin="round" clip-rule="evenodd"/><line x1="1" x2="174.22" y1="209.63" y2="87.87" fill="none" fill-rule="evenodd" stroke="#8A8A8A" stroke-linecap="round" stroke-linejoin="round" clip-rule="evenodd"/><line x1="262.82" x2="51.54" y1="231.271" y2="174.11" fill="none" fill-rule="evenodd" stroke="#8A8A8A" stroke-linecap="round" stroke-linejoin="round" clip-rule="evenodd"/><line x1="262.82" x2="114.45" y1="231.271" y2="390.75" fill="none" fill-rule="evenodd" stroke="#8A8A8A" stroke-linecap="round" stroke-linejoin="round" clip-rule="evenodd"/></g><line x1="359.379" x2="262.82" y1="127.48" y2="231.271" fill="none" fill-rule="evenodd" stroke="#12AB00" stroke-linecap="round" stroke-linejoin="round" stroke-width="2" clip-rule="evenodd"/><line x1="520.28" x2="262.82" y1="300.921" y2="231.271" fill="none" fill-rule="evenodd" stroke="#A80000" stroke-linecap="round" stroke-linejoin="round" stroke-width="2" clip-rule="evenodd"/></g><g id="Viewport_x5F_MG"><polygon fill="#FFC900" fill-rule="evenodd" points="138.78 56.32 66.11 224.81 244.72 377.62 346.18 169.55" clip-rule="evenodd"/><polygon fill="red" fill-rule="evenodd" stroke="#000" stroke-linecap="round" stroke-linejoin="round" stroke-width="3" points="75.87 202.17 88.99 212.801 78.97 235.81 66.11 224.81" clip-rule="evenodd"/><line x1="66.11" x2="244.72" y1="224.81" y2="377.62" fill="none" fill-rule="evenodd" stroke="#000" stroke-dasharray="4 4" stroke-linejoin="bevel" stroke-width="2" clip-rule="evenodd"/><polyline fill="none" fill-rule="evenodd" stroke="#000" stroke-linecap="round" stroke-linejoin="round" stroke-width="3" points="244.72 377.62 346.18 169.55 138.78 56.32 66.11 224.81" clip-rule="evenodd"/><path fill="#FFF" fill-rule="evenodd" stroke="#000" stroke-width="3" d="M239.79,377.62 c0-2.729,2.21-4.93,4.93-4.93c2.72,0,4.93,2.2,4.93,4.93c0,2.721-2.21,4.931-4.93,4.931C242,382.551,239.79,380.341,239.79,377.62z" clip-rule="evenodd"/><path fill="#FFF" fill-rule="evenodd" stroke="#000" stroke-width="3" d="M192.72,46.95 c0-2.72,2.21-4.93,4.93-4.93c2.73,0,4.93,2.21,4.93,4.93c0,2.72-2.2,4.93-4.93,4.93C194.93,51.88,192.72,49.67,192.72,46.95z" clip-rule="evenodd"/><polygon fill="#FFF" fill-rule="evenodd" stroke="#000" stroke-linejoin="round" stroke-width="3" points="255.35 409.39 251.09 399.11 246.22 401 246.22 379.101 262 394.88 256.71 396.93 260.919 407.08" clip-rule="evenodd"/><polygon fill="#FFF" fill-rule="evenodd" stroke="#000" stroke-linejoin="round" stroke-width="3" points="207.22 78.02 202.96 67.73 198.09 69.62 198.09 47.72 213.88 63.5 208.59 65.55 212.79 75.71" clip-rule="evenodd"/><g><path d="M55.363,217.188h1.756v13.963h-2.801v-10.771l-2.658,1.345l-1.004-2.023L55.363,217.188z"/></g><g><path d="M261.983,381.601h-8.498l-0.255-0.18c0.914-6.086,5.836-7.235,5.836-10.126c0-0.832-0.293-1.799-1.421-1.799 c-0.93,0-1.311,0.78-1.439,1.904l-2.848-0.07c0.307-1.82,1.331-3.832,4.372-3.832c2.912,0,4.204,1.776,4.204,3.724 c0,4.324-4.61,4.909-5.434,8.135h5.482V381.601z"/></g><g><path d="M196.096,30.023c1.724-0.141,2.44-0.992,2.44-2.242c0-0.884-0.331-1.565-1.241-1.565c-0.886,0-1.226,0.712-1.295,1.664 l-2.723-0.094c0.167-1.765,1.177-3.569,4.03-3.569c2.388,0,3.998,1.174,3.998,3.354c0,1.764-0.866,2.962-2.571,3.311v0.036 c1.596,0.23,3.045,1.373,3.045,3.632c0,2.587-1.56,4.015-4.327,4.015c-3.211,0-4.163-1.892-4.33-3.795l2.856-0.115 c0.095,1.01,0.489,1.905,1.42,1.905c1.09,0,1.513-0.892,1.513-1.912c0-1.702-0.996-2.432-2.815-2.53V30.023z"/></g><line x1="197.95" x2="65.2" y1="47.85" y2="224.851" fill="none" fill-rule="evenodd" stroke="#000" stroke-dasharray="4 4" stroke-linejoin="bevel" stroke-width="2" clip-rule="evenodd"/><path fill="#FFF" fill-rule="evenodd" stroke="#000" stroke-width="3" d="M61.32,224.801 c0-2.721,2.21-4.931,4.93-4.931c2.72,0,4.93,2.21,4.93,4.931c0,2.72-2.21,4.93-4.93,4.93C63.53,229.73,61.32,227.521,61.32,224.801 z" clip-rule="evenodd"/><polygon fill="#FFF" fill-rule="evenodd" stroke="#000" stroke-linejoin="round" stroke-width="3" points="76 255.99 71.74 245.71 66.87 247.601 66.87 225.7 82.65 241.48 77.36 243.53 81.57 253.68" clip-rule="evenodd"/></g><g id="Viewport_x5F_FG"><rect width="145.5" height="23" x="1" y="1" fill="#0000B0" fill-rule="evenodd" clip-rule="evenodd"/><g><path fill="#FFF" d="M17.204,18.9h-3.098l-2.366-4.969h-0.783V18.9H8.302V6.135h3.566c2.216,0,4.631,0.709,4.631,3.891 c0,2.253-1.173,3.185-2.438,3.491L17.204,18.9z M12.03,12.162c1.125,0,1.751-0.625,1.751-2.076c0-1.433-0.528-2.142-1.858-2.142 h-0.973v4.218H12.03z"/><path fill="#FFF" d="M23.836,18.9v-5.627c0-0.783-0.049-1.421-0.279-1.788c-0.173-0.261-0.439-0.424-0.871-0.424 c-0.342,0-0.708,0.108-1.027,0.291c-0.344,0.2-0.758,0.526-1.102,0.903V18.9h-2.521V5.811h2.521v4.542h0.065 c0.46-0.341,0.933-0.655,1.427-0.879c0.467-0.22,1.025-0.368,1.598-0.368c0.901,0,1.607,0.261,2.051,0.794 c0.427,0.525,0.659,1.338,0.659,2.529V18.9H23.836z"/><path fill="#FFF" d="M28,7.398V5.685h2.521v1.713H28z M30.521,18.9H28V9.322h2.521V18.9z"/><path fill="#FFF" d="M38.038,18.9v-5.632c0-0.784-0.049-1.406-0.279-1.772c-0.173-0.261-0.435-0.435-0.882-0.435 c-0.342,0-0.698,0.113-1.017,0.291c-0.344,0.2-0.757,0.526-1.102,0.903V18.9h-2.521V9.322h2.521l-0.026,1.036h0.088 c0.46-0.341,0.937-0.655,1.43-0.884c0.467-0.22,1.025-0.368,1.598-0.368c0.901,0,1.607,0.261,2.051,0.794 c0.427,0.525,0.659,1.338,0.659,2.529V18.9H38.038z"/><path fill="#FFF" d="M50.727,14.132c0,3.121-1.461,4.984-4.427,4.984c-3.089,0-4.43-1.906-4.43-5.002 c0-3.663,1.88-5.009,4.43-5.009c2.547,0,4.427,1.346,4.427,5.009V14.132z M46.317,17.522c1.044,0,1.827-1.084,1.827-3.404 c0-2.508-0.885-3.418-1.845-3.418c-0.963,0-1.848,0.939-1.848,3.418c0,2.47,0.815,3.404,1.848,3.404H46.317z"/><path fill="#FFF" d="M60.157,17.173c0.265-1.634,0.527-2.904,0.802-4.2l1.26-6.838h2.742L61.775,18.9h-3.361l-3.19-12.766 h2.742l1.258,6.859c0.269,1.285,0.543,2.544,0.808,4.179H60.157z"/><path fill="#FFF" d="M65.943,7.398V5.685h2.521v1.713H65.943z M68.464,18.9h-2.521V9.322h2.521V18.9z"/><path fill="#FFF" d="M72.365,14.608c0.1,2.282,0.704,3.029,1.545,3.029c0.68,0,1.104-0.49,1.367-1.367l2.597,0.091 c-0.2,0.645-0.587,1.323-1.249,1.878c-0.653,0.535-1.531,0.877-2.747,0.877c-1.098,0-2.174-0.283-2.938-1.114 c-0.726-0.785-1.16-2.029-1.16-3.948c0-1.628,0.378-2.997,1.206-3.858c0.677-0.698,1.617-1.091,2.868-1.091 c1.092,0,2.04,0.334,2.767,1.119c0.902,1.038,1.249,2.508,1.249,4.383H72.365z M75.279,13.331 c-0.137-1.89-0.699-2.746-1.433-2.746c-0.71,0-1.373,0.582-1.484,2.746H75.279z"/><path fill="#FFF" d="M84.912,11.31c-0.185,1.538-0.363,2.551-0.563,3.808l-0.67,3.783h-3.014l-2.236-9.579h2.369l0.688,3.827 c0.206,1.092,0.417,2.395,0.615,3.891h0.095c0.208-1.486,0.393-2.7,0.603-3.894l0.668-3.824h2.978l0.664,3.833 c0.203,1.197,0.407,2.456,0.597,3.885h0.094c0.209-1.517,0.412-2.729,0.623-3.947l0.692-3.771h2.367L89.248,18.9h-3.017 l-0.659-3.831c-0.202-1.285-0.376-2.275-0.566-3.76H84.912z"/><path fill="#FFF" d="M92.513,9.322h2.521l-0.023,0.752h0.051c0.278-0.225,0.599-0.494,1.036-0.688 c0.413-0.164,0.874-0.281,1.455-0.281c1.023,0,1.91,0.327,2.606,1.117c0.653,0.776,1.104,2.004,1.104,3.876 c0,1.772-0.406,3.077-1.035,3.846c-0.63,0.751-1.534,1.172-2.724,1.172c-0.402,0-0.841-0.043-1.333-0.23 c-0.37-0.141-0.739-0.357-1.103-0.652h-0.035v5.131h-2.521V9.322z M95.034,16.324c0.238,0.324,0.53,0.572,0.862,0.743 c0.306,0.167,0.654,0.259,1.022,0.259c0.496,0,0.964-0.209,1.292-0.67c0.268-0.405,0.47-1.144,0.47-2.512 c0-1.202-0.17-2.01-0.481-2.54c-0.3-0.462-0.749-0.707-1.293-0.707c-0.288,0-0.621,0.06-0.974,0.231 c-0.308,0.155-0.616,0.419-0.898,0.785V16.324z"/><path fill="#FFF" d="M111.188,14.132c0,3.121-1.461,4.984-4.428,4.984c-3.089,0-4.43-1.906-4.43-5.002 c0-3.663,1.88-5.009,4.43-5.009c2.547,0,4.428,1.346,4.428,5.009V14.132z M106.778,17.522c1.044,0,1.827-1.084,1.827-3.404 c0-2.508-0.885-3.418-1.845-3.418c-0.963,0-1.848,0.939-1.848,3.418c0,2.47,0.816,3.404,1.848,3.404H106.778z"/><path fill="#FFF" d="M114.917,10.166c0.201-0.276,0.424-0.543,0.704-0.747c0.264-0.184,0.569-0.313,0.941-0.313 c0.195,0,0.376,0.024,0.538,0.072c0.148,0.044,0.28,0.102,0.409,0.184l-0.201,2.09c-0.091-0.097-0.202-0.173-0.329-0.242 c-0.164-0.075-0.319-0.112-0.498-0.112c-0.256,0-0.502,0.098-0.826,0.379c-0.26,0.229-0.512,0.551-0.769,0.964v6.46h-2.521V9.322 h2.521l-0.024,0.844H114.917z"/><path fill="#FFF" d="M118.759,7.196h2.521v2.125h1.542v1.62h-1.542v4.361c0,1.409,0.266,2.112,0.89,2.112 c0.389,0,0.715-0.21,0.925-0.377l0.376,1.621c-0.529,0.239-1.112,0.458-1.903,0.458c-1.814,0-2.809-0.917-2.809-3.248v-4.927 h-0.937v-1.62h0.937V7.196z"/></g><rect width="519.28" height="415.41" x="1" y="1" fill="none" fill-rule="evenodd" stroke="#000" stroke-linecap="round" stroke-width="2" clip-rule="evenodd"/></g></svg>