<svg xmlns="http://www.w3.org/2000/svg" xmlns:xlink="http://www.w3.org/1999/xlink" id="Layer_1" width="297.112" height="108.611" x="0" y="0" enable-background="new 0 0 297.112 108.611" version="1.0" viewBox="0 0 297.112 108.611" xml:space="preserve"><path fill="#E6E7E8" d="M190.455,0.5h106.157v15.372H190.455V0.5z M84.299,0.5h106.157v15.372H84.299V0.5z M0.5,0.5h83.798v15.372	H0.5V0.5z"/><line x1="0" x2="84.298" y1=".5" y2=".5" fill="none" stroke="#231F20" stroke-miterlimit="10"/><line x1=".5" x2=".5" y1="15.873" y2="1" fill="none" stroke="#231F20" stroke-miterlimit="10"/><line x1="84.298" x2="190.456" y1=".5" y2=".5" fill="none" stroke="#231F20" stroke-miterlimit="10"/><line x1="190.455" x2="297.112" y1=".5" y2=".5" fill="none" stroke="#231F20" stroke-miterlimit="10"/><line x1="296.611" x2="296.611" y1="15.873" y2="1" fill="none" stroke="#231F20" stroke-miterlimit="10"/><line x1=".5" x2=".5" y1="31.246" y2="15.873" fill="none" stroke="#231F20" stroke-miterlimit="10"/><line x1="296.611" x2="296.611" y1="31.246" y2="15.873" fill="none" stroke="#231F20" stroke-miterlimit="10"/><line x1=".5" x2=".5" y1="46.619" y2="31.246" fill="none" stroke="#231F20" stroke-miterlimit="10"/><line x1="296.611" x2="296.611" y1="46.619" y2="31.246" fill="none" stroke="#231F20" stroke-miterlimit="10"/><line x1=".5" x2=".5" y1="61.992" y2="46.619" fill="none" stroke="#231F20" stroke-miterlimit="10"/><line x1="296.611" x2="296.611" y1="61.992" y2="46.619" fill="none" stroke="#231F20" stroke-miterlimit="10"/><line x1=".5" x2=".5" y1="77.365" y2="61.992" fill="none" stroke="#231F20" stroke-miterlimit="10"/><line x1="296.611" x2="296.611" y1="77.365" y2="61.992" fill="none" stroke="#231F20" stroke-miterlimit="10"/><line x1=".5" x2=".5" y1="92.738" y2="77.365" fill="none" stroke="#231F20" stroke-miterlimit="10"/><line x1="296.611" x2="296.611" y1="92.738" y2="77.365" fill="none" stroke="#231F20" stroke-miterlimit="10"/><line x1=".5" x2=".5" y1="107.611" y2="92.738" fill="none" stroke="#231F20" stroke-miterlimit="10"/><line x1="296.611" x2="296.611" y1="107.611" y2="92.738" fill="none" stroke="#231F20" stroke-miterlimit="10"/><line x1="0" x2="84.298" y1="108.111" y2="108.111" fill="none" stroke="#231F20" stroke-miterlimit="10"/><line x1="84.298" x2="190.456" y1="108.111" y2="108.111" fill="none" stroke="#231F20" stroke-miterlimit="10"/><line x1="190.455" x2="297.112" y1="108.111" y2="108.111" fill="none" stroke="#231F20" stroke-miterlimit="10"/><line x1="1" x2="84.298" y1="15.873" y2="15.873" fill="none" stroke="#231F20" stroke-miterlimit="10" stroke-width=".25"/><line x1="84.298" x2="84.298" y1="15.748" y2="1" fill="none" stroke="#231F20" stroke-miterlimit="10" stroke-width=".25"/><line x1="190.455" x2="190.455" y1="15.748" y2="1" fill="none" stroke="#231F20" stroke-miterlimit="10" stroke-width=".25"/><line x1="84.298" x2="84.298" y1="31.121" y2="15.998" fill="none" stroke="#231F20" stroke-miterlimit="10" stroke-width=".25"/><line x1="190.455" x2="190.455" y1="31.121" y2="15.998" fill="none" stroke="#231F20" stroke-miterlimit="10" stroke-width=".25"/><line x1="1" x2="84.298" y1="31.246" y2="31.246" fill="none" stroke="#231F20" stroke-miterlimit="10" stroke-width=".25"/><line x1="84.298" x2="190.456" y1="31.246" y2="31.246" fill="none" stroke="#231F20" stroke-miterlimit="10" stroke-width=".25"/><line x1="84.298" x2="84.298" y1="46.494" y2="31.371" fill="none" stroke="#231F20" stroke-miterlimit="10" stroke-width=".25"/><line x1="190.455" x2="296.112" y1="31.246" y2="31.246" fill="none" stroke="#231F20" stroke-miterlimit="10" stroke-width=".25"/><line x1="190.455" x2="190.455" y1="46.494" y2="31.371" fill="none" stroke="#231F20" stroke-miterlimit="10" stroke-width=".25"/><line x1="1" x2="84.298" y1="46.619" y2="46.619" fill="none" stroke="#231F20" stroke-miterlimit="10" stroke-width=".25"/><line x1="84.298" x2="190.456" y1="46.619" y2="46.619" fill="none" stroke="#231F20" stroke-miterlimit="10" stroke-width=".25"/><line x1="84.298" x2="84.298" y1="61.867" y2="46.744" fill="none" stroke="#231F20" stroke-miterlimit="10" stroke-width=".25"/><line x1="190.455" x2="296.112" y1="46.619" y2="46.619" fill="none" stroke="#231F20" stroke-miterlimit="10" stroke-width=".25"/><line x1="190.455" x2="190.455" y1="61.867" y2="46.744" fill="none" stroke="#231F20" stroke-miterlimit="10" stroke-width=".25"/><line x1="1" x2="84.298" y1="61.992" y2="61.992" fill="none" stroke="#231F20" stroke-miterlimit="10" stroke-width=".25"/><line x1="84.298" x2="190.456" y1="61.992" y2="61.992" fill="none" stroke="#231F20" stroke-miterlimit="10" stroke-width=".25"/><line x1="84.298" x2="84.298" y1="77.24" y2="62.117" fill="none" stroke="#231F20" stroke-miterlimit="10" stroke-width=".25"/><line x1="190.455" x2="296.112" y1="61.992" y2="61.992" fill="none" stroke="#231F20" stroke-miterlimit="10" stroke-width=".25"/><line x1="190.455" x2="190.455" y1="77.24" y2="62.117" fill="none" stroke="#231F20" stroke-miterlimit="10" stroke-width=".25"/><line x1="1" x2="84.298" y1="77.365" y2="77.365" fill="none" stroke="#231F20" stroke-miterlimit="10" stroke-width=".25"/><line x1="84.298" x2="190.456" y1="77.365" y2="77.365" fill="none" stroke="#231F20" stroke-miterlimit="10" stroke-width=".25"/><line x1="84.298" x2="84.298" y1="92.613" y2="77.49" fill="none" stroke="#231F20" stroke-miterlimit="10" stroke-width=".25"/><line x1="190.455" x2="296.112" y1="77.365" y2="77.365" fill="none" stroke="#231F20" stroke-miterlimit="10" stroke-width=".25"/><line x1="190.455" x2="190.455" y1="92.613" y2="77.49" fill="none" stroke="#231F20" stroke-miterlimit="10" stroke-width=".25"/><line x1="84.298" x2="84.298" y1="107.611" y2="92.863" fill="none" stroke="#231F20" stroke-miterlimit="10" stroke-width=".25"/><line x1="190.455" x2="190.455" y1="107.611" y2="92.863" fill="none" stroke="#231F20" stroke-miterlimit="10" stroke-width=".25"/><line x1="84.298" x2="190.456" y1="15.873" y2="15.873" fill="none" stroke="#231F20" stroke-miterlimit="10" stroke-width=".25"/><line x1="190.455" x2="296.112" y1="15.873" y2="15.873" fill="none" stroke="#231F20" stroke-miterlimit="10" stroke-width=".25"/><line x1="1" x2="84.298" y1="92.738" y2="92.738" fill="none" stroke="#231F20" stroke-miterlimit="10" stroke-width=".25"/><line x1="84.298" x2="190.456" y1="92.738" y2="92.738" fill="none" stroke="#231F20" stroke-miterlimit="10" stroke-width=".25"/><line x1="190.455" x2="296.112" y1="92.738" y2="92.738" fill="none" stroke="#231F20" stroke-miterlimit="10" stroke-width=".25"/><text fill="#231F20" font-family="'TrebuchetMS-Italic'" font-size="10" transform="matrix(1 0 0 1 27.5752 11.873)">Colour</text><text fill="#231F20" font-family="'TrebuchetMS-Italic'" font-size="10" transform="matrix(1 0 0 1 106.5752 11.873)">RGB Channels</text><text fill="#231F20" font-family="'TrebuchetMS-Italic'" font-size="10" transform="matrix(1 0 0 1 213.6953 11.873)">Integer value</text><text fill="#231F20" font-family="'TrebuchetMS'" font-size="10" transform="matrix(1 0 0 1 8.5049 27.2432)">Black</text><text fill="#231F20" font-family="'TrebuchetMS'" font-size="5.83" transform="matrix(1 0 0 1 32.3574 23.916)">1</text><text fill="#231F20" font-family="'TrebuchetMS'" font-size="10" transform="matrix(1 0 0 1 92.2983 27.2461)">{0, 0, 0}</text><text fill="#231F20" font-family="'TrebuchetMS'" font-size="10" transform="matrix(1 0 0 1 268.3682 27.2461)">0</text><text fill="#231F20" font-family="'TrebuchetMS'" font-size="10" transform="matrix(1 0 0 1 8.4985 42.6162)">White</text><text fill="#231F20" font-family="'TrebuchetMS'" font-size="5.83" transform="matrix(1 0 0 1 34.7549 39.2891)">2</text><text fill="#231F20" font-family="'TrebuchetMS'" font-size="10" transform="matrix(1 0 0 1 92.2983 42.6191)">{255, 255, 255}</text><text fill="#231F20" font-family="'TrebuchetMS'" font-size="10" transform="matrix(1 0 0 1 231.6592 42.6191)">16777215</text><text transform="matrix(1 0 0 1 8.4985 57.9893)"><tspan x="0" y="0" fill="#231F20" font-family="'TrebuchetMS'" font-size="10">R</tspan><tspan x="5.41" y="0" fill="#231F20" font-family="'TrebuchetMS'" font-size="10">ed</tspan></text><text fill="#231F20" font-family="'TrebuchetMS'" font-size="10" transform="matrix(1 0 0 1 92.2983 57.9893)">{255, 0, 0}</text><text fill="#231F20" font-family="'TrebuchetMS'" font-size="10" transform="matrix(1 0 0 1 257.8779 57.9893)">255</text><text fill="#231F20" font-family="'TrebuchetMS'" font-size="10" transform="matrix(1 0 0 1 8.4985 73.3594)">Green</text><text fill="#231F20" font-family="'TrebuchetMS'" font-size="10" transform="matrix(1 0 0 1 92.2983 73.3594)">{0, 255, 0}</text><text fill="#231F20" font-family="'TrebuchetMS'" font-size="10" transform="matrix(1 0 0 1 247.3887 73.3594)">65280</text><text fill="#231F20" font-family="'TrebuchetMS'" font-size="10" transform="matrix(1 0 0 1 8.4985 88.7295)">Blue</text><text fill="#231F20" font-family="'TrebuchetMS'" font-size="10" transform="matrix(1 0 0 1 92.2983 88.7295)">{0, 0, 255}</text><text fill="#231F20" font-family="'TrebuchetMS'" font-size="10" transform="matrix(1 0 0 1 231.6592 88.7295)">16711680</text><text fill="#231F20" font-family="'TrebuchetMS'" font-size="10" transform="matrix(1 0 0 1 8.4985 104.0986)">Orange</text><text fill="#231F20" font-family="'TrebuchetMS'" font-size="10" transform="matrix(1 0 0 1 92.2983 104.0986)">{255, 155, 0}</text><text fill="#231F20" font-family="'TrebuchetMS'" font-size="10" transform="matrix(1 0 0 1 247.3887 104.0986)">39935</text></svg>