<svg xmlns="http://www.w3.org/2000/svg" xmlns:xlink="http://www.w3.org/1999/xlink" width="508.86" height="280.34" x="0" y="0" enable-background="new 0 0 508.86 280.34" version="1.0" viewBox="0 0 508.86 280.34" xml:space="preserve"><g id="Grid"><polygon fill="#F2F2F2" fill-rule="evenodd" stroke="#000" stroke-linecap="round" stroke-linejoin="round" points="230.52 .5 .5 125.39 332.581 279.84 508.36 78.96" clip-rule="evenodd"/><g opacity=".25"><line x1="285.56" x2="471.63" y1="257.971" y2="68.59" fill="none" fill-rule="evenodd" stroke="#000" stroke-linecap="round" stroke-linejoin="round" stroke-width=".5" clip-rule="evenodd"/><line x1="241.66" x2="436.589" y1="237.55" y2="58.7" fill="none" fill-rule="evenodd" stroke="#000" stroke-linecap="round" stroke-linejoin="round" stroke-width=".5" clip-rule="evenodd"/><line x1="200.57" x2="403.15" y1="218.45" y2="49.25" fill="none" fill-rule="evenodd" stroke="#000" stroke-linecap="round" stroke-linejoin="round" stroke-width=".5" clip-rule="evenodd"/><line x1="162.04" x2="371.19" y1="200.53" y2="40.23" fill="none" fill-rule="evenodd" stroke="#000" stroke-linecap="round" stroke-linejoin="round" stroke-width=".5" clip-rule="evenodd"/><line x1="125.84" x2="340.62" y1="183.69" y2="31.59" fill="none" fill-rule="evenodd" stroke="#000" stroke-linecap="round" stroke-linejoin="round" stroke-width=".5" clip-rule="evenodd"/><line x1="91.75" x2="311.339" y1="167.83" y2="23.33" fill="none" fill-rule="evenodd" stroke="#000" stroke-linecap="round" stroke-linejoin="round" stroke-width=".5" clip-rule="evenodd"/><line x1="59.6" x2="283.28" y1="152.88" y2="15.4" fill="none" fill-rule="evenodd" stroke="#000" stroke-linecap="round" stroke-linejoin="round" stroke-width=".5" clip-rule="evenodd"/><line x1="29.23" x2="256.36" y1="138.76" y2="7.8" fill="none" fill-rule="evenodd" stroke="#000" stroke-linecap="round" stroke-linejoin="round" stroke-width=".5" clip-rule="evenodd"/><line x1="211.01" x2="494.5" y1="11.1" y2="94.81" fill="none" fill-rule="evenodd" stroke="#000" stroke-linecap="round" stroke-linejoin="round" stroke-width=".5" clip-rule="evenodd"/><line x1="190.3" x2="479.589" y1="22.34" y2="111.84" fill="none" fill-rule="evenodd" stroke="#000" stroke-linecap="round" stroke-linejoin="round" stroke-width=".5" clip-rule="evenodd"/><line x1="168.3" x2="463.52" y1="34.29" y2="130.21" fill="none" fill-rule="evenodd" stroke="#000" stroke-linecap="round" stroke-linejoin="round" stroke-width=".5" clip-rule="evenodd"/><line x1="144.87" x2="446.13" y1="47.01" y2="150.08" fill="none" fill-rule="evenodd" stroke="#000" stroke-linecap="round" stroke-linejoin="round" stroke-width=".5" clip-rule="evenodd"/><line x1="119.87" x2="427.28" y1="60.58" y2="171.63" fill="none" fill-rule="evenodd" stroke="#000" stroke-linecap="round" stroke-linejoin="round" stroke-width=".5" clip-rule="evenodd"/><line x1="93.13" x2="406.75" y1="75.1" y2="195.08" fill="none" fill-rule="evenodd" stroke="#000" stroke-linecap="round" stroke-linejoin="round" stroke-width=".5" clip-rule="evenodd"/><line x1="64.47" x2="384.32" y1="90.66" y2="220.721" fill="none" fill-rule="evenodd" stroke="#000" stroke-linecap="round" stroke-linejoin="round" stroke-width=".5" clip-rule="evenodd"/><line x1="33.68" x2="359.709" y1="107.38" y2="248.84" fill="none" fill-rule="evenodd" stroke="#000" stroke-linecap="round" stroke-linejoin="round" stroke-width=".5" clip-rule="evenodd"/></g></g><g id="Box"><linearGradient id="SVGID_1_" x1="251.786" x2="358.286" y1="104.154" y2="96.654" gradientUnits="userSpaceOnUse"><stop offset="0" stop-color="#000"/><stop offset="1" stop-color="#999"/></linearGradient><path fill="url(#SVGID_1_)" fill-rule="evenodd" d="M301.331,126.97 c24.219-10.92,48.439-21.85,72.649-32.77c-20.76-6.63-41.53-13.27-62.29-19.9c-22.53,1.36-45.06,2.72-67.59,4.09 c-20.92,9.13-41.84,18.27-62.77,27.41c16.69,6.33,33.38,12.66,50.06,18.99C254.709,125.52,278.02,126.25,301.331,126.97z" clip-rule="evenodd" opacity=".6"/><g><polygon fill="#B0B0B0" fill-rule="evenodd" points="162.13 63.47 180.89 104.9 230.95 123.89 214.64 81.9" clip-rule="evenodd"/><polygon fill="#7D7D7D" fill-rule="evenodd" points="250.92 36.7 214.64 81.9 230.95 123.89 264.48 79.86" clip-rule="evenodd"/><polygon fill="#FFF" fill-rule="evenodd" points="198.87 20.77 162.13 63.47 214.64 81.9 250.92 36.7" clip-rule="evenodd"/></g><polygon fill="none" fill-rule="evenodd" stroke="#000" stroke-linecap="round" stroke-linejoin="round" stroke-width="2" points="198.87 20.77 162.13 63.47 180.89 104.9 230.95 123.89 264.48 79.86 250.92 36.7" clip-rule="evenodd"/></g><g id="Lines"><g><line x1="33.67" x2="160.66" y1="107.39" y2="85.28" fill="none" fill-rule="evenodd" stroke="#000" stroke-linecap="round" stroke-linejoin="round" clip-rule="evenodd"/><polygon points="159.361 89.611 157.967 88.632 160.278 85.347 156.993 83.037 157.974 81.643 162.651 84.934"/></g><g><line x1="157.64" x2="201.81" y1="161.17" y2="105.76" fill="none" fill-rule="evenodd" stroke="#000" stroke-linecap="round" stroke-linejoin="round" clip-rule="evenodd"/><polygon points="203.721 109.884 202.02 110.076 201.567 106.065 197.557 106.519 197.364 104.816 203.076 104.172"/></g><g><line x1="403.15" x2="275.35" y1="49.25" y2="77.46" fill="none" fill-rule="evenodd" stroke="#000" stroke-linecap="round" stroke-linejoin="round" clip-rule="evenodd"/><polygon points="276.459 73.053 277.903 73.973 275.73 77.376 279.133 79.547 278.211 80.991 273.367 77.898"/></g><path fill="#FFF" fill-rule="evenodd" stroke="#000" stroke-width="2" d="M30.66,107.2 c-0.03-1.63,1.27-2.96,2.9-2.99c1.62-0.02,2.96,1.28,2.98,2.9c0.03,1.63-1.27,2.96-2.9,2.99C32.02,110.12,30.68,108.82,30.66,107.2 z" clip-rule="evenodd"/><path fill="#FFF" fill-rule="evenodd" stroke="#000" stroke-width="2" d="M168.25,83.53 c-0.02-1.62,1.28-2.96,2.9-2.98c1.62-0.03,2.96,1.27,2.98,2.9c0.03,1.62-1.27,2.96-2.89,2.98 C169.61,86.45,168.27,85.16,168.25,83.53z" clip-rule="evenodd"/><path fill="#FFF" fill-rule="evenodd" stroke="#000" stroke-width="2" d="M205.75,97.18 c-0.02-1.63,1.27-2.96,2.9-2.99c1.62-0.02,2.96,1.28,2.98,2.9c0.03,1.62-1.27,2.96-2.9,2.99C207.11,100.1,205.77,98.8,205.75,97.18 z" clip-rule="evenodd"/><path fill="#FFF" fill-rule="evenodd" stroke="#000" stroke-width="2" d="M154.7,161.21 c-0.03-1.62,1.27-2.96,2.9-2.989c1.62-0.021,2.96,1.279,2.98,2.899c0.03,1.63-1.27,2.97-2.9,2.989 C156.06,164.13,154.72,162.83,154.7,161.21z" clip-rule="evenodd"/><path fill="#FFF" fill-rule="evenodd" stroke="#000" stroke-width="2" d="M261.54,79.9 c-0.029-1.62,1.271-2.96,2.891-2.98c1.63-0.03,2.97,1.27,2.99,2.9c0.02,1.62-1.28,2.96-2.9,2.98 C262.9,82.82,261.56,81.53,261.54,79.9z" clip-rule="evenodd"/><path fill="#FFF" fill-rule="evenodd" stroke="#000" stroke-width="2" d="M400.209,49.3 c-0.02-1.63,1.271-2.97,2.9-2.99c1.62-0.02,2.96,1.28,2.979,2.9c0.03,1.62-1.27,2.96-2.899,2.99 C401.57,52.22,400.23,50.92,400.209,49.3z" clip-rule="evenodd"/><text font-family="'TrebuchetMS-Bold'" font-size="12" transform="matrix(1 0 0 1 29.8281 100.8125)">A</text><text font-family="'TrebuchetMS-Bold'" font-size="12" transform="matrix(1 0 0 1 153.4492 175.6543)">B</text><text font-family="'TrebuchetMS-Bold'" font-size="12" transform="matrix(1 0 0 1 399.4595 43.4858)">C</text><text font-family="'Trebuchet-BoldItalic'" font-size="12" transform="matrix(1 0 0 1 93.9917 89.2363)">D</text><text font-family="'TrebuchetMS-Bold'" font-size="12" transform="matrix(0.583 0 0 0.583 101.5796 91.2324)">A</text><text font-family="'TrebuchetMS-Bold'" font-size="12" transform="matrix(1 0 0 1 177.3198 86.7588)">A</text><text font-family="'TrebuchetMS-Bold'" font-size="12" transform="matrix(0.583 0 0 0.583 184.9194 88.7549)">cp</text></g></svg>