<svg xmlns="http://www.w3.org/2000/svg" xmlns:xlink="http://www.w3.org/1999/xlink" width="437.97" height="351.19" x="0" y="0" enable-background="new 0 0 437.97 351.19" version="1.0" viewBox="0 0 437.97 351.19" xml:space="preserve"><g id="Fill"><path fill="none" fill-rule="evenodd" stroke="#000" stroke-linejoin="bevel" stroke-width="1.5" d="M71.89,315.08c-3.65,0.01-7.43-0.12-11.41-0.29c-0.01,0-0.02,0-0.03-0.011c-18.05-16.37-22.17-39.039-24.21-60.959 c-1.54-16.65-2.57-50.431-1.73-67.15c1.14-22.65,4.97-44.59,26.63-58.64c5.48-3.55,11.34-5.93,17.43-8.09 c4.53-1.61,8.94-3.19,12.96-5.98c9.88-6.84,14.45-16.88,20.9-26.01c0-0.01,0.01-0.01,0.02-0.01c11.41-0.99,22.87-1.25,34.28-2.13 c2.85-0.22,5.7-0.47,8.54-0.76C193,83.31,208,38.55,303.63,31.17c22.75-2.43,45.49-4.86,68.24-7.3c0.01,0,0.029,0.01,0.029,0.03 c0.74,1.61,0.87,3.29,1.09,4.98c0.381,2.87,0.58,5.74,0.761,8.62c0.489,7.87,0.689,15.74,0.909,23.62 C375,73.56,375.3,86,376.09,98.43c0.53,8.29,1.11,16.52,2.75,24.7c0.77,3.81,1.76,8.35,4.649,11.44c3.061,3.26,7.22,3.09,10.7,5.08 c2.761,1.58,4.38,3.71,5.761,6.46c2.579,5.15,3.39,10.49,4.149,16.03c2.13,15.311,3.58,59.27,4.03,74.62 c0.64,21.95,1.46,52.27-6.961,73.95c-0.01,0.01-0.02,0.02-0.039,0.02c-29.65-0.979-59.301-1.959-88.95-2.95 c-11.45-0.379-33.03-0.829-44.46-2.17c-17.17-2-26.94-5.81-41.96-14c-13.08-7.13-25.06-15.029-40.88-16.529 c-16.4-1.551-28.71,4.05-42.09,11.86c-12.79,7.46-24.7,16.26-38.55,22.089C92.77,313.85,82.86,315.06,71.89,315.08z" clip-rule="evenodd"/></g><g id="Surface"><g><path fill="none" fill-rule="evenodd" stroke="#000" stroke-dasharray="1.5 1.5" stroke-linejoin="round" stroke-width=".75" d="M205.29,61.45c-1.09,1.33-1.46,3.87-1.73,5.39c-0.5,2.7-0.84,5.42-1.21,8.14c-1.31,9.68-2.47,19.38-3.7,29.08 c-2.47,19.37-5.25,38.68-6.42,58.22c-0.58,9.78-0.43,19.53-0.1,29.31c0.32,9.76,0.31,19.51,0.15,29.26 c-0.35,19.801-0.57,38.54,7.52,57.66" clip-rule="evenodd"/><path fill="none" fill-rule="evenodd" stroke="#000" stroke-dasharray="1.5 1.5" stroke-linejoin="round" stroke-width=".75" d="M224.78,52.28c-0.45,0.25-0.88,1.01-1.26,2.5c-1.38,5.43-1.74,13.65-2.14,19.14c-0.75,10.25-1.26,20.51-1.851,30.77 c-0.6,10.27-1.25,20.53-2.05,30.79c-0.79,10.25-1.79,20.48-2.25,30.76c-0.46,10.3-0.01,20.57,0.16,30.85s-0.16,20.54-0.43,30.811 c-0.53,20.75-1.24,40.659,6.03,61.04" clip-rule="evenodd"/><path fill="none" fill-rule="evenodd" stroke="#000" stroke-dasharray="1.5 1.5" stroke-linejoin="round" stroke-width=".75" d="M49.8,302.07c16.54,0.569,29.56,0.439,45.46-5.87c14.53-5.76,27.18-14.55,40.65-22.03c14-7.761,27-13.45,43.88-12.13 c16.43,1.28,29.14,9.14,42.93,16.18c15.83,8.09,26.109,11.63,43.9,13.49c11.949,1.25,34.22,1.649,46.18,1.97 c30.84,0.841,61.67,1.62,92.5,2.43" clip-rule="evenodd"/><path fill="none" fill-rule="evenodd" stroke="#000" stroke-dasharray="1.5 1.5" stroke-linejoin="round" stroke-width=".75" d="M40.93,281.659c16.64,0.381,30.51,0.091,46.72-5.109c15.17-4.88,28.71-12.8,42.86-19.641c14.57-7.029,28.4-12.279,45.23-11.63 c16.56,0.641,30.46,7.101,45.12,13.08c16.78,6.841,27.48,9.8,45.56,11.641c15.701,1.609,31.41,1.859,47.15,2.22 c31.471,0.74,62.96,1.051,94.44,1.53" clip-rule="evenodd"/><path fill="none" fill-rule="evenodd" stroke="#000" stroke-dasharray="1.5 1.5" stroke-linejoin="round" stroke-width=".75" d="M36.18,252.67c15.77,0.28,31.29,0.109,46.94-2.93c15.63-3.03,30.1-8.931,44.88-14.311c15.8-5.74,28.8-9.529,45.94-9.64 c16.02-0.09,31.13,3.31,46.49,6.84c17.37,3.99,28.66,6.29,46.41,8.2c15.68,1.68,31.36,2.39,47.11,2.67 c31.439,0.55,62.879-0.11,94.319-0.091" clip-rule="evenodd"/><path fill="none" fill-rule="evenodd" stroke="#000" stroke-dasharray="1.5 1.5" stroke-linejoin="round" stroke-width=".75" d="M34.48,218.9c15.57,1.279,31.05,2.259,46.71,1.509c15.72-0.759,30.87-3.889,46.13-7.25c17.03-3.75,28.7-5.939,46.24-6.449 c15.64-0.46,31.18,0.36,46.75,1.43c36.811,2.53,56.29,5.94,93.34,5.78c15.61-0.07,31.16-0.85,46.721-1.91 c15.569-1.06,31.109-2.239,46.729-2.489" clip-rule="evenodd"/><path fill="none" fill-rule="evenodd" stroke="#000" stroke-dasharray="1.5 1.5" stroke-linejoin="round" stroke-width=".75" d="M34.65,184.83c15.17,3.46,30.33,6.55,45.83,8.27c15.6,1.73,30.94,1.38,46.51-0.029c18.52-1.681,27.9-2.811,46.52-3.391 c15.51-0.479,31.02-0.65,46.55-0.7c23.62-0.06,69.57,1.66,93.22,0.601c17.21-0.771,29.311-2.46,46.18-5.78 c15.271-3.01,30.351-6.37,46.081-6.86" clip-rule="evenodd"/><path fill="none" fill-rule="evenodd" stroke="#000" stroke-dasharray="1.5 1.5" stroke-linejoin="round" stroke-width=".75" d="M39.58,155.76c14.43,5.14,28.87,10.13,43.77,13.88c15.88,3.99,29.05,5.51,45.42,5.26c15.33-0.23,30.59-1.56,45.89-2.18 c15.32-0.63,30.64-0.61,45.97-0.45c23.3,0.24,68.449,0.07,91.74-1.69c17.26-1.3,28.529-3.66,45.1-8.48 c14.72-4.27,29.04-9.06,44.73-9.74" clip-rule="evenodd"/><path fill="none" fill-rule="evenodd" stroke="#000" stroke-dasharray="1.5 1.5" stroke-linejoin="round" stroke-width=".75" d="M51.1,136.44c13.4,5.83,26.75,11.6,40.73,16.02c14.99,4.74,27.43,6.55,43.18,5.89c14.62-0.61,29.03-3.02,43.6-4.05 c16.32-1.15,27.51-0.17,43.73,1.14c17.3,1.39,26.39,1.75,43.75,1.37c14.61-0.31,29.21-0.72,43.8-1.57 c16.36-0.96,27.311-2.55,43.279-6.25c14.24-3.31,28.24-7.11,43.061-7.84" clip-rule="evenodd"/><path fill="none" fill-rule="evenodd" stroke="#000" stroke-dasharray="1.5 1.5" stroke-linejoin="round" stroke-width=".75" d="M64.95,125.8c12.35,6.08,24.69,11.81,38.02,15.62c14.38,4.12,26.1,4.41,40.76,2.07c13.55-2.16,26.76-5.92,40.47-7.38 c13.93-1.49,27.35,0.22,41.009,1.97c16.771,2.14,24.12,2.52,41.021,2.57c20.01,0.07,21.17,0.01,41.17,0.92 c13.721,0.63,27.38,0.91,41.12-0.15c13.689-1.06,27.3-2.87,41.03-3.56" clip-rule="evenodd"/><path fill="none" fill-rule="evenodd" stroke="#000" stroke-dasharray="1.5 1.5" stroke-linejoin="round" stroke-width=".75" d="M77.2,120.47c11.59,6.38,23.13,11.49,36.41,13.68c13.61,2.25,25.72-0.01,38.53-3.9c12.47-3.78,24.61-8.45,37.61-10.66 c13.17-2.23,25.96-1.15,39.02-0.08c6.45,0.54,12.899,1.01,19.38,1.25c6.551,0.24,13.101,0.35,19.65,0.67 c15.4,0.75,23.65,2.25,38.57,5.98c12.659,3.18,25.159,6.45,38.33,7.36c13.06,0.9,26.069,0.19,39.109,0.17" clip-rule="evenodd"/><path fill="none" fill-rule="evenodd" stroke="#000" stroke-dasharray="1.5 1.5" stroke-linejoin="round" stroke-width=".75" d="M87.15,116.58c11.44,6.38,22.5,10.29,35.91,10.25c13.25-0.05,24.57-4.28,36.34-9.28c30.94-13.15,38.32-17.14,72.641-18.04 c12.59-0.33,25.14-0.92,37.76,0.1c14.279,1.15,23.279,4.06,36.51,9.09c12.94,4.92,22.2,8.84,36.141,10.84 c12.439,1.78,24.93,2.06,37.06,6.67" clip-rule="evenodd"/><path fill="none" fill-rule="evenodd" stroke="#000" stroke-dasharray="1.5 1.5" stroke-linejoin="round" stroke-width=".75" d="M95.01,111.28c26.1,11.92,47.89,4.88,71-7.04c11.01-5.67,21.69-11.88,33.29-16.43c11.7-4.59,23.63-7.14,35.979-8.91 c12.33-1.76,24.57-2.92,37.08-2.41c12.56,0.51,24.45,3.3,36.47,6.44c6.051,1.57,12.08,3.15,18.23,4.32 c6.061,1.15,12.19,1.62,18.28,2.48c13.45,1.9,23.03,6.43,31.39,17.64" clip-rule="evenodd"/><path fill="none" fill-rule="evenodd" stroke="#000" stroke-dasharray="1.5 1.5" stroke-linejoin="round" stroke-width=".75" d="M101.4,104.35c24.88,7.02,49.31-0.41,70.05-13.17c10.42-6.41,20.24-13.71,31.26-19.24c11.15-5.59,22.661-8.97,34.8-11.39 c26.63-5.3,46.319-5.08,73.17-4.28c6.08,0.18,12.16,0.34,18.25,0.32c6.16-0.03,12.279-0.42,18.45,0.54 c13.66,2.12,21.59,10.51,27.76,21.82" clip-rule="evenodd"/><path fill="none" fill-rule="evenodd" stroke="#000" stroke-dasharray="1.5 1.5" stroke-linejoin="round" stroke-width=".75" d="M106.93,96.32c22.47,2.27,47.99-2.16,67.58-14.3c9.97-6.17,18.99-13.67,29.06-19.71c10.26-6.15,20.97-10.21,32.49-13.16 c21.05-5.39,48.18-7.28,69.57-9.12c4.079-0.35,30.93-2.78,35.029-2.98c12.381-0.6,22.811,0.54,33.44,8.13" clip-rule="evenodd"/><path fill="none" fill-rule="evenodd" stroke="#000" stroke-dasharray="1.5 1.5" stroke-linejoin="round" stroke-width=".75" d="M349.669,26.28c4.921,14.84,5.201,56.9,5.701,71.71c0.26,7.81,0.5,15.62,1.199,23.41c0.37,4.2,0.76,8.32,2.12,12.38 c1.761,5.27,4.02,5.16,7,9.22c1.761,2.41,2.851,5.01,3.761,7.81c1.619,5,2.43,10.09,3.109,15.27 c2.28,17.31,4.01,54.529,4.609,71.92c0.721,21.18,1.451,50.64-4.159,71.76" clip-rule="evenodd"/><path fill="none" fill-rule="evenodd" stroke="#000" stroke-dasharray="1.5 1.5" stroke-linejoin="round" stroke-width=".75" d="M327.951,28.61c2.459,11.59,2.989,23.22,3.479,34.97c0.489,11.72,0.81,23.46,1.22,35.19c0.27,7.57,0.53,15.13,1.101,22.69 c0.31,4.15,0.7,8.27,1.489,12.37c0.86,4.49,2.381,8.8,3.37,13.25c1.57,7.03,2.58,14.12,3.46,21.26 c2.85,23.351,4.17,46.74,5.08,70.22c0.801,20.61,1.54,49.65-1.51,70.29" clip-rule="evenodd"/><path fill="none" fill-rule="evenodd" stroke="#000" stroke-dasharray="1.5 1.5" stroke-linejoin="round" stroke-width=".75" d="M306.69,30.88c1.77,17.85,2.72,51.36,3.42,69.25c1.3,33.35,2.13,35.96,4.38,69.25c2.34,34.729,5.66,103.69,4.511,138.59" clip-rule="evenodd"/><path fill="none" fill-rule="evenodd" stroke="#000" stroke-dasharray="1.5 1.5" stroke-linejoin="round" stroke-width=".75" d="M285.88,33.11c-0.221,22.85,0.75,45.66,1.35,68.49c0.61,22.84,0.91,45.69,1.2,68.54c0.42,33.03,2.06,103.99,4.62,136.97" clip-rule="evenodd"/><path fill="none" fill-rule="evenodd" stroke="#000" stroke-dasharray="1.5 1.5" stroke-linejoin="round" stroke-width=".75" d="M265.58,36.16c-1.72,11.22-1.609,22.4-1.609,33.67c0,11.23,0.15,22.45,0.23,33.68c0.069,11.23,0.12,22.47-0.021,33.7 c-0.15,11.24-0.66,22.47-0.92,33.7c-0.32,14.34-0.101,53.1,0.069,67.44c0.261,20.45,0.73,46.91,4.461,67.23" clip-rule="evenodd"/><path fill="none" fill-rule="evenodd" stroke="#000" stroke-dasharray="1.5 1.5" stroke-linejoin="round" stroke-width=".75" d="M245.451,43.99c-0.391,0.19-0.61,0.83-0.811,1.36c-0.77,2.02-0.971,4.08-1.221,6.18c-0.93,7.78-1.09,15.56-1.289,23.37 c-0.28,10.75-0.38,21.49-0.57,32.24c-0.189,10.75-0.41,21.49-0.92,32.23c-0.5,10.73-1.439,21.43-1.75,32.17 c-0.311,10.75,0.01,21.48-0.02,32.22c-0.021,10.75-0.311,21.49-0.451,32.24c-0.26,20.12-0.449,44.109,5.121,64.04" clip-rule="evenodd"/><path fill="none" fill-rule="evenodd" stroke="#000" stroke-dasharray="1.5 1.5" stroke-linejoin="round" stroke-width=".75" d="M189,72.09c-0.44,0.2-0.84,0.62-1.22,1.22c-1.99,3.07-3.12,10.45-3.83,13.75c-1.89,8.87-3.73,17.75-5.7,26.6 c-3.95,17.75-7.26,35.44-8.43,53.66c-0.58,9.07-0.42,18.121-0.21,27.19c0.21,9.07,0.1,18.13-0.01,27.2 c-0.22,18.53,0.36,35.69,9.01,53.11" clip-rule="evenodd"/><path fill="none" fill-rule="evenodd" stroke="#000" stroke-dasharray="1.5 1.5" stroke-linejoin="round" stroke-width=".75" d="M174.38,81.47c-1.32,0.71-2.35,2.35-3.27,4.29c-2.27,4.81-3.47,9.9-4.97,14.94c-2.51,8.38-5.09,16.73-7.88,25.02 c-2.8,8.31-5.3,16.65-7.1,25.24c-1.8,8.59-3.05,17.2-3.69,25.96c-0.63,8.73-0.67,17.47-0.89,26.21 c-0.21,8.74-0.75,17.479-0.95,26.22c-0.41,18.101,0.65,34.271,10.38,50.69" clip-rule="evenodd"/><path fill="none" fill-rule="evenodd" stroke="#000" stroke-dasharray="1.5 1.5" stroke-linejoin="round" stroke-width=".75" d="M162.72,84.3c-3.55,1.66-5.73,6.11-7.14,9.23c-2.16,4.8-3.79,9.78-5.53,14.73c-3.94,11.19-5.4,14.83-10.8,25.41 c-9.13,17.9-13.26,32.79-15.77,52.63c-1.24,9.83-4.44,45.16-4.84,55.07c-0.76,18.67,0.49,36.5,12.3,52.739" clip-rule="evenodd"/><path fill="none" fill-rule="evenodd" stroke="#000" stroke-dasharray="1.5 1.5" stroke-linejoin="round" stroke-width=".75" d="M146.2,85.89c-5.2,7.4-9.08,19-12.37,27.12c-5.24,12.94-6.88,14.58-15.66,25.23c-12.95,15.7-18.52,35.82-22.03,54.87 c-3.04,16.5-6.17,42.55-6.64,59.36c-0.56,19.81,1.18,39.87,15.57,56.16" clip-rule="evenodd"/><path fill="none" fill-rule="evenodd" stroke="#000" stroke-dasharray="1.5 1.5" stroke-linejoin="round" stroke-width=".75" d="M129.08,86.9c-3.25,7.47-9.44,21.6-13.47,28.72c-2.6,4.58-5.43,8.6-9.78,11.81c-4.37,3.23-9.28,5.6-13.5,9.08 c-16.07,13.21-22.88,38.16-26.25,56.47c-3.51,19.08-5.46,43.8-4.77,63.2c0.73,20.76,4.08,42.41,20.29,58.46" clip-rule="evenodd"/></g></g><g id="Layer_1"><g><polygon fill="#FA639E" fill-rule="evenodd" points="228.701 67.9 226.14 62.7 222.99 61.57 225.61 66.78" clip-rule="evenodd"/><polygon fill="#FA639E" fill-rule="evenodd" points="226.14 62.7 232.3 51.46 229.14 50.37 222.99 61.57" clip-rule="evenodd"/><polygon fill="#C43D73" fill-rule="evenodd" points="228.701 67.9 234.701 56.91 232.3 51.46 226.14 62.7" clip-rule="evenodd"/></g><g><polygon fill="none" fill-rule="evenodd" stroke="#000" stroke-linecap="round" stroke-linejoin="round" stroke-width="1.5" points="228.701 67.9 225.61 66.78 222.99 61.57 229.14 50.37 232.3 51.46 234.701 56.91" clip-rule="evenodd"/></g><g><polygon fill="#C40082" fill-rule="evenodd" points="221.75 64.71 230.4 58.66 229.05 56.69 220.36 62.78" clip-rule="evenodd"/><polygon fill="#F500A3" fill-rule="evenodd" points="230.4 58.66 226.05 49.34 224.73 47.41 229.05 56.69" clip-rule="evenodd"/><polygon fill="#F500A3" fill-rule="evenodd" points="216.41 53.32 220.36 62.78 229.05 56.69 224.73 47.41" clip-rule="evenodd"/></g><g><polygon fill="#08408A" fill-rule="evenodd" points="338.73 237.2 355.38 259.271 378.74 279.029 358.34 252.021" clip-rule="evenodd"/><polygon fill="#084799" fill-rule="evenodd" points="354.47 225.93 338.73 237.2 358.34 252.021 377.669 238.31" clip-rule="evenodd"/><polygon fill="#003880" fill-rule="evenodd" points="358.34 252.021 378.74 279.029 398.209 265.409 377.669 238.31" clip-rule="evenodd"/></g><g><polygon fill="#4AD49C" fill-rule="evenodd" points="366.74 293.31 373.201 304.85 406.32 348.29 401.24 338.229" clip-rule="evenodd"/><polygon fill="#4AD49C" fill-rule="evenodd" points="396.121 274.35 366.74 293.31 401.24 338.229 434.041 317.58" clip-rule="evenodd"/><polygon fill="#30A173" fill-rule="evenodd" points="401.24 338.229 406.32 348.29 437.22 328.93 434.041 317.58" clip-rule="evenodd"/></g><g><polygon fill="none" fill-rule="evenodd" stroke="#000" stroke-linecap="round" stroke-linejoin="round" stroke-width="1.5" points="406.32 348.29 373.201 304.85 366.74 293.31 396.121 274.35 434.041 317.58 437.22 328.93" clip-rule="evenodd"/></g><g><polygon fill="#0F8A9E" fill-rule="evenodd" points="338.43 281.05 341.1 293.72 359.55 345.68 357.64 334.55" clip-rule="evenodd"/><polygon fill="#1C99B0" fill-rule="evenodd" points="364.31 274.521 338.43 281.05 357.64 334.55 386.61 327.9" clip-rule="evenodd"/><polygon fill="#12788A" fill-rule="evenodd" points="357.64 334.55 359.55 345.68 386.98 339.5 386.61 327.9" clip-rule="evenodd"/></g><g><polygon fill="#036E4C" fill-rule="evenodd" points="339.041 301.93 333.98 294.88 335.64 297.279 340.66 304.3" clip-rule="evenodd"/><polygon fill="#036E4C" fill-rule="evenodd" points="333.98 294.88 307.52 312.08 309.02 314.57 335.64 297.279" clip-rule="evenodd"/><polygon fill="#004C36" fill-rule="evenodd" points="309.02 314.57 314.89 320.97 340.66 304.3 335.64 297.279" clip-rule="evenodd"/></g><g><polygon fill="none" fill-rule="evenodd" stroke="#000" stroke-linecap="round" stroke-linejoin="round" stroke-width="1.5" points="314.89 320.97 309.02 314.57 307.52 312.08 333.98 294.88 339.041 301.93 340.66 304.3" clip-rule="evenodd"/></g><g><polygon fill="#1FABAB" fill-rule="evenodd" points="315.77 266.189 318.09 279.56 324.53 309.34 322.13 295.35" clip-rule="evenodd"/><polygon fill="#1FABAB" fill-rule="evenodd" points="325.1 264.88 315.77 266.189 322.13 295.35 332.4 294.05" clip-rule="evenodd"/><polygon fill="#0D8080" fill-rule="evenodd" points="322.13 295.35 324.53 309.34 334.59 308.13 332.4 294.05" clip-rule="evenodd"/></g><g><polygon fill="#3DC966" fill-rule="evenodd" points="266.86 286.29 261.9 281.62 269.39 307.19 274.44 311.54" clip-rule="evenodd"/><polygon fill="#52E57D" fill-rule="evenodd" points="261.9 281.62 232.74 294.84 238.55 320.57 269.39 307.19" clip-rule="evenodd"/><polygon fill="#36B059" fill-rule="evenodd" points="238.55 320.57 244.169 324.54 274.44 311.54 269.39 307.19" clip-rule="evenodd"/></g><g><polygon fill="none" fill-rule="evenodd" stroke="#000" stroke-linecap="round" stroke-linejoin="round" stroke-width="1.5" points="244.169 324.54 238.55 320.57 232.74 294.84 261.9 281.62 266.86 286.29 274.44 311.54" clip-rule="evenodd"/></g><g><polygon fill="#3B5CB0" fill-rule="evenodd" points="294.18 287.13 287.709 275.71 304.88 320.15 311.121 330.479" clip-rule="evenodd"/><polygon fill="#6687DE" fill-rule="evenodd" points="287.709 275.71 265.93 284.58 280.84 329.51 304.88 320.15" clip-rule="evenodd"/><polygon fill="#385294" fill-rule="evenodd" points="280.84 329.51 288.18 339.31 311.121 330.479 304.88 320.15" clip-rule="evenodd"/></g><g><polygon fill="#088F54" fill-rule="evenodd" points="234.701 280.521 229.98 272.08 217.91 301.19 223.24 309.07" clip-rule="evenodd"/><polygon fill="#0DA161" fill-rule="evenodd" points="229.98 272.08 218.8 269.37 206.41 297.89 217.91 301.19" clip-rule="evenodd"/><polygon fill="#05663B" fill-rule="evenodd" points="206.41 297.89 212.02 305.76 223.24 309.07 217.91 301.19" clip-rule="evenodd"/></g><g><polygon fill="#24EB6E" fill-rule="evenodd" points="132.57 298.01 121.21 288.34 123.77 290.8 135.12 300.45" clip-rule="evenodd"/><polygon fill="#24EB6E" fill-rule="evenodd" points="121.21 288.34 115.96 294.12 118.5 296.64 123.77 290.8" clip-rule="evenodd"/><polygon fill="#17A84F" fill-rule="evenodd" points="118.5 296.64 130.13 306.12 135.12 300.45 123.77 290.8" clip-rule="evenodd"/></g><g><polygon fill="none" fill-rule="evenodd" stroke="#000" stroke-linecap="round" stroke-linejoin="round" stroke-width="1.5" points="130.13 306.12 118.5 296.64 115.96 294.12 121.21 288.34 132.57 298.01 135.12 300.45" clip-rule="evenodd"/></g><g><polygon fill="#089E26" fill-rule="evenodd" points="104.02 268.271 105.18 271.97 113.64 293.62 112.43 289.74" clip-rule="evenodd"/><polygon fill="#089E26" fill-rule="evenodd" points="117.89 262.97 104.02 268.271 112.43 289.74 127.35 283.67" clip-rule="evenodd"/><polygon fill="#057319" fill-rule="evenodd" points="112.43 289.74 113.64 293.62 128.46 287.54 127.35 283.67" clip-rule="evenodd"/></g><g><polygon fill="#9CD400" fill-rule="evenodd" points="163.84 105.2 174.9 98.9 154.44 64.14 143.07 70.81" clip-rule="evenodd"/><polygon fill="#BDFF00" fill-rule="evenodd" points="174.9 98.9 175.12 97.89 154.98 63.62 154.44 64.14" clip-rule="evenodd"/><polygon fill="#BDFF00" fill-rule="evenodd" points="143.78 70.19 143.07 70.81 154.44 64.14 154.98 63.62" clip-rule="evenodd"/></g><g><polygon fill="#FF8000" fill-rule="evenodd" points="168.95 81.44 188.73 78.67 188.47 74.73 168.71 77.53" clip-rule="evenodd"/><polygon fill="#FF8000" fill-rule="evenodd" points="188.73 78.67 195.4 86.42 195.15 82.71 188.47 74.73" clip-rule="evenodd"/><polygon fill="#CC6900" fill-rule="evenodd" points="176.76 88.94 195.4 86.42 188.73 78.67 168.95 81.44" clip-rule="evenodd"/></g><g><polygon fill="none" fill-rule="evenodd" stroke="#000" stroke-linecap="round" stroke-linejoin="round" stroke-width="1.5" points="163.84 105.2 143.07 70.81 143.78 70.19 154.98 63.62 175.12 97.89 174.9 98.9" clip-rule="evenodd"/></g><g><polygon fill="#B0B800" fill-rule="evenodd" points="178.24 110.61 181.3 104.17 168.86 99.65 165.81 106.27" clip-rule="evenodd"/><polygon fill="#E5F000" fill-rule="evenodd" points="181.3 104.17 171.88 95.35 159.75 90.81 168.86 99.65" clip-rule="evenodd"/><polygon fill="#CFD900" fill-rule="evenodd" points="156.87 97.2 165.81 106.27 168.86 99.65 159.75 90.81" clip-rule="evenodd"/></g><g><polygon fill="#8C3B52" fill-rule="evenodd" points="210.78 89.34 221.99 74.1 184.19 48.95 172.97 65.69" clip-rule="evenodd"/><polygon fill="#B8546E" fill-rule="evenodd" points="221.99 74.1 219.709 70.33 182.51 45.45 184.19 48.95" clip-rule="evenodd"/><polygon fill="#B8546E" fill-rule="evenodd" points="171.55 61.92 172.97 65.69 184.19 48.95 182.51 45.45" clip-rule="evenodd"/></g><g><polygon fill="none" fill-rule="evenodd" stroke="#000" stroke-linecap="round" stroke-linejoin="round" stroke-width="1.5" points="210.78 89.34 172.97 65.69 171.55 61.92 182.51 45.45 219.709 70.33 221.99 74.1" clip-rule="evenodd"/></g><g><polygon fill="none" fill-rule="evenodd" stroke="#000" stroke-linecap="round" stroke-linejoin="round" stroke-width="1.5" points="221.75 64.71 220.36 62.78 216.41 53.32 224.73 47.41 226.05 49.34 230.4 58.66" clip-rule="evenodd"/></g><g><polygon fill="#990A3D" fill-rule="evenodd" points="222.93 96.61 233.11 92.01 225.209 79.81 214.61 84.74" clip-rule="evenodd"/><polygon fill="#BF1752" fill-rule="evenodd" points="233.11 92.01 227.15 71.44 219.24 58.7 225.209 79.81" clip-rule="evenodd"/><polygon fill="#BF1752" fill-rule="evenodd" points="209.04 63.62 214.61 84.74 225.209 79.81 219.24 58.7" clip-rule="evenodd"/></g><g><polygon fill="#6987F5" fill-rule="evenodd" points="289.459 266.58 287.121 262.26 287.57 263.479 289.91 267.82" clip-rule="evenodd"/><polygon fill="#6987F5" fill-rule="evenodd" points="287.121 262.26 281.68 264.7 282.1 265.93 287.57 263.479" clip-rule="evenodd"/><polygon fill="#4C69D4" fill-rule="evenodd" points="282.1 265.93 284.47 270.24 289.91 267.82 287.57 263.479" clip-rule="evenodd"/></g><g><polygon fill="#4C7508" fill-rule="evenodd" points="109.13 96.36 116.29 93.69 113.04 88.03 105.83 90.75" clip-rule="evenodd"/><polygon fill="#639614" fill-rule="evenodd" points="116.29 93.69 118.79 85.32 115.7 79.8 113.04 88.03" clip-rule="evenodd"/><polygon fill="#73AB1C" fill-rule="evenodd" points="108.75 82.44 105.83 90.75 113.04 88.03 115.7 79.8" clip-rule="evenodd"/></g><g><polygon fill="#8AD600" fill-rule="evenodd" points="141.79 96.44 144.55 98.72 126.1 79.56 123.7 77.67" clip-rule="evenodd"/><polygon fill="#73B000" fill-rule="evenodd" points="144.55 98.72 148.01 95.29 129.71 76.01 126.1 79.56" clip-rule="evenodd"/><polygon fill="#8AD600" fill-rule="evenodd" points="123.7 77.67 126.1 79.56 129.71 76.01 127.22 74.21" clip-rule="evenodd"/></g><g><polygon fill="#BF1212" fill-rule="evenodd" points="277.34 60.43 282.23 64.58 262.05 19.22 257.371 16.11" clip-rule="evenodd"/><polygon fill="#9C0303" fill-rule="evenodd" points="282.23 64.58 305.169 50.28 286.75 3.4 262.05 19.22" clip-rule="evenodd"/><polygon fill="#D11414" fill-rule="evenodd" points="257.371 16.11 262.05 19.22 286.75 3.4 281.291 .75" clip-rule="evenodd"/></g><g><polygon fill="#AD450A" fill-rule="evenodd" points="308.53 35.54 313.1 37.04 309.01 28.85 304.44 27.48" clip-rule="evenodd"/><polygon fill="#8C3808" fill-rule="evenodd" points="313.1 37.04 317.4 33.39 313.371 25.14 309.01 28.85" clip-rule="evenodd"/><polygon fill="#B84C12" fill-rule="evenodd" points="304.44 27.48 309.01 28.85 313.371 25.14 308.72 23.83" clip-rule="evenodd"/></g><g><polygon fill="#DB7305" fill-rule="evenodd" points="332.14 36.37 333.34 37.33 330.9 26.7 329.701 25.79" clip-rule="evenodd"/><polygon fill="#BD6608" fill-rule="evenodd" points="333.34 37.33 352.1 28.64 349.99 17.78 330.9 26.7" clip-rule="evenodd"/><polygon fill="#F78A17" fill-rule="evenodd" points="329.701 25.79 330.9 26.7 349.99 17.78 348.65 16.93" clip-rule="evenodd"/></g><g><polygon fill="#C77014" fill-rule="evenodd" points="365.85 30.66 380.81 34.74 375.25 19.15 360.16 15.72" clip-rule="evenodd"/><polygon fill="#B05C05" fill-rule="evenodd" points="380.81 34.74 383.85 32.29 378.371 16.62 375.25 19.15" clip-rule="evenodd"/><polygon fill="#DE7D19" fill-rule="evenodd" points="360.16 15.72 375.25 19.15 378.371 16.62 363.121 13.31" clip-rule="evenodd"/></g><g><polygon fill="#006603" fill-rule="evenodd" points="108.99 117.19 116.53 113.96 100.52 82.07 92.58 85.38" clip-rule="evenodd"/><polygon fill="#038008" fill-rule="evenodd" points="116.53 113.96 116.29 113.07 100.38 81.37 100.52 82.07" clip-rule="evenodd"/><polygon fill="#038008" fill-rule="evenodd" points="92.5 84.65 92.58 85.38 100.52 82.07 100.38 81.37" clip-rule="evenodd"/></g><g><polygon fill="#75B817" fill-rule="evenodd" points="133.55 113.37 141.78 108.4 125.78 88.1 117.21 93.39" clip-rule="evenodd"/><polygon fill="#75B817" fill-rule="evenodd" points="141.78 108.4 141.52 107.06 125.59 86.8 125.78 88.1" clip-rule="evenodd"/><polygon fill="#75B817" fill-rule="evenodd" points="117.07 92.06 117.21 93.39 125.78 88.1 125.59 86.8" clip-rule="evenodd"/></g><g><polygon fill="#69AB00" fill-rule="evenodd" points="144.58 107.97 162.54 89.55 161.9 89.01 143.93 107.46" clip-rule="evenodd"/><polygon fill="#8ACF19" fill-rule="evenodd" points="162.54 89.55 160.28 83.42 159.66 82.88 161.9 89.01" clip-rule="evenodd"/><polygon fill="#8ACF19" fill-rule="evenodd" points="142.24 100.92 143.93 107.46 161.9 89.01 159.66 82.88" clip-rule="evenodd"/></g><g><polygon fill="none" fill-rule="evenodd" stroke="#000" stroke-linecap="round" stroke-linejoin="round" stroke-width="1.5" points="176.76 88.94 168.95 81.44 168.71 77.53 188.47 74.73 195.15 82.71 195.4 86.42" clip-rule="evenodd"/></g><g><polygon fill="#B2B50D" fill-rule="evenodd" points="166.98 93.47 180.76 82.23 179.59 81.05 165.81 92.34" clip-rule="evenodd"/><polygon fill="#DEE012" fill-rule="evenodd" points="180.76 82.23 182.07 76.49 180.93 75.33 179.59 81.05" clip-rule="evenodd"/><polygon fill="#DEE012" fill-rule="evenodd" points="167.43 86.49 165.81 92.34 179.59 81.05 180.93 75.33" clip-rule="evenodd"/></g><g><polygon fill="#960000" fill-rule="evenodd" points="247.97 73.45 266.169 68.57 256.621 29.25 236.919 34.97" clip-rule="evenodd"/><polygon fill="#C70000" fill-rule="evenodd" points="266.169 68.57 265.31 63.61 255.83 24.5 256.621 29.25" clip-rule="evenodd"/><polygon fill="#C70000" fill-rule="evenodd" points="236.47 30.18 236.919 34.97 256.621 29.25 255.83 24.5" clip-rule="evenodd"/></g><g><polygon fill="none" fill-rule="evenodd" stroke="#000" stroke-linecap="round" stroke-linejoin="round" stroke-width="1.5" points="282.23 64.58 277.34 60.43 257.371 16.11 281.291 .75 286.75 3.4 305.169 50.28" clip-rule="evenodd"/></g><g><polygon fill="#DE2108" fill-rule="evenodd" points="272.65 61.9 282.701 71.77 271.69 42.84 261.371 33.44" clip-rule="evenodd"/><polygon fill="#B01C0A" fill-rule="evenodd" points="282.701 71.77 301.169 59.76 291.49 29.82 271.69 42.84" clip-rule="evenodd"/><polygon fill="#FF240A" fill-rule="evenodd" points="261.371 33.44 271.69 42.84 291.49 29.82 280.33 20.9" clip-rule="evenodd"/></g><g><polygon fill="none" fill-rule="evenodd" stroke="#000" stroke-linecap="round" stroke-linejoin="round" stroke-width="1.5" points="313.1 37.04 308.53 35.54 304.44 27.48 308.72 23.83 313.371 25.14 317.4 33.39" clip-rule="evenodd"/></g><g><polygon fill="#B22B0F" fill-rule="evenodd" points="303.3 56.33 306.459 58.89 303.19 46.54 299.94 43.99" clip-rule="evenodd"/><polygon fill="#8A240D" fill-rule="evenodd" points="306.459 58.89 324.32 45.76 321.68 32.9 303.19 46.54" clip-rule="evenodd"/><polygon fill="#BD3012" fill-rule="evenodd" points="299.94 43.99 303.19 46.54 321.68 32.9 318.27 30.47" clip-rule="evenodd"/></g><g><polygon fill="#B24508" fill-rule="evenodd" points="328.919 49.25 331.47 52.67 331.76 48.75 329.18 45.31" clip-rule="evenodd"/><polygon fill="#8F3300" fill-rule="evenodd" points="331.47 52.67 358.48 41.12 359.1 37.06 331.76 48.75" clip-rule="evenodd"/><polygon fill="#BD4C0D" fill-rule="evenodd" points="329.18 45.31 331.76 48.75 359.1 37.06 356.33 33.69" clip-rule="evenodd"/></g><g><polygon fill="#CC700F" fill-rule="evenodd" points="361.03 59.32 366.01 70.17 385.57 58.37 380.3 46.96" clip-rule="evenodd"/><polygon fill="#964C03" fill-rule="evenodd" points="366.01 70.17 369.13 69.26 388.69 57.5 385.57 58.37" clip-rule="evenodd"/><polygon fill="#B86108" fill-rule="evenodd" points="380.3 46.96 385.57 58.37 388.69 57.5 383.451 46.19" clip-rule="evenodd"/></g><g><polygon fill="#177503" fill-rule="evenodd" points="94.26 119.59 101.09 118.8 98.09 102.63 91.13 103.38" clip-rule="evenodd"/><polygon fill="#2B9C12" fill-rule="evenodd" points="101.09 118.8 101.41 116.35 98.49 100.54 98.09 102.63" clip-rule="evenodd"/><polygon fill="#2B9C12" fill-rule="evenodd" points="91.7 101.26 91.13 103.38 98.09 102.63 98.49 100.54" clip-rule="evenodd"/></g><g><polygon fill="#73B836" fill-rule="evenodd" points="115.9 123.24 127.34 120.99 126.71 119.67 115.24 121.94" clip-rule="evenodd"/><polygon fill="#73B836" fill-rule="evenodd" points="127.34 120.99 130.54 109.12 129.94 107.82 126.71 119.67" clip-rule="evenodd"/><polygon fill="#73B836" fill-rule="evenodd" points="118.89 110.05 115.24 121.94 126.71 119.67 129.94 107.82" clip-rule="evenodd"/></g><g><polygon fill="none" fill-rule="evenodd" stroke="#000" stroke-linecap="round" stroke-linejoin="round" stroke-width="1.5" points="115.9 123.24 115.24 121.94 118.89 110.05 129.94 107.82 130.54 109.12 127.34 120.99" clip-rule="evenodd"/></g><g><polygon fill="none" fill-rule="evenodd" stroke="#000" stroke-linecap="round" stroke-linejoin="round" stroke-width="1.5" points="247.97 73.45 236.919 34.97 236.47 30.18 255.83 24.5 265.31 63.61 266.169 68.57" clip-rule="evenodd"/></g><g><polygon fill="#BD0F0F" fill-rule="evenodd" points="240.59 83.04 264.84 74.12 262.91 67.12 238.01 76.37" clip-rule="evenodd"/><polygon fill="#FF2929" fill-rule="evenodd" points="236.59 71.79 238.01 76.37 262.91 67.12 261.33 62.55" clip-rule="evenodd"/></g><g><polygon fill="none" fill-rule="evenodd" stroke="#000" stroke-linecap="round" stroke-linejoin="round" stroke-width="1.5" points="282.701 71.77 272.65 61.9 261.371 33.44 280.33 20.9 291.49 29.82 301.169 59.76" clip-rule="evenodd"/></g><g><polygon fill="#F54F4F" fill-rule="evenodd" points="264.959 72.41 271.51 90.6 272.3 80.47 265.44 61.63" clip-rule="evenodd"/><polygon fill="#AB3636" fill-rule="evenodd" points="271.51 90.6 297.951 83.14 299.99 72.66 272.3 80.47" clip-rule="evenodd"/><polygon fill="#F54F4F" fill-rule="evenodd" points="265.44 61.63 272.3 80.47 299.99 72.66 292.6 53.97" clip-rule="evenodd"/></g><g><polygon fill="none" fill-rule="evenodd" stroke="#000" stroke-linecap="round" stroke-linejoin="round" stroke-width="1.5" points="271.51 90.6 264.959 72.41 265.44 61.63 292.6 53.97 299.99 72.66 297.951 83.14" clip-rule="evenodd"/></g><g><polygon fill="#BD4F70" fill-rule="evenodd" points="298.169 71.07 310.85 95.93 313.15 92.63 300.169 67.28" clip-rule="evenodd"/><polygon fill="#8F4057" fill-rule="evenodd" points="310.85 95.93 327.25 89.03 329.89 85.61 313.15 92.63" clip-rule="evenodd"/><polygon fill="#D46182" fill-rule="evenodd" points="300.169 67.28 313.15 92.63 329.89 85.61 316.791 60.48" clip-rule="evenodd"/></g><g><polygon fill="#DB5929" fill-rule="evenodd" points="331.6 69.91 335.15 100.11 336.9 98.92 333.291 68.22" clip-rule="evenodd"/><polygon fill="#AD3B0F" fill-rule="evenodd" points="335.15 100.11 358.19 97.2 360.31 95.96 336.9 98.92" clip-rule="evenodd"/><polygon fill="#ED6B3D" fill-rule="evenodd" points="333.291 68.22 336.9 98.92 360.31 95.96 356.72 65.2" clip-rule="evenodd"/></g><g><polygon fill="#D42975" fill-rule="evenodd" points="363.669 108.71 367.88 112.74 381.51 98.62 377.11 94.52" clip-rule="evenodd"/><polygon fill="#A31F59" fill-rule="evenodd" points="367.88 112.74 375.6 109.79 388.9 96.17 381.51 98.62" clip-rule="evenodd"/><polygon fill="#E03380" fill-rule="evenodd" points="377.11 94.52 381.51 98.62 388.9 96.17 384.65 92.25" clip-rule="evenodd"/></g><g><polygon fill="#E35CDB" fill-rule="evenodd" points="244.61 113.92 247.85 117.7 242.09 103.83 238.64 99.85" clip-rule="evenodd"/><polygon fill="#CF47C7" fill-rule="evenodd" points="247.85 117.7 261.75 107.05 257.05 92.36 242.09 103.83" clip-rule="evenodd"/><polygon fill="#FF69F5" fill-rule="evenodd" points="238.64 99.85 242.09 103.83 257.05 92.36 253.51 88.44" clip-rule="evenodd"/></g><g><polygon fill="#D175E3" fill-rule="evenodd" points="275.97 119.32 278.53 122.11 280.951 96.91 278.1 93.94" clip-rule="evenodd"/><polygon fill="#C263D4" fill-rule="evenodd" points="278.53 122.11 286.85 116.7 290.15 91.05 280.951 96.91" clip-rule="evenodd"/><polygon fill="#EB87FF" fill-rule="evenodd" points="278.1 93.94 280.951 96.91 290.15 91.05 287.28 88.12" clip-rule="evenodd"/></g><g><polygon fill="#D491CC" fill-rule="evenodd" points="297.47 126.34 304.201 133.41 309.24 118.26 302.11 111.03" clip-rule="evenodd"/><polygon fill="#BD80B5" fill-rule="evenodd" points="304.201 133.41 327.84 121.55 333.9 106.22 309.24 118.26" clip-rule="evenodd"/><polygon fill="#E3A6DB" fill-rule="evenodd" points="302.11 111.03 309.24 118.26 333.9 106.22 326.64 99.33" clip-rule="evenodd"/></g><g><polygon fill="#E06BA6" fill-rule="evenodd" points="332.4 137.86 337.5 145.32 342.98 118.27 337.26 110.4" clip-rule="evenodd"/><polygon fill="#B25785" fill-rule="evenodd" points="337.5 145.32 357.16 137.14 364.75 109.3 342.98 118.27" clip-rule="evenodd"/><polygon fill="#FF87BF" fill-rule="evenodd" points="337.26 110.4 342.98 118.27 364.75 109.3 358.74 101.58" clip-rule="evenodd"/></g><g><polygon fill="#B21F82" fill-rule="evenodd" points="368.64 139.03 379.13 146.01 379.78 122.06 368.86 115.71" clip-rule="evenodd"/><polygon fill="#C73094" fill-rule="evenodd" points="379.13 146.01 391.56 141.6 392.69 117.6 379.78 122.06" clip-rule="evenodd"/><polygon fill="#C73094" fill-rule="evenodd" points="368.86 115.71 379.78 122.06 392.69 117.6 381.35 111.44" clip-rule="evenodd"/></g><g><polygon fill="#0F4200" fill-rule="evenodd" points="54.86 132.78 69.92 137.53 73.02 120.42 57.71 115.54" clip-rule="evenodd"/><polygon fill="#175203" fill-rule="evenodd" points="69.92 137.53 81.47 130.29 84.54 114.25 73.02 120.42" clip-rule="evenodd"/><polygon fill="#1C6605" fill-rule="evenodd" points="70.32 109.69 57.71 115.54 73.02 120.42 84.54 114.25" clip-rule="evenodd"/></g><g><polygon fill="none" fill-rule="evenodd" stroke="#000" stroke-linecap="round" stroke-linejoin="round" stroke-width="1.5" points="69.92 137.53 54.86 132.78 57.71 115.54 70.32 109.69 84.54 114.25 81.47 130.29" clip-rule="evenodd"/></g><g><polygon fill="#3BB200" fill-rule="evenodd" points="190.49 139.92 197.62 132.9 189.34 125.55 181.99 132.82" clip-rule="evenodd"/><polygon fill="#52EB03" fill-rule="evenodd" points="197.62 132.9 191.62 125.87 183.31 118.44 189.34 125.55" clip-rule="evenodd"/><polygon fill="#52EB03" fill-rule="evenodd" points="176.12 125.6 181.99 132.82 189.34 125.55 183.31 118.44" clip-rule="evenodd"/></g><g><polygon fill="none" fill-rule="evenodd" stroke="#000" stroke-linecap="round" stroke-linejoin="round" stroke-width="1.5" points="247.85 117.7 244.61 113.92 238.64 99.85 253.51 88.44 257.05 92.36 261.75 107.05" clip-rule="evenodd"/></g><g><polygon fill="#4F52B8" fill-rule="evenodd" points="241.35 137.99 248.4 154.58 241.8 134.68 234.27 117.08" clip-rule="evenodd"/><polygon fill="#4A4CC4" fill-rule="evenodd" points="248.4 154.58 265.19 147.79 260.19 127.17 241.8 134.68" clip-rule="evenodd"/><polygon fill="#6E6EE3" fill-rule="evenodd" points="234.27 117.08 241.8 134.68 260.19 127.17 252.14 109.74" clip-rule="evenodd"/></g><g><polygon fill="#7D82D9" fill-rule="evenodd" points="273.201 131.64 287.73 142.76 287.38 141.79 272.81 130.66" clip-rule="evenodd"/><polygon fill="#6E75D4" fill-rule="evenodd" points="287.73 142.76 293.82 137.18 293.49 136.19 287.38 141.79" clip-rule="evenodd"/><polygon fill="#99A1FF" fill-rule="evenodd" points="272.81 130.66 287.38 141.79 293.49 136.19 278.74 125.24" clip-rule="evenodd"/></g><g><polygon fill="none" fill-rule="evenodd" stroke="#000" stroke-linecap="round" stroke-linejoin="round" stroke-width="1.5" points="304.201 133.41 297.47 126.34 302.11 111.03 326.64 99.33 333.9 106.22 327.84 121.55" clip-rule="evenodd"/></g><g><polygon fill="#B54CED" fill-rule="evenodd" points="306.169 153.11 306.53 156.25 314.34 119.14 313.871 116.17" clip-rule="evenodd"/><polygon fill="#8C2EBD" fill-rule="evenodd" points="306.53 156.25 319.85 157.31 328.72 120.2 314.34 119.14" clip-rule="evenodd"/><polygon fill="#B54CED" fill-rule="evenodd" points="313.871 116.17 314.34 119.14 328.72 120.2 328.09 117.21" clip-rule="evenodd"/></g><g><polygon fill="none" fill-rule="evenodd" stroke="#000" stroke-linecap="round" stroke-linejoin="round" stroke-width="1.5" points="319.85 157.31 306.53 156.25 306.169 153.11 313.871 116.17 328.09 117.21 328.72 120.2" clip-rule="evenodd"/></g><g><polygon fill="none" fill-rule="evenodd" stroke="#000" stroke-linecap="round" stroke-linejoin="round" stroke-width="1.5" points="337.5 145.32 332.4 137.86 337.26 110.4 358.74 101.58 364.75 109.3 357.16 137.14" clip-rule="evenodd"/></g><g><polygon fill="#9C73E0" fill-rule="evenodd" points="335.98 142.42 345.3 148.23 344.43 146.03 335.169 140.37" clip-rule="evenodd"/><polygon fill="#7552B5" fill-rule="evenodd" points="345.3 148.23 368.91 137.53 368.08 135.29 344.43 146.03" clip-rule="evenodd"/><polygon fill="#9C73E0" fill-rule="evenodd" points="335.169 140.37 344.43 146.03 368.08 135.29 357.03 130.38" clip-rule="evenodd"/></g><g><polygon fill="none" fill-rule="evenodd" stroke="#000" stroke-linecap="round" stroke-linejoin="round" stroke-width="1.5" points="379.13 146.01 368.64 139.03 368.86 115.71 381.35 111.44 392.69 117.6 391.56 141.6" clip-rule="evenodd"/></g><g><polygon fill="#D96EB5" fill-rule="evenodd" points="386.1 159.37 394.88 161.56 373.64 121.2 365.9 121.17" clip-rule="evenodd"/><polygon fill="#C763A6" fill-rule="evenodd" points="394.88 161.56 409.291 153.61 388.169 112.98 373.64 121.2" clip-rule="evenodd"/><polygon fill="#E885C7" fill-rule="evenodd" points="365.9 121.17 373.64 121.2 388.169 112.98 379.61 113.39" clip-rule="evenodd"/></g><g><polygon fill="#26D10F" fill-rule="evenodd" points="40.41 151.87 48.09 155.17 55.13 129.5 47.03 125.88" clip-rule="evenodd"/><polygon fill="#38E021" fill-rule="evenodd" points="48.09 155.17 54.81 146.06 62.01 120.7 55.13 129.5" clip-rule="evenodd"/><polygon fill="#40FA29" fill-rule="evenodd" points="54.2 117.16 47.03 125.88 55.13 129.5 62.01 120.7" clip-rule="evenodd"/></g><g><polygon fill="#19B517" fill-rule="evenodd" points="177.81 162.79 193.74 156.19 192.84 155.18 176.82 161.83" clip-rule="evenodd"/><polygon fill="#19B517" fill-rule="evenodd" points="193.74 156.19 190.96 146.24 190.05 145.18 192.84 155.18" clip-rule="evenodd"/><polygon fill="#1FE019" fill-rule="evenodd" points="174.27 151.82 176.82 161.83 192.84 155.18 190.05 145.18" clip-rule="evenodd"/></g><g><polygon fill="none" fill-rule="evenodd" stroke="#000" stroke-linecap="round" stroke-linejoin="round" stroke-width="1.5" points="248.4 154.58 241.35 137.99 234.27 117.08 252.14 109.74 260.19 127.17 265.19 147.79" clip-rule="evenodd"/></g><g><polygon fill="#19C930" fill-rule="evenodd" points="245.98 159.01 260.89 176.56 248.791 157.64 233.38 139.72" clip-rule="evenodd"/><polygon fill="#1FDE36" fill-rule="evenodd" points="260.89 176.56 264.65 173.68 252.84 154.53 248.791 157.64" clip-rule="evenodd"/><polygon fill="#33FF4C" fill-rule="evenodd" points="233.38 139.72 248.791 157.64 252.84 154.53 237.23 136.75" clip-rule="evenodd"/></g><g><polygon fill="#4C63D9" fill-rule="evenodd" points="281.09 161.44 287.65 169.82 279.459 154.94 272.791 146.53" clip-rule="evenodd"/><polygon fill="#4A61CC" fill-rule="evenodd" points="287.65 169.82 293.59 165.85 285.68 150.75 279.459 154.94" clip-rule="evenodd"/><polygon fill="#617AFF" fill-rule="evenodd" points="272.791 146.53 279.459 154.94 285.68 150.75 278.84 142.44" clip-rule="evenodd"/></g><g><polygon fill="#8024ED" fill-rule="evenodd" points="318.871 167.49 328.53 178.43 309.23 146.49 299.51 135.9" clip-rule="evenodd"/><polygon fill="#5E12B8" fill-rule="evenodd" points="328.53 178.43 336.93 172.56 318.33 139.96 309.23 146.49" clip-rule="evenodd"/><polygon fill="#8024ED" fill-rule="evenodd" points="299.51 135.9 309.23 146.49 318.33 139.96 308.201 129.6" clip-rule="evenodd"/></g><polygon fill="#A8855E" fill-rule="evenodd" points="352.75 150 355.24 152.31 354.02 150.77 351.55 148.48" clip-rule="evenodd"/><polygon fill="#A8855E" fill-rule="evenodd" points="355.24 152.31 360.58 148.15 359.36 146.6 354.02 150.77" clip-rule="evenodd"/><polygon fill="#A8855E" fill-rule="evenodd" points="351.55 148.48 354.02 150.77 359.36 146.6 356.81 144.36" clip-rule="evenodd"/><g><polygon fill="none" fill-rule="evenodd" stroke="#000" stroke-linecap="round" stroke-linejoin="round" stroke-width="1.5" points="394.88 161.56 386.1 159.37 365.9 121.17 379.61 113.39 388.169 112.98 409.291 153.61" clip-rule="evenodd"/></g><g><polygon fill="#BA42D4" fill-rule="evenodd" points="384.701 145.07 397.18 150.8 394.459 143.11 382.11 137.92" clip-rule="evenodd"/><polygon fill="#9933AB" fill-rule="evenodd" points="397.18 150.8 411.44 144.64 408.78 136.89 394.459 143.11" clip-rule="evenodd"/><polygon fill="#CC52E5" fill-rule="evenodd" points="382.11 137.92 394.459 143.11 408.78 136.89 395.34 132.12" clip-rule="evenodd"/></g><g><polygon fill="none" fill-rule="evenodd" stroke="#000" stroke-linecap="round" stroke-linejoin="round" stroke-width="1.5" points="48.09 155.17 40.41 151.87 47.03 125.88 54.2 117.16 62.01 120.7 54.81 146.06" clip-rule="evenodd"/></g><g><polygon fill="#219C38" fill-rule="evenodd" points="24.81 183.04 47.55 183.479 47.26 180.42 24 179.92" clip-rule="evenodd"/><polygon fill="#249438" fill-rule="evenodd" points="47.55 183.479 48.77 153.77 48.52 150.14 47.26 180.42" clip-rule="evenodd"/><polygon fill="#40D45C" fill-rule="evenodd" points="25.88 149.03 24 179.92 47.26 180.42 48.52 150.14" clip-rule="evenodd"/></g><g><polygon fill="none" fill-rule="evenodd" stroke="#000" stroke-linecap="round" stroke-linejoin="round" stroke-width="1.5" points="47.55 183.479 24.81 183.04 24 179.92 25.88 149.03 48.52 150.14 48.77 153.77" clip-rule="evenodd"/></g><g><polygon fill="#ADD605" fill-rule="evenodd" points="74.12 180.18 85.39 201.2 77.67 182 66.08 160.6" clip-rule="evenodd"/><polygon fill="#A3CC00" fill-rule="evenodd" points="85.39 201.2 97.39 195.9 90.51 176.62 77.67 182" clip-rule="evenodd"/><polygon fill="#CCFF05" fill-rule="evenodd" points="66.08 160.6 77.67 182 90.51 176.62 78.48 155.71" clip-rule="evenodd"/></g><g><polygon fill="none" fill-rule="evenodd" stroke="#000" stroke-linecap="round" stroke-linejoin="round" stroke-width="1.5" points="287.65 169.82 281.09 161.44 272.791 146.53 278.84 142.44 285.68 150.75 293.59 165.85" clip-rule="evenodd"/></g><g><polygon fill="#3675B5" fill-rule="evenodd" points="279.06 189.95 288.56 189.12 288.209 187.779 278.66 188.62" clip-rule="evenodd"/><polygon fill="#4282C2" fill-rule="evenodd" points="288.56 189.12 287.93 168.89 287.59 167.5 288.209 187.779" clip-rule="evenodd"/><polygon fill="#6EB5FF" fill-rule="evenodd" points="278.36 168.44 278.66 188.62 288.209 187.779 287.59 167.5" clip-rule="evenodd"/></g><g><polygon fill="none" fill-rule="evenodd" stroke="#000" stroke-linecap="round" stroke-linejoin="round" stroke-width="1.5" points="328.53 178.43 318.871 167.49 299.51 135.9 308.201 129.6 318.33 139.96 336.93 172.56" clip-rule="evenodd"/></g><g><polygon fill="#3D4CA8" fill-rule="evenodd" points="319.5 191.88 334.63 182.54 324.03 164.79 307.94 174.96" clip-rule="evenodd"/><polygon fill="#5C69D1" fill-rule="evenodd" points="305.52 171.24 307.94 174.96 324.03 164.79 321.44 161.14" clip-rule="evenodd"/></g><g><polygon fill="none" fill-rule="evenodd" stroke="#000" stroke-linecap="round" stroke-linejoin="round" stroke-width="1.5" points="397.18 150.8 384.701 145.07 382.11 137.92 395.34 132.12 408.78 136.89 411.44 144.64" clip-rule="evenodd"/></g><g><polygon fill="#6E3BBD" fill-rule="evenodd" points="358.5 196.55 391.36 177.771 377.451 165.98 342.89 186.63" clip-rule="evenodd"/><polygon fill="#8045D9" fill-rule="evenodd" points="391.36 177.771 376.55 153.17 362.25 140.2 377.451 165.98" clip-rule="evenodd"/><polygon fill="#995CF5" fill-rule="evenodd" points="329.89 161.02 342.89 186.63 377.451 165.98 362.25 140.2" clip-rule="evenodd"/></g><g><polygon fill="#8A3DBA" fill-rule="evenodd" points="393.34 173.02 398.53 177.12 401.169 160.56 395.35 156.13" clip-rule="evenodd"/><polygon fill="#732E9E" fill-rule="evenodd" points="398.53 177.12 411.57 164.87 415.72 146.85 401.169 160.56" clip-rule="evenodd"/><polygon fill="#9C47CF" fill-rule="evenodd" points="395.35 156.13 401.169 160.56 415.72 146.85 409.77 142.54" clip-rule="evenodd"/></g><g><polygon fill="#0D6100" fill-rule="evenodd" points="38.7 230.979 63.36 219.859 41.47 219.22 12.78 232.09" clip-rule="evenodd"/><polygon fill="#0F8500" fill-rule="evenodd" points="63.36 219.859 52.7 194.779 29.32 190.25 41.47 219.22" clip-rule="evenodd"/><polygon fill="#19A308" fill-rule="evenodd" points=".75 202.84 12.78 232.09 41.47 219.22 29.32 190.25" clip-rule="evenodd"/></g><g><polygon fill="none" fill-rule="evenodd" stroke="#000" stroke-linecap="round" stroke-linejoin="round" stroke-width="1.5" points="12.78 232.09 .75 202.84 29.32 190.25 52.7 194.779 63.36 219.859 38.7 230.979" clip-rule="evenodd"/></g><g><polygon fill="none" fill-rule="evenodd" stroke="#000" stroke-linecap="round" stroke-linejoin="round" stroke-width="1.5" points="85.39 201.2 74.12 180.18 66.08 160.6 78.48 155.71 90.51 176.62 97.39 195.9" clip-rule="evenodd"/></g><g><polygon fill="#66A308" fill-rule="evenodd" points="60.82 233.029 94.75 228.25 92.31 223.109 55.94 228.109" clip-rule="evenodd"/><polygon fill="#80C70D" fill-rule="evenodd" points="94.75 228.25 92.19 202.729 89.63 195.97 92.31 223.109" clip-rule="evenodd"/><polygon fill="#9CED17" fill-rule="evenodd" points="53.89 200.25 55.94 228.109 92.31 223.109 89.63 195.97" clip-rule="evenodd"/></g><g><polygon fill="#78BD30" fill-rule="evenodd" points="112 219.93 119.13 219.76 119.49 215.65 111.92 215.82" clip-rule="evenodd"/><polygon fill="#A1F742" fill-rule="evenodd" points="111.97 201.96 111.92 215.82 119.49 215.65 119.47 201.859" clip-rule="evenodd"/></g><g><polygon fill="#94B000" fill-rule="evenodd" points="180.52 210.09 190.92 202.75 190.74 202.75 180.31 210.109" clip-rule="evenodd"/><polygon fill="#C7F000" fill-rule="evenodd" points="190.92 202.75 186.38 195.93 186.18 195.92 190.74 202.75" clip-rule="evenodd"/><polygon fill="#C7F000" fill-rule="evenodd" points="175.81 203.279 180.31 210.109 190.74 202.75 186.18 195.92" clip-rule="evenodd"/></g><g><polygon fill="#30B245" fill-rule="evenodd" points="217.11 214.67 221.871 212.72 221.121 212.659 216.32 214.63" clip-rule="evenodd"/><polygon fill="#3BD452" fill-rule="evenodd" points="221.871 212.72 214.6 192.94 213.8 192.76 221.121 212.659" clip-rule="evenodd"/><polygon fill="#54FF70" fill-rule="evenodd" points="209.08 194.76 216.32 214.63 221.121 212.659 213.8 192.76" clip-rule="evenodd"/></g><g><polygon fill="#33A3BD" fill-rule="evenodd" points="284.22 216.63 298.209 211.82 284.8 203.72 269.621 209.13" clip-rule="evenodd"/><polygon fill="#3BBDDB" fill-rule="evenodd" points="298.209 211.82 296.75 207.01 283.26 198.47 284.8 203.72" clip-rule="evenodd"/><polygon fill="#4FD9F7" fill-rule="evenodd" points="268.19 203.939 269.621 209.13 284.8 203.72 283.26 198.47" clip-rule="evenodd"/></g><g><polygon fill="#595ECC" fill-rule="evenodd" points="316.25 218.189 333.33 213.689 332.99 212.06 315.64 216.659" clip-rule="evenodd"/><polygon fill="#787DFA" fill-rule="evenodd" points="311.64 203.109 315.64 216.659 332.99 212.06 328.72 198.44" clip-rule="evenodd"/></g><g><polygon fill="none" fill-rule="evenodd" stroke="#000" stroke-linecap="round" stroke-linejoin="round" stroke-width="1.5" points="358.5 196.55 342.89 186.63 329.89 161.02 362.25 140.2 376.55 153.17 391.36 177.771" clip-rule="evenodd"/></g><g><polygon fill="#8599D9" fill-rule="evenodd" points="344 198.09 369.31 224.76 370.43 225.59 343.85 197.59" clip-rule="evenodd"/><polygon fill="#8599D9" fill-rule="evenodd" points="343.85 197.59 370.43 225.59 384.48 213.939 357.33 186" clip-rule="evenodd"/></g><g><polygon fill="#304CE5" fill-rule="evenodd" points="400.25 197.49 403.74 208.439 409.19 209.43 405.541 197.979" clip-rule="evenodd"/><polygon fill="#3857FA" fill-rule="evenodd" points="404.59 196.32 400.25 197.49 405.541 197.979 410.08 196.76" clip-rule="evenodd"/><polygon fill="#2B45C7" fill-rule="evenodd" points="405.541 197.979 409.19 209.43 413.75 208.229 410.08 196.76" clip-rule="evenodd"/></g><g><polygon fill="#47D612" fill-rule="evenodd" points="50.95 265.42 48.19 248.64 43.18 251.09 46.02 268.21" clip-rule="evenodd"/><polygon fill="#52F017" fill-rule="evenodd" points="48.19 248.64 27.86 250.04 22.48 252.5 43.18 251.09" clip-rule="evenodd"/><polygon fill="#3BB80D" fill-rule="evenodd" points="22.48 252.5 25.38 269.43 46.02 268.21 43.18 251.09" clip-rule="evenodd"/></g><g><polygon fill="none" fill-rule="evenodd" stroke="#000" stroke-linecap="round" stroke-linejoin="round" stroke-width="1.5" points="25.38 269.43 22.48 252.5 27.86 250.04 48.19 248.64 50.95 265.42 46.02 268.21" clip-rule="evenodd"/></g><g><polygon fill="#17BA03" fill-rule="evenodd" points="96.83 264.38 89.82 235.71 76.36 240.47 84.64 274.56" clip-rule="evenodd"/><polygon fill="#1FC40A" fill-rule="evenodd" points="89.82 235.71 61.86 243.06 42.9 249.29 76.36 240.47" clip-rule="evenodd"/><polygon fill="#128F00" fill-rule="evenodd" points="42.9 249.29 51.18 283.89 84.64 274.56 76.36 240.47" clip-rule="evenodd"/></g><g><polygon fill="none" fill-rule="evenodd" stroke="#000" stroke-linecap="round" stroke-linejoin="round" stroke-width="1.5" points="113.64 293.62 105.18 271.97 104.02 268.271 117.89 262.97 127.35 283.67 128.46 287.54" clip-rule="evenodd"/></g><g><polygon fill="none" fill-rule="evenodd" stroke="#000" stroke-linecap="round" stroke-linejoin="round" stroke-width="1.5" points="51.18 283.89 42.9 249.29 61.86 243.06 89.82 235.71 96.83 264.38 84.64 274.56" clip-rule="evenodd"/></g><g><polygon fill="#24B808" fill-rule="evenodd" points="92.59 248.68 107.91 269.771 107.77 261.82 91.13 239.021" clip-rule="evenodd"/><polygon fill="#1FA808" fill-rule="evenodd" points="107.91 269.771 132.37 252.42 134.28 243.3 107.77 261.82" clip-rule="evenodd"/><polygon fill="#33D417" fill-rule="evenodd" points="91.13 239.021 107.77 261.82 134.28 243.3 117.89 221.54" clip-rule="evenodd"/></g><g><polygon fill="#4C8508" fill-rule="evenodd" points="140.86 241.189 165.71 234.38 163.97 234.2 136.54 241.71" clip-rule="evenodd"/><polygon fill="#78C419" fill-rule="evenodd" points="165.71 234.38 163.15 224.33 161.16 223.12 163.97 234.2" clip-rule="evenodd"/><polygon fill="#8AD926" fill-rule="evenodd" points="133.8 230.5 136.54 241.71 163.97 234.2 161.16 223.12" clip-rule="evenodd"/></g><g><polygon fill="#A69E00" fill-rule="evenodd" points="188.89 240.9 193.36 237.12 191.62 237.68 187.08 241.51" clip-rule="evenodd"/><polygon fill="#BDB200" fill-rule="evenodd" points="193.36 237.12 179.39 219.09 177.46 219.37 191.62 237.68" clip-rule="evenodd"/><polygon fill="#D4C700" fill-rule="evenodd" points="173 223.2 187.08 241.51 191.62 237.68 177.46 219.37" clip-rule="evenodd"/></g><g><polygon fill="#21C430" fill-rule="evenodd" points="226.39 241.59 229.09 238.771 212.66 242.89 209.72 245.99" clip-rule="evenodd"/><polygon fill="#4AF75C" fill-rule="evenodd" points="229.09 238.771 219.31 227.81 202.07 230.729 212.66 242.89" clip-rule="evenodd"/><polygon fill="#33D445" fill-rule="evenodd" points="199.2 233.83 209.72 245.99 212.66 242.89 202.07 230.729" clip-rule="evenodd"/></g><g><polygon fill="none" fill-rule="evenodd" stroke="#000" stroke-linecap="round" stroke-linejoin="round" stroke-width="1.5" points="209.72 245.99 199.2 233.83 202.07 230.729 219.31 227.81 229.09 238.771 226.39 241.59" clip-rule="evenodd"/></g><g><polygon fill="#063" fill-rule="evenodd" points="247.621 255.35 276.09 253 250.459 251.189 217.99 254.021" clip-rule="evenodd"/><polygon fill="#03A152" fill-rule="evenodd" points="276.09 253 274.49 235.88 248.9 231.021 250.459 251.189" clip-rule="evenodd"/><polygon fill="#0AB05C" fill-rule="evenodd" points="216.87 234.59 217.99 254.021 250.459 251.189 248.9 231.021" clip-rule="evenodd"/></g><g><polygon fill="#058CAB" fill-rule="evenodd" points="292.4 249.38 287.22 241.229 286.86 241.74 292.08 249.95" clip-rule="evenodd"/><polygon fill="#058CAB" fill-rule="evenodd" points="287.22 241.229 277.58 246.939 277.16 247.479 286.86 241.74" clip-rule="evenodd"/><polygon fill="#007894" fill-rule="evenodd" points="277.16 247.479 282.31 255.65 292.08 249.95 286.86 241.74" clip-rule="evenodd"/></g><g><polygon fill="none" fill-rule="evenodd" stroke="#000" stroke-linecap="round" stroke-linejoin="round" stroke-width="1.5" points="378.74 279.029 355.38 259.271 338.73 237.2 354.47 225.93 377.669 238.31 398.209 265.409" clip-rule="evenodd"/></g><g><polygon fill="none" fill-rule="evenodd" stroke="#000" stroke-linecap="round" stroke-linejoin="round" stroke-width="1.5" points="324.53 309.34 318.09 279.56 315.77 266.189 325.1 264.88 332.4 294.05 334.59 308.13" clip-rule="evenodd"/></g><g><polygon fill="#59B8FF" fill-rule="evenodd" points="327.64 220.909 298.34 233.609 302.89 247.75 338.51 232.54" clip-rule="evenodd"/><polygon fill="#408FC9" fill-rule="evenodd" points="302.89 247.75 320.05 284.29 356.041 269.56 338.51 232.54" clip-rule="evenodd"/></g><g><polygon fill="none" fill-rule="evenodd" stroke="#000" stroke-linecap="round" stroke-linejoin="round" stroke-width="1.5" points="320.05 284.29 302.89 247.75 298.34 233.609 327.64 220.909 338.51 232.54 356.041 269.56" clip-rule="evenodd"/></g><g><polygon fill="#1978A3" fill-rule="evenodd" points="392.291 241.75 400.75 258.229 411 265.46 401.94 247.8" clip-rule="evenodd"/><polygon fill="#1F85B0" fill-rule="evenodd" points="405.919 235.359 392.291 241.75 401.94 247.8 416.6 240.979" clip-rule="evenodd"/><polygon fill="#176B91" fill-rule="evenodd" points="401.94 247.8 411 265.46 425.701 258.729 416.6 240.979" clip-rule="evenodd"/></g><g><polygon fill="#52E829" fill-rule="evenodd" points="198.79 261.84 184.96 241.909 183.88 246.25 197.97 266.39" clip-rule="evenodd"/><polygon fill="#63F040" fill-rule="evenodd" points="184.96 241.909 172.74 246.99 171.47 251.38 183.88 246.25" clip-rule="evenodd"/><polygon fill="#42BA21" fill-rule="evenodd" points="171.47 251.38 185.74 271.18 197.97 266.39 183.88 246.25" clip-rule="evenodd"/></g><g><polygon fill="none" fill-rule="evenodd" stroke="#000" stroke-linecap="round" stroke-linejoin="round" stroke-width="1.5" points="223.24 309.07 212.02 305.76 206.41 297.89 218.8 269.37 229.98 272.08 234.701 280.521" clip-rule="evenodd"/></g><g><polygon fill="none" fill-rule="evenodd" stroke="#000" stroke-linecap="round" stroke-linejoin="round" stroke-width="1.5" points="185.74 271.18 171.47 251.38 172.74 246.99 184.96 241.909 198.79 261.84 197.97 266.39" clip-rule="evenodd"/></g><g><polygon fill="#21C985" fill-rule="evenodd" points="234.24 272.75 215.06 251.93 213.67 256.47 233.16 277.47" clip-rule="evenodd"/><polygon fill="#2BD994" fill-rule="evenodd" points="215.06 251.93 199.34 259.46 197.76 263.99 213.67 256.47" clip-rule="evenodd"/><polygon fill="#14BA78" fill-rule="evenodd" points="197.76 263.99 217.16 284.29 233.16 277.47 213.67 256.47" clip-rule="evenodd"/></g><g><polygon fill="none" fill-rule="evenodd" stroke="#000" stroke-linecap="round" stroke-linejoin="round" stroke-width="1.5" points="217.16 284.29 197.76 263.99 199.34 259.46 215.06 251.93 234.24 272.75 233.16 277.47" clip-rule="evenodd"/></g><g><polygon fill="#089959" fill-rule="evenodd" points="257.97 292.07 254.709 270.75 254.22 271.81 257.51 293.19" clip-rule="evenodd"/><polygon fill="#0DB069" fill-rule="evenodd" points="254.709 270.75 241.63 269.59 241.1 270.64 254.22 271.81" clip-rule="evenodd"/><polygon fill="#058A4F" fill-rule="evenodd" points="241.1 270.64 244.669 291.76 257.51 293.19 254.22 271.81" clip-rule="evenodd"/></g><g><polygon fill="none" fill-rule="evenodd" stroke="#000" stroke-linecap="round" stroke-linejoin="round" stroke-width="1.5" points="359.55 345.68 341.1 293.72 338.43 281.05 364.31 274.521 386.61 327.9 386.98 339.5" clip-rule="evenodd"/></g><g><polygon fill="#6324CF" fill-rule="evenodd" points="355.61 268.79 356.83 293.1 360.64 306.771 359.52 281.97" clip-rule="evenodd"/><polygon fill="#6E2BE0" fill-rule="evenodd" points="369.201 267.689 355.61 268.79 359.52 281.97 373.73 280.909" clip-rule="evenodd"/><polygon fill="#5417BD" fill-rule="evenodd" points="359.52 281.97 360.64 306.771 374.291 305.909 373.73 280.909" clip-rule="evenodd"/></g><g><polygon fill="#1966A8" fill-rule="evenodd" points="390.64 285.82 405.89 302.06 408.49 304.22 393.19 287.909" clip-rule="evenodd"/><polygon fill="#1966A8" fill-rule="evenodd" points="404.74 271.76 390.64 285.82 393.19 287.909 407.419 273.72" clip-rule="evenodd"/><polygon fill="#0D4A7D" fill-rule="evenodd" points="393.19 287.909 408.49 304.22 422.28 290.521 407.419 273.72" clip-rule="evenodd"/></g><g><polygon fill="#2EB891" fill-rule="evenodd" points="72.96 286.94 63.48 282.01 66.95 331.58 77.48 335.87" clip-rule="evenodd"/><polygon fill="#38D9AD" fill-rule="evenodd" points="63.48 282.01 45.03 295.56 46.23 346.529 66.95 331.58" clip-rule="evenodd"/><polygon fill="#1F8F70" fill-rule="evenodd" points="46.23 346.529 57.21 350.44 77.48 335.87 66.95 331.58" clip-rule="evenodd"/></g><g><polygon fill="#179466" fill-rule="evenodd" points="96.07 308.96 89.34 305.13 91.68 311.95 98.49 315.729" clip-rule="evenodd"/><polygon fill="#1FA170" fill-rule="evenodd" points="89.34 305.13 82.76 310.82 84.98 317.75 91.68 311.95" clip-rule="evenodd"/><polygon fill="#0A6645" fill-rule="evenodd" points="84.98 317.75 91.93 321.43 98.49 315.729 91.68 311.95" clip-rule="evenodd"/></g><g><polygon fill="#3D8A00" fill-rule="evenodd" points="168.26 265.5 154.72 255.49 170.47 268.939 184.08 278.92" clip-rule="evenodd"/><polygon fill="#459600" fill-rule="evenodd" points="154.72 255.49 137.26 277.479 152.28 292.39 170.47 268.939" clip-rule="evenodd"/><polygon fill="#2B5E00" fill-rule="evenodd" points="152.28 292.39 166.87 301.521 184.08 278.92 170.47 268.939" clip-rule="evenodd"/></g><g><polygon fill="none" fill-rule="evenodd" stroke="#000" stroke-linecap="round" stroke-linejoin="round" stroke-width="1.5" points="166.98 93.47 165.81 92.34 167.43 86.49 180.93 75.33 182.07 76.49 180.76 82.23" clip-rule="evenodd"/></g><g><polygon fill="#A3C712" fill-rule="evenodd" points="194.04 105.88 210.88 90.21 198.55 80.94 181.41 97.37" clip-rule="evenodd"/><polygon fill="#B2D90F" fill-rule="evenodd" points="210.88 90.21 205.23 78.06 193.09 68.65 198.55 80.94" clip-rule="evenodd"/><polygon fill="#CFFA19" fill-rule="evenodd" points="176.59 84.86 181.41 97.37 198.55 80.94 193.09 68.65" clip-rule="evenodd"/></g><g><polygon fill="none" fill-rule="evenodd" stroke="#000" stroke-linecap="round" stroke-linejoin="round" stroke-width="1.5" points="194.04 105.88 181.41 97.37 176.59 84.86 193.09 68.65 205.23 78.06 210.88 90.21" clip-rule="evenodd"/></g><g><polygon fill="#A1C703" fill-rule="evenodd" points="193.45 121.33 197.49 119.23 189.89 110.91 185.77 113.11" clip-rule="evenodd"/><polygon fill="#B2DB0D" fill-rule="evenodd" points="197.49 119.23 194.61 103.04 187.19 94.57 189.89 110.91" clip-rule="evenodd"/><polygon fill="#D1FF17" fill-rule="evenodd" points="183.22 96.75 185.77 113.11 189.89 110.91 187.19 94.57" clip-rule="evenodd"/></g><g><polygon fill="none" fill-rule="evenodd" stroke="#000" stroke-linecap="round" stroke-linejoin="round" stroke-width="1.5" points="144.58 107.97 143.93 107.46 142.24 100.92 159.66 82.88 160.28 83.42 162.54 89.55" clip-rule="evenodd"/></g><g><polygon fill="none" fill-rule="evenodd" stroke="#000" stroke-linecap="round" stroke-linejoin="round" stroke-width="1.5" points="144.55 98.72 141.79 96.44 123.7 77.67 127.22 74.21 129.71 76.01 148.01 95.29" clip-rule="evenodd"/></g><g><polygon fill="none" fill-rule="evenodd" stroke="#000" stroke-linecap="round" stroke-linejoin="round" stroke-width="1.5" points="133.55 113.37 117.21 93.39 117.07 92.06 125.59 86.8 141.52 107.06 141.78 108.4" clip-rule="evenodd"/></g><g><polygon fill="#476E00" fill-rule="evenodd" points="152.99 141.09 170.81 132.25 136.31 93.9 117.49 104.42" clip-rule="evenodd"/><polygon fill="#59820D" fill-rule="evenodd" points="170.81 132.25 171.96 116.86 139.13 78.79 136.31 93.9" clip-rule="evenodd"/><polygon fill="#699614" fill-rule="evenodd" points="121.09 89.16 117.49 104.42 136.31 93.9 139.13 78.79" clip-rule="evenodd"/></g><g><polygon fill="none" fill-rule="evenodd" stroke="#000" stroke-linecap="round" stroke-linejoin="round" stroke-width="1.5" points="152.99 141.09 117.49 104.42 121.09 89.16 139.13 78.79 171.96 116.86 170.81 132.25" clip-rule="evenodd"/></g><g><polygon fill="#54BA08" fill-rule="evenodd" points="160.36 150.12 172.53 140.57 160.1 130.18 147.63 140.17" clip-rule="evenodd"/><polygon fill="#57BF08" fill-rule="evenodd" points="172.53 140.57 169.21 130.61 157.02 120.18 160.1 130.18" clip-rule="evenodd"/><polygon fill="#61D40D" fill-rule="evenodd" points="144.94 129.98 147.63 140.17 160.1 130.18 157.02 120.18" clip-rule="evenodd"/></g><g><polygon fill="none" fill-rule="evenodd" stroke="#000" stroke-linecap="round" stroke-linejoin="round" stroke-width="1.5" points="160.36 150.12 147.63 140.17 144.94 129.98 157.02 120.18 169.21 130.61 172.53 140.57" clip-rule="evenodd"/></g><g><polygon fill="#4F8042" fill-rule="evenodd" points="143.61 168.26 169.16 151.58 166.63 149.23 140.82 166.13" clip-rule="evenodd"/><polygon fill="#528042" fill-rule="evenodd" points="169.16 151.58 167.27 147.45 164.74 145.08 166.63 149.23" clip-rule="evenodd"/><polygon fill="#6EA85E" fill-rule="evenodd" points="139.15 161.89 140.82 166.13 166.63 149.23 164.74 145.08" clip-rule="evenodd"/></g><g><polygon fill="none" fill-rule="evenodd" stroke="#000" stroke-linecap="round" stroke-linejoin="round" stroke-width="1.5" points="94.26 119.59 91.13 103.38 91.7 101.26 98.49 100.54 101.41 116.35 101.09 118.8" clip-rule="evenodd"/></g><g><polygon fill="none" fill-rule="evenodd" stroke="#000" stroke-linecap="round" stroke-linejoin="round" stroke-width="1.5" points="108.99 117.19 92.58 85.38 92.5 84.65 100.38 81.37 116.29 113.07 116.53 113.96" clip-rule="evenodd"/></g><g><polygon fill="#59AD00" fill-rule="evenodd" points="106.64 147.19 133.25 139.1 122.07 111.91 94.52 120.33" clip-rule="evenodd"/><polygon fill="#5EB500" fill-rule="evenodd" points="133.25 139.1 134.21 135.15 123.37 108.54 122.07 111.91" clip-rule="evenodd"/><polygon fill="#6BCC00" fill-rule="evenodd" points="96.55 116.74 94.52 120.33 122.07 111.91 123.37 108.54" clip-rule="evenodd"/></g><g><polygon fill="none" fill-rule="evenodd" stroke="#000" stroke-linecap="round" stroke-linejoin="round" stroke-width="1.5" points="106.64 147.19 94.52 120.33 96.55 116.74 123.37 108.54 134.21 135.15 133.25 139.1" clip-rule="evenodd"/></g><g><polygon fill="#A3B23B" fill-rule="evenodd" points="90.67 146.27 112.05 148.88 111.74 135.12 89.98 132.46" clip-rule="evenodd"/><polygon fill="#B2C44A" fill-rule="evenodd" points="112.05 148.88 117.29 142.03 117.09 128.71 111.74 135.12" clip-rule="evenodd"/><polygon fill="#C9D959" fill-rule="evenodd" points="96.22 126.16 89.98 132.46 111.74 135.12 117.09 128.71" clip-rule="evenodd"/></g><g><polygon fill="#69D400" fill-rule="evenodd" points="124.07 147.29 143.84 144.13 140 135.28 119.93 138.59" clip-rule="evenodd"/><polygon fill="#6EE000" fill-rule="evenodd" points="143.84 144.13 144.6 142.12 140.8 133.3 140 135.28" clip-rule="evenodd"/><polygon fill="#7DFF00" fill-rule="evenodd" points="120.86 136.61 119.93 138.59 140 135.28 140.8 133.3" clip-rule="evenodd"/></g><g><polygon fill="#408703" fill-rule="evenodd" points="76.18 156.35 108.04 155.95 107.65 151.93 75.52 152.27" clip-rule="evenodd"/><polygon fill="#52A805" fill-rule="evenodd" points="108.04 155.95 108.32 152.87 107.94 148.86 107.65 151.93" clip-rule="evenodd"/><polygon fill="#52A805" fill-rule="evenodd" points="76.16 149.15 75.52 152.27 107.65 151.93 107.94 148.86" clip-rule="evenodd"/></g><g><polygon fill="none" fill-rule="evenodd" stroke="#000" stroke-linecap="round" stroke-linejoin="round" stroke-width="1.5" points="112.05 148.88 90.67 146.27 89.98 132.46 96.22 126.16 117.09 128.71 117.29 142.03" clip-rule="evenodd"/></g><g><polygon fill="#73A100" fill-rule="evenodd" points="134.52 176.99 139.21 174.1 118.6 147.54 113.51 150.65" clip-rule="evenodd"/><polygon fill="#7AAD00" fill-rule="evenodd" points="139.21 174.1 135 165.41 114.64 138.9 118.6 147.54" clip-rule="evenodd"/><polygon fill="#8FCC00" fill-rule="evenodd" points="109.68 141.91 113.51 150.65 118.6 147.54 114.64 138.9" clip-rule="evenodd"/></g><g><polygon fill="none" fill-rule="evenodd" stroke="#000" stroke-linecap="round" stroke-linejoin="round" stroke-width="1.5" points="134.52 176.99 113.51 150.65 109.68 141.91 114.64 138.9 135 165.41 139.21 174.1" clip-rule="evenodd"/></g><g><polygon fill="#78B803" fill-rule="evenodd" points="104.66 192.35 137.08 183.94 135.48 178.94 102.21 187.479" clip-rule="evenodd"/><polygon fill="#A1F208" fill-rule="evenodd" points="137.08 183.94 135.33 177.07 133.7 171.94 135.48 178.94" clip-rule="evenodd"/><polygon fill="#A1F208" fill-rule="evenodd" points="100.72 180.29 102.21 187.479 135.48 178.94 133.7 171.94" clip-rule="evenodd"/></g><g><polygon fill="none" fill-rule="evenodd" stroke="#000" stroke-linecap="round" stroke-linejoin="round" stroke-width="1.5" points="104.66 192.35 102.21 187.479 100.72 180.29 133.7 171.94 135.33 177.07 137.08 183.94" clip-rule="evenodd"/></g><g><polygon fill="#42C419" fill-rule="evenodd" points="140.18 193.55 168.04 186.68 166.87 185.8 138.68 192.76" clip-rule="evenodd"/><polygon fill="#5EFA2B" fill-rule="evenodd" points="135.4 174.63 138.68 192.76 166.87 185.8 163.27 167.67" clip-rule="evenodd"/><polygon fill="#5EFA2B" fill-rule="evenodd" points="168.04 186.68 164.47 168.76 163.27 167.67 166.87 185.8" clip-rule="evenodd"/></g><g><polygon fill="#24AB29" fill-rule="evenodd" points="172.92 191.26 198.35 189.06 194.39 188.39 168.16 190.67" clip-rule="evenodd"/><polygon fill="#33BD36" fill-rule="evenodd" points="198.35 189.06 197.01 168.35 193.03 166.96 194.39 188.39" clip-rule="evenodd"/><polygon fill="#45D64A" fill-rule="evenodd" points="166.96 169.58 168.16 190.67 194.39 188.39 193.03 166.96" clip-rule="evenodd"/></g><g><polygon fill="none" fill-rule="evenodd" stroke="#000" stroke-linecap="round" stroke-linejoin="round" stroke-width="1.5" points="140.18 193.55 138.68 192.76 135.4 174.63 163.27 167.67 164.47 168.76 168.04 186.68" clip-rule="evenodd"/></g><g><polygon fill="#D4FA3B" fill-rule="evenodd" points="149.39 221.029 165.52 212.5 165.24 212.17 149.02 220.74" clip-rule="evenodd"/><polygon fill="#D4FA3B" fill-rule="evenodd" points="165.52 212.5 153.53 189.31 153.18 188.85 165.24 212.17" clip-rule="evenodd"/><polygon fill="#ABCC24" fill-rule="evenodd" points="137.1 197.17 149.02 220.74 165.24 212.17 153.18 188.85" clip-rule="evenodd"/></g><g><polygon fill="none" fill-rule="evenodd" stroke="#000" stroke-linecap="round" stroke-linejoin="round" stroke-width="1.5" points="57.21 350.44 46.23 346.529 45.03 295.56 63.48 282.01 72.96 286.94 77.48 335.87" clip-rule="evenodd"/></g><g><polygon fill="#0DC729" fill-rule="evenodd" points="52.38 292.84 45.05 288.39 44.14 292.05 51.59 296.529" clip-rule="evenodd"/><polygon fill="#14DE36" fill-rule="evenodd" points="45.05 288.39 40.18 293.4 39.2 297.13 44.14 292.05" clip-rule="evenodd"/><polygon fill="#0AAD24" fill-rule="evenodd" points="39.2 297.13 46.69 301.56 51.59 296.529 44.14 292.05" clip-rule="evenodd"/></g><g><polygon fill="#24D44A" fill-rule="evenodd" points="88.31 297.43 73.65 282.59 73.65 284.189 88.42 299.109" clip-rule="evenodd"/><polygon fill="#30E359" fill-rule="evenodd" points="73.65 282.59 67.39 287.25 67.34 288.9 73.65 284.189" clip-rule="evenodd"/><polygon fill="#1CB03D" fill-rule="evenodd" points="67.34 288.9 82.29 303.74 88.42 299.109 73.65 284.189" clip-rule="evenodd"/></g><g><polygon fill="none" fill-rule="evenodd" stroke="#000" stroke-linecap="round" stroke-linejoin="round" stroke-width="1.5" points="166.87 301.521 152.28 292.39 137.26 277.479 154.72 255.49 168.26 265.5 184.08 278.92" clip-rule="evenodd"/></g><g><polygon fill="#94E517" fill-rule="evenodd" points="156.27 248.33 142.05 259.29 143.02 260.779 157.36 249.7" clip-rule="evenodd"/><polygon fill="#69AB00" fill-rule="evenodd" points="143.02 260.779 150.09 269.87 164.17 258.83 157.36 249.7" clip-rule="evenodd"/></g><g><polygon fill="none" fill-rule="evenodd" stroke="#000" stroke-linecap="round" stroke-linejoin="round" stroke-width="1.5" points="222.93 96.61 214.61 84.74 209.04 63.62 219.24 58.7 227.15 71.44 233.11 92.01" clip-rule="evenodd"/></g><g><polygon fill="#AB3387" fill-rule="evenodd" points="217.82 127.03 234.071 123.35 224.321 97.23 206.25 101.55" clip-rule="evenodd"/><polygon fill="#A3247D" fill-rule="evenodd" points="234.071 123.35 231.321 105.75 221.5 78.29 224.321 97.23" clip-rule="evenodd"/><polygon fill="#D64CAD" fill-rule="evenodd" points="203.91 82.63 206.25 101.55 224.321 97.23 221.5 78.29" clip-rule="evenodd"/></g><g><polygon fill="none" fill-rule="evenodd" stroke="#000" stroke-linecap="round" stroke-linejoin="round" stroke-width="1.5" points="217.82 127.03 206.25 101.55 203.91 82.63 221.5 78.29 231.321 105.75 234.071 123.35" clip-rule="evenodd"/></g><g><polygon fill="#47B805" fill-rule="evenodd" points="213.84 145.32 226.821 143.41 223.99 128.01 210.16 130.07" clip-rule="evenodd"/><polygon fill="#47B805" fill-rule="evenodd" points="226.821 143.41 225.05 129.55 222.16 113.58 223.99 128.01" clip-rule="evenodd"/><polygon fill="#47B805" fill-rule="evenodd" points="208.63 115.63 210.16 130.07 223.99 128.01 222.16 113.58" clip-rule="evenodd"/></g><g><polygon fill="none" fill-rule="evenodd" stroke="#000" stroke-linecap="round" stroke-linejoin="round" stroke-width="1.5" points="213.84 145.32 210.16 130.07 208.63 115.63 222.16 113.58 225.05 129.55 226.821 143.41" clip-rule="evenodd"/></g><g><polygon fill="#42D10D" fill-rule="evenodd" points="206.75 162.71 219.1 176.36 208.14 161.6 195.23 147.43" clip-rule="evenodd"/><polygon fill="#36C700" fill-rule="evenodd" points="219.1 176.36 235.75 162.1 226.071 146.3 208.14 161.6" clip-rule="evenodd"/><polygon fill="#4FFF0D" fill-rule="evenodd" points="195.23 147.43 208.14 161.6 226.071 146.3 212.63 132.65" clip-rule="evenodd"/></g><g><polygon fill="none" fill-rule="evenodd" stroke="#000" stroke-linecap="round" stroke-linejoin="round" stroke-width="1.5" points="219.1 176.36 206.75 162.71 195.23 147.43 212.63 132.65 226.071 146.3 235.75 162.1" clip-rule="evenodd"/></g><g><polygon fill="#42A10A" fill-rule="evenodd" points="258.14 196.87 263.77 194.43 244.43 177.45 237.89 180.39" clip-rule="evenodd"/><polygon fill="#47B00A" fill-rule="evenodd" points="263.77 194.43 257.23 177.521 237.169 157.95 244.43 177.45" clip-rule="evenodd"/><polygon fill="#54CF0D" fill-rule="evenodd" points="230.81 160.92 237.89 180.39 244.43 177.45 237.169 157.95" clip-rule="evenodd"/></g><g><polygon fill="none" fill-rule="evenodd" stroke="#000" stroke-linecap="round" stroke-linejoin="round" stroke-width="1.5" points="258.14 196.87 237.89 180.39 230.81 160.92 237.169 157.95 257.23 177.521 263.77 194.43" clip-rule="evenodd"/></g><g><polygon fill="#0F9947" fill-rule="evenodd" points="252.41 220.97 268.08 215.439 250.291 211.75 233.41 217.9" clip-rule="evenodd"/><polygon fill="#3BD478" fill-rule="evenodd" points="268.08 215.439 262.06 194.529 244 188.79 250.291 211.75" clip-rule="evenodd"/><polygon fill="#3BD478" fill-rule="evenodd" points="227.571 195.3 233.41 217.9 250.291 211.75 244 188.79" clip-rule="evenodd"/></g><g><polygon fill="none" fill-rule="evenodd" stroke="#000" stroke-linecap="round" stroke-linejoin="round" stroke-width="1.5" points="288.18 339.31 280.84 329.51 265.93 284.58 287.709 275.71 294.18 287.13 311.121 330.479" clip-rule="evenodd"/></g><g><polygon fill="none" fill-rule="evenodd" stroke="#000" stroke-linecap="round" stroke-linejoin="round" stroke-width="1.5" points="178.24 110.61 165.81 106.27 156.87 97.2 159.75 90.81 171.88 95.35 181.3 104.17" clip-rule="evenodd"/></g><g><polygon fill="none" fill-rule="evenodd" stroke="#000" stroke-linecap="round" stroke-linejoin="round" stroke-width="1.5" points="284.47 270.24 282.1 265.93 281.68 264.7 287.121 262.26 289.459 266.58 289.91 267.82" clip-rule="evenodd"/></g><g><polygon fill="none" fill-rule="evenodd" stroke="#000" stroke-linecap="round" stroke-linejoin="round" stroke-width="1.5" points="109.13 96.36 105.83 90.75 108.75 82.44 115.7 79.8 118.79 85.32 116.29 93.69" clip-rule="evenodd"/></g><g><polygon fill="none" fill-rule="evenodd" stroke="#000" stroke-linecap="round" stroke-linejoin="round" stroke-width="1.5" points="333.34 37.33 332.14 36.37 329.701 25.79 348.65 16.93 349.99 17.78 352.1 28.64" clip-rule="evenodd"/></g><g><polygon fill="none" fill-rule="evenodd" stroke="#000" stroke-linecap="round" stroke-linejoin="round" stroke-width="1.5" points="380.81 34.74 365.85 30.66 360.16 15.72 363.121 13.31 378.371 16.62 383.85 32.29" clip-rule="evenodd"/></g><g><polygon fill="none" fill-rule="evenodd" stroke="#000" stroke-linecap="round" stroke-linejoin="round" stroke-width="1.5" points="306.459 58.89 303.3 56.33 299.94 43.99 318.27 30.47 321.68 32.9 324.32 45.76" clip-rule="evenodd"/></g><g><polygon fill="none" fill-rule="evenodd" stroke="#000" stroke-linecap="round" stroke-linejoin="round" stroke-width="1.5" points="331.47 52.67 328.919 49.25 329.18 45.31 356.33 33.69 359.1 37.06 358.48 41.12" clip-rule="evenodd"/></g><g><polygon fill="none" fill-rule="evenodd" stroke="#000" stroke-linecap="round" stroke-linejoin="round" stroke-width="1.5" points="366.01 70.17 361.03 59.32 380.3 46.96 383.451 46.19 388.69 57.5 369.13 69.26" clip-rule="evenodd"/></g><g><polygon fill="none" fill-rule="evenodd" stroke="#000" stroke-linecap="round" stroke-linejoin="round" stroke-width="1.5" points="240.59 83.04 238.01 76.37 236.59 71.79 261.33 62.55 262.91 67.12 264.84 74.12" clip-rule="evenodd"/></g><g><polygon fill="none" fill-rule="evenodd" stroke="#000" stroke-linecap="round" stroke-linejoin="round" stroke-width="1.5" points="310.85 95.93 298.169 71.07 300.169 67.28 316.791 60.48 329.89 85.61 327.25 89.03" clip-rule="evenodd"/></g><g><polygon fill="none" fill-rule="evenodd" stroke="#000" stroke-linecap="round" stroke-linejoin="round" stroke-width="1.5" points="335.15 100.11 331.6 69.91 333.291 68.22 356.72 65.2 360.31 95.96 358.19 97.2" clip-rule="evenodd"/></g><g><polygon fill="none" fill-rule="evenodd" stroke="#000" stroke-linecap="round" stroke-linejoin="round" stroke-width="1.5" points="367.88 112.74 363.669 108.71 377.11 94.52 384.65 92.25 388.9 96.17 375.6 109.79" clip-rule="evenodd"/></g><g><polygon fill="none" fill-rule="evenodd" stroke="#000" stroke-linecap="round" stroke-linejoin="round" stroke-width="1.5" points="278.53 122.11 275.97 119.32 278.1 93.94 287.28 88.12 290.15 91.05 286.85 116.7" clip-rule="evenodd"/></g><g><polygon fill="none" fill-rule="evenodd" stroke="#000" stroke-linecap="round" stroke-linejoin="round" stroke-width="1.5" points="190.49 139.92 181.99 132.82 176.12 125.6 183.31 118.44 191.62 125.87 197.62 132.9" clip-rule="evenodd"/></g><g><polygon fill="none" fill-rule="evenodd" stroke="#000" stroke-linecap="round" stroke-linejoin="round" stroke-width="1.5" points="287.73 142.76 273.201 131.64 272.81 130.66 278.74 125.24 293.49 136.19 293.82 137.18" clip-rule="evenodd"/></g><g><polygon fill="none" fill-rule="evenodd" stroke="#000" stroke-linecap="round" stroke-linejoin="round" stroke-width="1.5" points="345.3 148.23 335.98 142.42 335.169 140.37 357.03 130.38 368.08 135.29 368.91 137.53" clip-rule="evenodd"/></g><g><polygon fill="none" fill-rule="evenodd" stroke="#000" stroke-linecap="round" stroke-linejoin="round" stroke-width="1.5" points="177.81 162.79 176.82 161.83 174.27 151.82 190.05 145.18 190.96 146.24 193.74 156.19" clip-rule="evenodd"/></g><g><polygon fill="none" fill-rule="evenodd" stroke="#000" stroke-linecap="round" stroke-linejoin="round" stroke-width="1.5" points="260.89 176.56 245.98 159.01 233.38 139.72 237.23 136.75 252.84 154.53 264.65 173.68" clip-rule="evenodd"/></g><g><polygon fill="none" fill-rule="evenodd" stroke="#000" stroke-linecap="round" stroke-linejoin="round" stroke-width="1.5" points="279.06 189.95 278.66 188.62 278.36 168.44 287.59 167.5 287.93 168.89 288.56 189.12" clip-rule="evenodd"/></g><g><polygon fill="none" fill-rule="evenodd" stroke="#000" stroke-linecap="round" stroke-linejoin="round" stroke-width="1.5" points="319.5 191.88 307.94 174.96 305.52 171.24 321.44 161.14 324.03 164.79 334.63 182.54" clip-rule="evenodd"/></g><g><polygon fill="none" fill-rule="evenodd" stroke="#000" stroke-linecap="round" stroke-linejoin="round" stroke-width="1.5" points="398.53 177.12 393.34 173.02 395.35 156.13 409.77 142.54 415.72 146.85 411.57 164.87" clip-rule="evenodd"/></g><g><polygon fill="none" fill-rule="evenodd" stroke="#000" stroke-linecap="round" stroke-linejoin="round" stroke-width="1.5" points="60.82 233.029 55.94 228.109 53.89 200.25 89.63 195.97 92.19 202.729 94.75 228.25" clip-rule="evenodd"/></g><g><polygon fill="none" fill-rule="evenodd" stroke="#000" stroke-linecap="round" stroke-linejoin="round" stroke-width="1.5" points="112 219.93 111.92 215.82 111.97 201.96 119.47 201.859 119.49 215.65 119.13 219.76" clip-rule="evenodd"/></g><g><polygon fill="none" fill-rule="evenodd" stroke="#000" stroke-linecap="round" stroke-linejoin="round" stroke-width="1.5" points="180.31 210.109 175.81 203.279 186.18 195.92 186.38 195.93 190.92 202.75 180.52 210.09" clip-rule="evenodd"/></g><g><polygon fill="none" fill-rule="evenodd" stroke="#000" stroke-linecap="round" stroke-linejoin="round" stroke-width="1.5" points="217.11 214.67 216.32 214.63 209.08 194.76 213.8 192.76 214.6 192.94 221.871 212.72" clip-rule="evenodd"/></g><g><polygon fill="none" fill-rule="evenodd" stroke="#000" stroke-linecap="round" stroke-linejoin="round" stroke-width="1.5" points="284.22 216.63 269.621 209.13 268.19 203.939 283.26 198.47 296.75 207.01 298.209 211.82" clip-rule="evenodd"/></g><g><polygon fill="none" fill-rule="evenodd" stroke="#000" stroke-linecap="round" stroke-linejoin="round" stroke-width="1.5" points="316.25 218.189 315.64 216.659 311.64 203.109 328.72 198.44 332.99 212.06 333.33 213.689" clip-rule="evenodd"/></g><g><polygon fill="none" fill-rule="evenodd" stroke="#000" stroke-linecap="round" stroke-linejoin="round" stroke-width="1.5" points="370.43 225.59 369.31 224.76 344 198.09 343.85 197.59 357.33 186 384.48 213.939" clip-rule="evenodd"/></g><g><polygon fill="none" fill-rule="evenodd" stroke="#000" stroke-linecap="round" stroke-linejoin="round" stroke-width="1.5" points="409.19 209.43 403.74 208.439 400.25 197.49 404.59 196.32 410.08 196.76 413.75 208.229" clip-rule="evenodd"/></g><g><polygon fill="none" fill-rule="evenodd" stroke="#000" stroke-linecap="round" stroke-linejoin="round" stroke-width="1.5" points="107.91 269.771 92.59 248.68 91.13 239.021 117.89 221.54 134.28 243.3 132.37 252.42" clip-rule="evenodd"/></g><g><polygon fill="none" fill-rule="evenodd" stroke="#000" stroke-linecap="round" stroke-linejoin="round" stroke-width="1.5" points="136.54 241.71 133.8 230.5 161.16 223.12 163.15 224.33 165.71 234.38 140.86 241.189" clip-rule="evenodd"/></g><g><polygon fill="none" fill-rule="evenodd" stroke="#000" stroke-linecap="round" stroke-linejoin="round" stroke-width="1.5" points="187.08 241.51 173 223.2 177.46 219.37 179.39 219.09 193.36 237.12 188.89 240.9" clip-rule="evenodd"/></g><g><polygon fill="none" fill-rule="evenodd" stroke="#000" stroke-linecap="round" stroke-linejoin="round" stroke-width="1.5" points="247.621 255.35 217.99 254.021 216.87 234.59 248.9 231.021 274.49 235.88 276.09 253" clip-rule="evenodd"/></g><g><polygon fill="none" fill-rule="evenodd" stroke="#000" stroke-linecap="round" stroke-linejoin="round" stroke-width="1.5" points="282.31 255.65 277.16 247.479 277.58 246.939 287.22 241.229 292.4 249.38 292.08 249.95" clip-rule="evenodd"/></g><g><polygon fill="none" fill-rule="evenodd" stroke="#000" stroke-linecap="round" stroke-linejoin="round" stroke-width="1.5" points="411 265.46 400.75 258.229 392.291 241.75 405.919 235.359 416.6 240.979 425.701 258.729" clip-rule="evenodd"/></g><g><polygon fill="none" fill-rule="evenodd" stroke="#000" stroke-linecap="round" stroke-linejoin="round" stroke-width="1.5" points="257.51 293.19 244.669 291.76 241.1 270.64 241.63 269.59 254.709 270.75 257.97 292.07" clip-rule="evenodd"/></g><g><polygon fill="none" fill-rule="evenodd" stroke="#000" stroke-linecap="round" stroke-linejoin="round" stroke-width="1.5" points="360.64 306.771 356.83 293.1 355.61 268.79 369.201 267.689 373.73 280.909 374.291 305.909" clip-rule="evenodd"/></g><g><polygon fill="none" fill-rule="evenodd" stroke="#000" stroke-linecap="round" stroke-linejoin="round" stroke-width="1.5" points="408.49 304.22 405.89 302.06 390.64 285.82 404.74 271.76 407.419 273.72 422.28 290.521" clip-rule="evenodd"/></g><g><polygon fill="none" fill-rule="evenodd" stroke="#000" stroke-linecap="round" stroke-linejoin="round" stroke-width="1.5" points="91.93 321.43 84.98 317.75 82.76 310.82 89.34 305.13 96.07 308.96 98.49 315.729" clip-rule="evenodd"/></g><g><polygon fill="none" fill-rule="evenodd" stroke="#000" stroke-linecap="round" stroke-linejoin="round" stroke-width="1.5" points="193.45 121.33 185.77 113.11 183.22 96.75 187.19 94.57 194.61 103.04 197.49 119.23" clip-rule="evenodd"/></g><g><polygon fill="none" fill-rule="evenodd" stroke="#000" stroke-linecap="round" stroke-linejoin="round" stroke-width="1.5" points="143.61 168.26 140.82 166.13 139.15 161.89 164.74 145.08 167.27 147.45 169.16 151.58" clip-rule="evenodd"/></g><g><polygon fill="none" fill-rule="evenodd" stroke="#000" stroke-linecap="round" stroke-linejoin="round" stroke-width="1.5" points="124.07 147.29 119.93 138.59 120.86 136.61 140.8 133.3 144.6 142.12 143.84 144.13" clip-rule="evenodd"/></g><g><polygon fill="none" fill-rule="evenodd" stroke="#000" stroke-linecap="round" stroke-linejoin="round" stroke-width="1.5" points="76.18 156.35 75.52 152.27 76.16 149.15 107.94 148.86 108.32 152.87 108.04 155.95" clip-rule="evenodd"/></g><g><polygon fill="none" fill-rule="evenodd" stroke="#000" stroke-linecap="round" stroke-linejoin="round" stroke-width="1.5" points="172.92 191.26 168.16 190.67 166.96 169.58 193.03 166.96 197.01 168.35 198.35 189.06" clip-rule="evenodd"/></g><g><polygon fill="none" fill-rule="evenodd" stroke="#000" stroke-linecap="round" stroke-linejoin="round" stroke-width="1.5" points="149.39 221.029 149.02 220.74 137.1 197.17 153.18 188.85 153.53 189.31 165.52 212.5" clip-rule="evenodd"/></g><g><polygon fill="none" fill-rule="evenodd" stroke="#000" stroke-linecap="round" stroke-linejoin="round" stroke-width="1.5" points="46.69 301.56 39.2 297.13 40.18 293.4 45.05 288.39 52.38 292.84 51.59 296.529" clip-rule="evenodd"/></g><g><polygon fill="none" fill-rule="evenodd" stroke="#000" stroke-linecap="round" stroke-linejoin="round" stroke-width="1.5" points="82.29 303.74 67.34 288.9 67.39 287.25 73.65 282.59 88.31 297.43 88.42 299.109" clip-rule="evenodd"/></g><g><polygon fill="none" fill-rule="evenodd" stroke="#000" stroke-linecap="round" stroke-linejoin="round" stroke-width="1.5" points="150.09 269.87 143.02 260.779 142.05 259.29 156.27 248.33 157.36 249.7 164.17 258.83" clip-rule="evenodd"/></g><g><polygon fill="none" fill-rule="evenodd" stroke="#000" stroke-linecap="round" stroke-linejoin="round" stroke-width="1.5" points="252.41 220.97 233.41 217.9 227.571 195.3 244 188.79 262.06 194.529 268.08 215.439" clip-rule="evenodd"/></g></g></svg>