<svg xmlns="http://www.w3.org/2000/svg" xmlns:xlink="http://www.w3.org/1999/xlink" id="Layer_1" width="213.762" height="213.749" x="0" y="0" enable-background="new 0 0 213.762 213.749" version="1.0" viewBox="0 0 213.762 213.749" xml:space="preserve"><radialGradient id="SVGID_1_" cx="62.895" cy="68.131" r="162.235" gradientUnits="userSpaceOnUse"><stop offset="0" stop-color="#EDEDED"/><stop offset="1" stop-color="#A3A3A3"/></radialGradient><path fill="url(#SVGID_1_)" fill-rule="evenodd" d="M187.215,175.842c-38.08,44.35-104.9,49.45-149.27,11.391	c-44.38-38.061-49.5-104.89-11.43-149.28c38.07-44.39,104.931-49.51,149.31-11.43C220.215,64.612,225.314,131.472,187.215,175.842z" clip-rule="evenodd"/><path fill="none" fill-rule="evenodd" stroke="#000" stroke-dasharray="2 2" stroke-linecap="round" stroke-linejoin="round" d="M211.274,124.952c2.04-11.95-0.47-24.41-8.21-36.17c-12.81-19.47-35.88-31.22-57.069-36.9c-22.15-5.93-46.4-6.58-68.86-2.14	c-21.89,4.34-45.09,14.09-60.55,31.57c-11.28,12.74-16.4,27.78-14.1,42.84" clip-rule="evenodd"/><path fill="none" fill-rule="evenodd" stroke="#000" stroke-linecap="round" stroke-linejoin="round" stroke-width="4" d="M187.425,175.662c4.16-4.96,7.05-10.91,8.771-17.45c3.06-11.609,2.3-23.87-0.211-35.33c-9.57-43.73-47.85-88.42-89.03-105.37" clip-rule="evenodd"/><path fill="none" fill-rule="evenodd" stroke="#000" stroke-linecap="round" stroke-linejoin="round" stroke-width="2" d="M145.045,8.062c-3.51-1.35-7.45-1.87-11.729-1.51c-9.57,0.81-18.82,5.69-26.361,10.96" clip-rule="evenodd"/><path fill="none" fill-rule="evenodd" stroke="#000" stroke-linecap="round" stroke-linejoin="round" stroke-width="2" d="M49.845,17.702c13.76-8.95,33.91-9.75,57.109-0.19" clip-rule="evenodd"/><path fill="none" fill-rule="evenodd" stroke="#000" stroke-linecap="round" stroke-linejoin="round" stroke-width="2" d="M49.495,195.782c-0.6-0.4-1.19-0.83-1.78-1.3c-9.06-7.291-11.89-19.94-12.65-30.341c-0.84-11.459,0.47-22.39,2.85-33.529	c4.6-21.59,13.79-43.57,24.98-62.48c10.82-18.29,26.22-38.14,44.06-50.62" clip-rule="evenodd"/><path fill="none" fill-rule="evenodd" stroke="#000" stroke-linecap="round" stroke-linejoin="round" stroke-width="2" d="M187.215,175.842c-38.08,44.35-104.9,49.45-149.27,11.391c-44.38-38.061-49.5-104.89-11.43-149.28	c38.07-44.39,104.931-49.51,149.31-11.43C220.215,64.612,225.314,131.472,187.215,175.842z" clip-rule="evenodd"/><g opacity=".5"><linearGradient id="SVGID_2_" x1="102.694" x2="179.193" y1="183.15" y2="187.65" gradientUnits="userSpaceOnUse"><stop offset="0" stop-color="#FFC200"/><stop offset="1" stop-color="#FFE842"/></linearGradient><path fill="url(#SVGID_2_)" fill-rule="evenodd" d="M179.865,186.022c-4.351,4.22-9,7.85-14.24,10.919 c-2.61,1.541-5.11,3.021-8.23,3.511c-4.59,0.72-2.75-3.391-0.779-6.16c3.589-5.02,8.039-8.81,12.89-12.45 c3.04-2.289,11.38-8.08,15.85-8.06c-1.34,2.029-2.62,4.09-3.81,6.21c-0.6,1.061-1.17,2.13-1.67,3.24 C179.425,184.222,178.164,186.782,179.865,186.022z" clip-rule="evenodd"/><linearGradient id="SVGID_3_" x1="103.126" x2="179.625" y1="175.805" y2="180.305" gradientUnits="userSpaceOnUse"><stop offset="0" stop-color="#FFC200"/><stop offset="1" stop-color="#FFE842"/></linearGradient><path fill="url(#SVGID_3_)" fill-rule="evenodd" d="M92.765,167.322c6.16-5.851,16.57-6.62,23.95-3.2 c8.72,4.04,12.28,13.52,4.78,20.64c-6.15,5.841-16.561,6.62-23.94,3.2C88.825,183.922,85.265,174.433,92.765,167.322z" clip-rule="evenodd"/><linearGradient id="SVGID_4_" x1="102.483" x2="178.982" y1="186.722" y2="191.222" gradientUnits="userSpaceOnUse"><stop offset="0" stop-color="#FFC200"/><stop offset="1" stop-color="#FFE842"/></linearGradient><path fill="url(#SVGID_4_)" fill-rule="evenodd" d="M126.045,185.922c5.2-5.43,14.07-9.09,21.52-9.17 c10.79-0.11,14.89,7.22,7.221,15.23c-5.2,5.43-14.061,9.09-21.521,9.17C122.475,201.272,118.365,193.933,126.045,185.922z" clip-rule="evenodd"/></g><g><path fill="none" fill-rule="evenodd" stroke="#000" stroke-linecap="round" stroke-linejoin="round" stroke-width="2" d="M179.865,186.022c-4.351,4.22-9,7.85-14.24,10.919c-2.61,1.541-5.11,3.021-8.23,3.511c-4.59,0.72-2.75-3.391-0.779-6.16 c3.589-5.02,8.039-8.81,12.89-12.45c3.04-2.289,11.38-8.08,15.85-8.06c-1.34,2.029-2.62,4.09-3.81,6.21 c-0.6,1.061-1.17,2.13-1.67,3.24C179.425,184.222,178.164,186.782,179.865,186.022z" clip-rule="evenodd"/><path fill="none" fill-rule="evenodd" stroke="#000" stroke-linecap="round" stroke-linejoin="round" stroke-width="2" d="M92.765,167.322c6.16-5.851,16.57-6.62,23.95-3.2c8.72,4.04,12.28,13.52,4.78,20.64c-6.15,5.841-16.561,6.62-23.94,3.2 C88.825,183.922,85.265,174.433,92.765,167.322z" clip-rule="evenodd"/><path fill="none" fill-rule="evenodd" stroke="#000" stroke-linecap="round" stroke-linejoin="round" stroke-width="2" d="M126.045,185.922c5.2-5.43,14.07-9.09,21.52-9.17c10.79-0.11,14.89,7.22,7.221,15.23c-5.2,5.43-14.061,9.09-21.521,9.17 C122.475,201.272,118.365,193.933,126.045,185.922z" clip-rule="evenodd"/></g><path fill="none" fill-rule="evenodd" stroke="#000" stroke-linecap="round" stroke-linejoin="round" stroke-width="2" d="M2.485,124.152c1.09,7.13,3.84,14.26,8.38,21.15c12.93,19.63,35.73,31.169,57.1,36.88c22.14,5.92,46.38,6.569,68.83,2.129	c12.88-2.56,24.82-6.539,36.42-12.85c9.18-4.99,17.16-10.84,24.14-18.74c7.47-8.46,12.24-17.939,13.92-27.77" clip-rule="evenodd"/><path fill="none" fill-rule="evenodd" stroke="#000" stroke-dasharray="2 2" stroke-linecap="round" stroke-linejoin="round" d="M106.954,175.941c25.87-25.539,46.521-65.139,54.051-100.429c3.409-16.01,5.96-40.61-3.49-56.48c-3.16-5.32-7.38-9.01-12.47-10.97" clip-rule="evenodd"/><path fill="none" fill-rule="evenodd" stroke="#000" stroke-dasharray="2 2" stroke-linecap="round" stroke-linejoin="round" d="M106.954,175.941c-34.119-19.839-65.469-58.5-74.109-97.939c-6.29-28.71,1.09-49.95,17-60.3" clip-rule="evenodd"/><path fill="none" fill-rule="evenodd" stroke="#000" stroke-dasharray="2 2" stroke-linecap="round" stroke-linejoin="round" d="M106.954,175.941c-7.719,7.631-17.139,15.181-27.219,19.69c-9.37,4.21-20.86,6.38-30.24,0.15" clip-rule="evenodd"/><path fill="none" fill-rule="evenodd" stroke="#000" stroke-dasharray="2 2" stroke-linecap="round" stroke-linejoin="round" d="M106.954,175.941c18.351,10.671,46.021,20.4,67.971,9.53c5.01-2.479,9.16-5.819,12.5-9.81" clip-rule="evenodd"/><g><linearGradient id="SVGID_5_" x1="82.447" x2="183.704" y1="29.188" y2="157.447" gradientUnits="userSpaceOnUse"><stop offset="0" stop-color="#FFC200"/><stop offset="1" stop-color="#E31700"/></linearGradient><path fill="url(#SVGID_5_)" fill-rule="evenodd" stroke="#000" stroke-linecap="round" stroke-linejoin="round" stroke-width="4" d="M198.945,155.612c1.369-1.56,3.439-4.26,5.489-5.221c1.65-0.76,0.49,1.74,0.061,2.721c-1.55,3.449-3.581,6.57-5.641,9.71 c-4.12,6.28-8.51,12.3-13.46,17.97c-1.37,1.57-3.43,4.2-5.449,5.19c-1.621,0.8-0.541-1.71-0.101-2.69 c1.55-3.46,3.58-6.57,5.64-9.71C189.604,167.303,193.995,161.282,198.945,155.612z" clip-rule="evenodd"/><linearGradient id="SVGID_6_" x1="102.778" x2="204.024" y1="13.161" y2="141.405" gradientUnits="userSpaceOnUse"><stop offset="0" stop-color="#FFC200"/><stop offset="1" stop-color="#E31700"/></linearGradient><path fill="url(#SVGID_6_)" fill-rule="evenodd" stroke="#000" stroke-linecap="round" stroke-linejoin="round" stroke-width="4" d="M195.685,113.992c-5.95,6.21-9.51,17.069-10.25,25.26c-0.37,4.101-0.34,9.65,2.03,13.48c3.189,5.14,8.17,2.77,11.57-0.791 c5.949-6.22,9.51-17.069,10.25-25.259c0.359-4.07,0.319-9.69-2.04-13.5C204.064,108.062,199.085,110.433,195.685,113.992z" clip-rule="evenodd"/><linearGradient id="SVGID_7_" x1="115.283" x2="216.534" y1="3.279" y2="131.53" gradientUnits="userSpaceOnUse"><stop offset="0" stop-color="#FFC200"/><stop offset="1" stop-color="#E31700"/></linearGradient><path fill="url(#SVGID_7_)" fill-rule="evenodd" stroke="#000" stroke-linecap="round" stroke-linejoin="round" stroke-width="4" d="M171.324,67.112c-8.189,7.33-6.979,21.78-3.27,30.43c2.05,4.79,5.43,9.61,10.061,12.391c4.899,2.949,10.539,3.12,15.02-0.891 c8.189-7.34,6.98-21.79,3.27-30.45c-2.05-4.77-5.439-9.59-10.06-12.38C181.445,63.262,175.795,63.102,171.324,67.112z" clip-rule="evenodd"/><linearGradient id="SVGID_8_" x1="115.519" x2="216.771" y1="3.092" y2="131.345" gradientUnits="userSpaceOnUse"><stop offset="0" stop-color="#FFC200"/><stop offset="1" stop-color="#E31700"/></linearGradient><path fill="url(#SVGID_8_)" fill-rule="evenodd" stroke="#000" stroke-linecap="round" stroke-linejoin="round" stroke-width="4" d="M167.154,61.772c4.541-3.98,5.15-9.89,3.55-15.27c-1.699-5.74-4.839-9.7-9.329-13.43c-4.45-3.71-9.04-6.04-14.79-7.09 c-5.27-0.97-11.32-0.5-15.681,3.32c-4.539,3.98-5.159,9.89-3.56,15.27c1.71,5.74,4.851,9.7,9.34,13.44 c4.46,3.71,9.05,6.04,14.8,7.09C156.755,66.062,162.795,65.592,167.154,61.772z" clip-rule="evenodd"/><linearGradient id="SVGID_9_" x1="103.233" x2="204.483" y1="12.793" y2="141.043" gradientUnits="userSpaceOnUse"><stop offset="0" stop-color="#FFC200"/><stop offset="1" stop-color="#E31700"/></linearGradient><path fill="url(#SVGID_9_)" fill-rule="evenodd" stroke="#000" stroke-linecap="round" stroke-linejoin="round" stroke-width="4" d="M126.395,25.242c4.351-3.22,6.31-8,2.54-12.63c-3.04-3.75-8.41-5.75-12.771-6.72c-8.43-1.85-20.819-1.22-28.299,4.33 c-4.34,3.22-6.3,7.98-2.55,12.61c3.05,3.77,8.4,5.77,12.78,6.73C106.525,31.422,118.904,30.792,126.395,25.242z" clip-rule="evenodd"/></g></svg>