<svg xmlns="http://www.w3.org/2000/svg" xmlns:xlink="http://www.w3.org/1999/xlink" width="406.747" height="112.93" x="0" y="0" enable-background="new 0 0 406.747 112.93" version="1.0" viewBox="0 0 406.747 112.93" xml:space="preserve"><g id="Degree5"><g><g><path fill="none" fill-rule="evenodd" stroke="#000" stroke-dasharray=".49 .49" stroke-linecap="round" stroke-linejoin="round" stroke-width=".25" d="M238.711,15.43c1-2.68,1.021-4.99,0.07-7.69" clip-rule="evenodd"/><path fill="none" fill-rule="evenodd" stroke="#000" stroke-dasharray=".49 .49" stroke-linecap="round" stroke-linejoin="round" stroke-width=".25" d="M299.982,22.289c2.56,0.75,4.771,0.65,7.26-0.329" clip-rule="evenodd"/><path fill="none" fill-rule="evenodd" stroke="#000" stroke-dasharray=".49 .49" stroke-linecap="round" stroke-linejoin="round" stroke-width=".25" d="M292.172,8.979c-0.551,2.4-0.381,4.471,0.539,6.75" clip-rule="evenodd"/><path fill="none" fill-rule="evenodd" stroke="#000" stroke-dasharray=".49 .49" stroke-linecap="round" stroke-linejoin="round" stroke-width=".25" d="M292.242,38.689c-0.789,3.08-0.47,5.54,1.1,8.311" clip-rule="evenodd"/><path fill="none" fill-rule="evenodd" stroke="#000" stroke-dasharray=".49 .49" stroke-linecap="round" stroke-linejoin="round" stroke-width=".25" d="M305.942,30.59c-1.93-0.5-3.71-0.5-5.641,0.01" clip-rule="evenodd"/><path fill="none" fill-rule="evenodd" stroke="#000" stroke-dasharray=".49 .49" stroke-linecap="round" stroke-linejoin="round" stroke-width=".25" d="M298.862,44.85c0.68-2.14,0.721-4.069,0.15-6.24" clip-rule="evenodd"/><path fill="none" fill-rule="evenodd" stroke="#000" stroke-dasharray=".49 .49" stroke-linecap="round" stroke-linejoin="round" stroke-width=".25" d="M284.292,52.039c2.101,0.771,4.03,0.9,6.221,0.421" clip-rule="evenodd"/><path fill="none" fill-rule="evenodd" stroke="#000" stroke-dasharray=".49 .49" stroke-linecap="round" stroke-linejoin="round" stroke-width=".25" d="M277.492,67.84c-1.159,3.42-0.9,6.09,0.9,9.21" clip-rule="evenodd"/><path fill="none" fill-rule="evenodd" stroke="#000" stroke-dasharray=".49 .49" stroke-linecap="round" stroke-linejoin="round" stroke-width=".25" d="M291.841,60.84c-2.739-0.96-5.069-0.91-7.77,0.14" clip-rule="evenodd"/><path fill="none" fill-rule="evenodd" stroke="#000" stroke-dasharray=".49 .49" stroke-linecap="round" stroke-linejoin="round" stroke-width=".25" d="M268.692,75.39c0.859-2.31,0.97-4.38,0.35-6.76" clip-rule="evenodd"/><path fill="none" fill-rule="evenodd" stroke="#000" stroke-dasharray=".49 .49" stroke-linecap="round" stroke-linejoin="round" stroke-width=".25" d="M254.662,82.14c1.98,0.649,3.8,0.74,5.841,0.31" clip-rule="evenodd"/><path fill="none" fill-rule="evenodd" stroke="#000" stroke-dasharray=".49 .49" stroke-linecap="round" stroke-linejoin="round" stroke-width=".25" d="M247.142,99.199c-0.54,2.66-0.24,4.87,0.979,7.301" clip-rule="evenodd"/><path fill="none" fill-rule="evenodd" stroke="#000" stroke-dasharray=".49 .49" stroke-linecap="round" stroke-linejoin="round" stroke-width=".25" d="M261.132,90.59c-2.041-0.56-3.891-0.56-5.94,0" clip-rule="evenodd"/><path fill="none" fill-rule="evenodd" stroke="#000" stroke-dasharray=".49 .49" stroke-linecap="round" stroke-linejoin="round" stroke-width=".25" d="M238.801,105.13c0.79-2.271,0.86-4.3,0.24-6.63" clip-rule="evenodd"/><path fill="none" fill-rule="evenodd" stroke="#000" stroke-dasharray=".49 .49" stroke-linecap="round" stroke-linejoin="round" stroke-width=".25" d="M231.042,90.56c-2.689-0.71-4.95-0.521-7.49,0.63" clip-rule="evenodd"/><path fill="none" fill-rule="evenodd" stroke="#000" stroke-dasharray=".49 .49" stroke-linecap="round" stroke-linejoin="round" stroke-width=".25" d="M225.102,22.31c2.21,0.63,4.189,0.609,6.38-0.07" clip-rule="evenodd"/></g><g><polyline fill="none" fill-rule="evenodd" stroke="#000" stroke-dasharray=".99 .99" stroke-linecap="round" stroke-linejoin="round" stroke-width=".5" points="239.422 11.5 228.182 11.5 228.182 22.739" clip-rule="evenodd"/><line x1="291.892" x2="239.422" y1="11.5" y2="11.5" fill="none" fill-rule="evenodd" stroke="#000" stroke-linecap="round" stroke-linejoin="round" stroke-width=".5" clip-rule="evenodd"/><polyline fill="none" fill-rule="evenodd" stroke="#000" stroke-dasharray=".99 .99" stroke-linecap="round" stroke-linejoin="round" stroke-width=".5" points="303.132 22.739 303.132 11.5 291.892 11.5" clip-rule="evenodd"/><line x1="303.132" x2="303.132" y1="30.229" y2="22.739" fill="none" fill-rule="evenodd" stroke="#000" stroke-linecap="round" stroke-linejoin="round" stroke-width=".5" clip-rule="evenodd"/><polyline fill="none" fill-rule="evenodd" stroke="#000" stroke-dasharray=".99 .99" stroke-linecap="round" stroke-linejoin="round" stroke-width=".5" points="299.382 41.479 303.132 41.479 303.132 30.229" clip-rule="evenodd"/><line x1="291.892" x2="299.382" y1="41.479" y2="41.479" fill="none" fill-rule="evenodd" stroke="#000" stroke-dasharray=".99 .99" stroke-linecap="round" stroke-linejoin="round" stroke-width=".5" clip-rule="evenodd"/><polyline fill="none" fill-rule="evenodd" stroke="#000" stroke-dasharray=".99 .99" stroke-linecap="round" stroke-linejoin="round" stroke-width=".5" points="288.142 52.72 288.142 41.479 291.892 41.479" clip-rule="evenodd"/><line x1="288.142" x2="288.142" y1="60.21" y2="52.72" fill="none" fill-rule="evenodd" stroke="#000" stroke-linecap="round" stroke-linejoin="round" stroke-width=".5" clip-rule="evenodd"/><polyline fill="none" fill-rule="evenodd" stroke="#000" stroke-dasharray=".99 .99" stroke-linecap="round" stroke-linejoin="round" stroke-width=".5" points="276.902 71.46 288.142 71.46 288.142 60.21" clip-rule="evenodd"/><line x1="269.402" x2="276.902" y1="71.46" y2="71.46" fill="none" fill-rule="evenodd" stroke="#000" stroke-linecap="round" stroke-linejoin="round" stroke-width=".5" clip-rule="evenodd"/><polyline fill="none" fill-rule="evenodd" stroke="#000" stroke-dasharray=".99 .99" stroke-linecap="round" stroke-linejoin="round" stroke-width=".5" points="258.162 82.699 258.162 71.46 269.402 71.46" clip-rule="evenodd"/><line x1="258.162" x2="258.162" y1="90.189" y2="82.699" fill="none" fill-rule="evenodd" stroke="#000" stroke-linecap="round" stroke-linejoin="round" stroke-width=".5" clip-rule="evenodd"/><polyline fill="none" fill-rule="evenodd" stroke="#000" stroke-dasharray=".99 .99" stroke-linecap="round" stroke-linejoin="round" stroke-width=".5" points="246.922 101.43 258.162 101.43 258.162 90.189" clip-rule="evenodd"/><line x1="239.422" x2="246.922" y1="101.43" y2="101.43" fill="none" fill-rule="evenodd" stroke="#000" stroke-linecap="round" stroke-linejoin="round" stroke-width=".5" clip-rule="evenodd"/><polyline fill="none" fill-rule="evenodd" stroke="#000" stroke-dasharray=".99 .99" stroke-linecap="round" stroke-linejoin="round" stroke-width=".5" points="228.182 90.189 228.182 101.43 239.422 101.43" clip-rule="evenodd"/><line x1="228.182" x2="228.182" y1="22.739" y2="90.189" fill="none" fill-rule="evenodd" stroke="#000" stroke-linecap="round" stroke-linejoin="round" stroke-width=".5" clip-rule="evenodd"/></g><path fill="#D90000" fill-rule="evenodd" stroke="#000" stroke-linecap="round" stroke-linejoin="round" stroke-width=".5" d="M296.833,40.28c0-0.851-0.351-1.2-1.2-1.2c-0.841,0-1.2,0.35-1.2,1.2c0,0.839,0.359,1.199,1.2,1.199 C296.482,41.479,296.833,41.119,296.833,40.28z" clip-rule="evenodd"/><path fill="#D90000" fill-rule="evenodd" stroke="#000" stroke-linecap="round" stroke-linejoin="round" stroke-width=".5" d="M296.833,42.64c0-0.851-0.351-1.2-1.2-1.2c-0.841,0-1.2,0.35-1.2,1.2c0,0.85,0.359,1.2,1.2,1.2 C296.482,43.84,296.833,43.489,296.833,42.64z" clip-rule="evenodd"/><path fill="#FFF" fill-rule="evenodd" stroke="#000" stroke-linecap="round" stroke-linejoin="round" stroke-width=".5" d="M240.622,11.5c0-0.851-0.35-1.2-1.199-1.2c-0.851,0-1.2,0.35-1.2,1.2c0,0.85,0.35,1.2,1.2,1.2 C240.272,12.7,240.622,12.35,240.622,11.5z" clip-rule="evenodd"/><path fill="#FFF" fill-rule="evenodd" stroke="#000" stroke-linecap="round" stroke-linejoin="round" stroke-width=".5" d="M293.083,11.5c0-0.851-0.351-1.2-1.19-1.2c-0.851,0-1.2,0.35-1.2,1.2c0,0.85,0.35,1.2,1.2,1.2 C292.732,12.7,293.083,12.35,293.083,11.5z" clip-rule="evenodd"/><path fill-rule="evenodd" d="M304.333,11.5c0-0.851-0.351-1.2-1.2-1.2c-0.851,0-1.2,0.35-1.2,1.2 c0,0.85,0.35,1.2,1.2,1.2C303.982,12.7,304.333,12.35,304.333,11.5z" clip-rule="evenodd"/><path fill="#FFF" fill-rule="evenodd" stroke="#000" stroke-linecap="round" stroke-linejoin="round" stroke-width=".5" d="M304.333,22.739c0-0.85-0.351-1.2-1.2-1.2c-0.851,0-1.2,0.351-1.2,1.2c0,0.851,0.35,1.2,1.2,1.2 C303.982,23.939,304.333,23.59,304.333,22.739z" clip-rule="evenodd"/><path fill="#FFF" fill-rule="evenodd" stroke="#000" stroke-linecap="round" stroke-linejoin="round" stroke-width=".5" d="M304.333,30.229c0-0.84-0.351-1.19-1.2-1.19c-0.851,0-1.2,0.351-1.2,1.19c0,0.851,0.35,1.2,1.2,1.2 C303.982,31.43,304.333,31.08,304.333,30.229z" clip-rule="evenodd"/><path fill-rule="evenodd" d="M304.333,41.479c0-0.85-0.351-1.199-1.2-1.199c-0.851,0-1.2,0.35-1.2,1.199 c0,0.84,0.35,1.189,1.2,1.189C303.982,42.669,304.333,42.319,304.333,41.479z" clip-rule="evenodd"/><path fill-rule="evenodd" d="M289.341,41.479c0-0.85-0.35-1.199-1.199-1.199c-0.851,0-1.2,0.35-1.2,1.199 c0,0.84,0.35,1.189,1.2,1.189C288.992,42.669,289.341,42.319,289.341,41.479z" clip-rule="evenodd"/><path fill="#FFF" fill-rule="evenodd" stroke="#000" stroke-linecap="round" stroke-linejoin="round" stroke-width=".5" d="M289.341,52.72c0-0.851-0.35-1.2-1.199-1.2c-0.851,0-1.2,0.35-1.2,1.2c0,0.85,0.35,1.199,1.2,1.199 C288.992,53.919,289.341,53.569,289.341,52.72z" clip-rule="evenodd"/><path fill="#FFF" fill-rule="evenodd" stroke="#000" stroke-linecap="round" stroke-linejoin="round" stroke-width=".5" d="M289.341,60.21c0-0.841-0.35-1.2-1.199-1.2c-0.851,0-1.2,0.359-1.2,1.2c0,0.85,0.35,1.2,1.2,1.2 C288.992,61.41,289.341,61.06,289.341,60.21z" clip-rule="evenodd"/><path fill-rule="evenodd" d="M289.341,71.46c0-0.851-0.35-1.2-1.199-1.2c-0.851,0-1.2,0.35-1.2,1.2 c0,0.84,0.35,1.2,1.2,1.2C288.992,72.66,289.341,72.3,289.341,71.46z" clip-rule="evenodd"/><path fill="#FFF" fill-rule="evenodd" stroke="#000" stroke-linecap="round" stroke-linejoin="round" stroke-width=".5" d="M278.102,71.46c0-0.851-0.35-1.2-1.2-1.2s-1.199,0.35-1.199,1.2c0,0.84,0.349,1.2,1.199,1.2S278.102,72.3,278.102,71.46z" clip-rule="evenodd"/><path fill="#FFF" fill-rule="evenodd" stroke="#000" stroke-linecap="round" stroke-linejoin="round" stroke-width=".5" d="M270.602,71.46c0-0.851-0.35-1.2-1.2-1.2c-0.84,0-1.199,0.35-1.199,1.2c0,0.84,0.359,1.2,1.199,1.2 C270.252,72.66,270.602,72.3,270.602,71.46z" clip-rule="evenodd"/><path fill-rule="evenodd" d="M259.362,71.46c0-0.851-0.35-1.2-1.2-1.2c-0.85,0-1.2,0.35-1.2,1.2 c0,0.84,0.351,1.2,1.2,1.2C259.012,72.66,259.362,72.3,259.362,71.46z" clip-rule="evenodd"/><path fill="#FFF" fill-rule="evenodd" stroke="#000" stroke-linecap="round" stroke-linejoin="round" stroke-width=".5" d="M259.362,82.699c0-0.85-0.35-1.199-1.2-1.199c-0.85,0-1.2,0.35-1.2,1.199c0,0.84,0.351,1.2,1.2,1.2 C259.012,83.899,259.362,83.539,259.362,82.699z" clip-rule="evenodd"/><path fill="#FFF" fill-rule="evenodd" stroke="#000" stroke-linecap="round" stroke-linejoin="round" stroke-width=".5" d="M259.362,90.189c0-0.85-0.35-1.2-1.2-1.2c-0.85,0-1.2,0.351-1.2,1.2s0.351,1.2,1.2,1.2 C259.012,91.39,259.362,91.039,259.362,90.189z" clip-rule="evenodd"/><path fill-rule="evenodd" d="M259.362,101.43c0-0.84-0.35-1.2-1.2-1.2c-0.85,0-1.2,0.36-1.2,1.2 c0,0.851,0.351,1.2,1.2,1.2C259.012,102.63,259.362,102.28,259.362,101.43z" clip-rule="evenodd"/><path fill="#FFF" fill-rule="evenodd" stroke="#000" stroke-linecap="round" stroke-linejoin="round" stroke-width=".5" d="M248.122,101.43c0-0.84-0.35-1.2-1.199-1.2c-0.851,0-1.2,0.36-1.2,1.2c0,0.851,0.35,1.2,1.2,1.2 C247.772,102.63,248.122,102.28,248.122,101.43z" clip-rule="evenodd"/><path fill="#FFF" fill-rule="evenodd" stroke="#000" stroke-linecap="round" stroke-linejoin="round" stroke-width=".5" d="M240.622,101.43c0-0.84-0.35-1.2-1.199-1.2c-0.851,0-1.2,0.36-1.2,1.2c0,0.851,0.35,1.2,1.2,1.2 C240.272,102.63,240.622,102.28,240.622,101.43z" clip-rule="evenodd"/><path fill-rule="evenodd" d="M229.382,101.43c0-0.84-0.351-1.2-1.2-1.2s-1.2,0.36-1.2,1.2 c0,0.851,0.351,1.2,1.2,1.2S229.382,102.28,229.382,101.43z" clip-rule="evenodd"/><path fill="#FFF" fill-rule="evenodd" stroke="#000" stroke-linecap="round" stroke-linejoin="round" stroke-width=".5" d="M229.382,90.189c0-0.85-0.351-1.2-1.2-1.2s-1.2,0.351-1.2,1.2s0.351,1.2,1.2,1.2S229.382,91.039,229.382,90.189z" clip-rule="evenodd"/><path fill="#FFF" fill-rule="evenodd" stroke="#000" stroke-linecap="round" stroke-linejoin="round" stroke-width=".5" d="M229.382,22.739c0-0.85-0.351-1.2-1.2-1.2s-1.2,0.351-1.2,1.2c0,0.851,0.351,1.2,1.2,1.2S229.382,23.59,229.382,22.739z" clip-rule="evenodd"/><path fill-rule="evenodd" d="M229.382,11.5c0-0.851-0.351-1.2-1.2-1.2s-1.2,0.35-1.2,1.2 c0,0.85,0.351,1.2,1.2,1.2S229.382,12.35,229.382,11.5z" clip-rule="evenodd"/></g><path fill="#E3E3E3" fill-rule="evenodd" stroke="#000" stroke-dasharray="1 1" stroke-linecap="round" stroke-linejoin="round" stroke-width=".5" d="M131.112,11.5c0-6.211-5.04-11.25-11.24-11.25c-6.21,0-11.25,5.039-11.25,11.25c0,6.21,5.04,11.239,11.25,11.239 C126.072,22.739,131.112,17.71,131.112,11.5z" clip-rule="evenodd"/><path fill="#E3E3E3" fill-rule="evenodd" stroke="#000" stroke-dasharray="1 1" stroke-linecap="round" stroke-linejoin="round" stroke-width=".5" d="M206.062,11.5c0-6.211-5.04-11.25-11.25-11.25s-11.24,5.039-11.24,11.25c0,6.21,5.03,11.239,11.24,11.239 S206.062,17.71,206.062,11.5z" clip-rule="evenodd"/><radialGradient id="SVGID_1_" cx="183.692" cy="42.02" r="24.772" gradientUnits="userSpaceOnUse"><stop offset="0" stop-color="#D90000"/><stop offset="1" stop-color="#E3E3E3"/></radialGradient><path fill="url(#SVGID_1_)" fill-rule="evenodd" stroke="#000" stroke-dasharray="1 1" stroke-linecap="round" stroke-linejoin="round" stroke-width=".5" d="M206.062,41.479c0-6.21-5.04-11.25-11.25-11.25s-11.24,5.04-11.24,11.25s5.03,11.24,11.24,11.24S206.062,47.689,206.062,41.479z" clip-rule="evenodd"/><radialGradient id="SVGID_2_" cx="190.742" cy="41.27" r="22.952" gradientUnits="userSpaceOnUse"><stop offset="0" stop-color="#E00000"/><stop offset="1" stop-color="#E3E3E3"/></radialGradient><path fill="url(#SVGID_2_)" fill-rule="evenodd" stroke="#000" stroke-dasharray="1 1" stroke-linecap="round" stroke-linejoin="round" stroke-width=".5" d="M191.072,41.479c0-6.21-5.04-11.25-11.25-11.25c-6.2,0-11.24,5.04-11.24,11.25s5.04,11.24,11.24,11.24 C186.032,52.72,191.072,47.689,191.072,41.479z" clip-rule="evenodd"/><path fill="#E3E3E3" fill-rule="evenodd" stroke="#000" stroke-dasharray="1 1" stroke-linecap="round" stroke-linejoin="round" stroke-width=".5" d="M191.072,71.46c0-6.21-5.04-11.25-11.25-11.25c-6.2,0-11.24,5.04-11.24,11.25c0,6.2,5.04,11.239,11.24,11.239 C186.032,82.699,191.072,77.66,191.072,71.46z" clip-rule="evenodd"/><path fill="#E3E3E3" fill-rule="evenodd" stroke="#000" stroke-dasharray="1 1" stroke-linecap="round" stroke-linejoin="round" stroke-width=".5" d="M161.092,71.46c0-6.21-5.04-11.25-11.25-11.25s-11.24,5.04-11.24,11.25c0,6.2,5.03,11.239,11.24,11.239 S161.092,77.66,161.092,71.46z" clip-rule="evenodd"/><path fill="#E3E3E3" fill-rule="evenodd" stroke="#000" stroke-dasharray="1 1" stroke-linecap="round" stroke-linejoin="round" stroke-width=".5" d="M161.092,101.43c0-6.21-5.04-11.24-11.25-11.24s-11.24,5.03-11.24,11.24s5.03,11.25,11.24,11.25S161.092,107.64,161.092,101.43z" clip-rule="evenodd"/><path fill="#E3E3E3" fill-rule="evenodd" stroke="#000" stroke-dasharray="1 1" stroke-linecap="round" stroke-linejoin="round" stroke-width=".5" d="M131.112,101.43c0-6.21-5.04-11.24-11.24-11.24c-6.21,0-11.25,5.03-11.25,11.24s5.04,11.25,11.25,11.25 C126.072,112.68,131.112,107.64,131.112,101.43z" clip-rule="evenodd"/><polygon fill="none" fill-rule="evenodd" stroke="#000" stroke-linecap="round" points="119.872 11.5 119.872 101.43 149.842 101.43 149.842 71.46 179.822 71.46 179.822 41.479 194.812 41.479 194.812 11.5" clip-rule="evenodd"/><g opacity=".5"><line x1="5.992" x2="90.022" y1="11.5" y2="11.5" fill="none" fill-rule="evenodd" stroke="#000" stroke-linecap="round" stroke-linejoin="round" stroke-width=".25" clip-rule="evenodd"/><line x1="5.992" x2="90.022" y1="86.439" y2="86.439" fill="none" fill-rule="evenodd" stroke="#000" stroke-linecap="round" stroke-linejoin="round" stroke-width=".25" clip-rule="evenodd"/><line x1="5.992" x2="90.022" y1="71.46" y2="71.46" fill="none" fill-rule="evenodd" stroke="#000" stroke-linecap="round" stroke-linejoin="round" stroke-width=".25" clip-rule="evenodd"/><line x1="5.992" x2="90.022" y1="101.43" y2="101.43" fill="none" fill-rule="evenodd" stroke="#000" stroke-linecap="round" stroke-linejoin="round" stroke-width=".25" clip-rule="evenodd"/><line x1="5.992" x2="90.022" y1="56.47" y2="56.47" fill="none" fill-rule="evenodd" stroke="#000" stroke-linecap="round" stroke-linejoin="round" stroke-width=".25" clip-rule="evenodd"/><line x1="5.992" x2="90.022" y1="41.479" y2="41.479" fill="none" fill-rule="evenodd" stroke="#000" stroke-linecap="round" stroke-linejoin="round" stroke-width=".25" clip-rule="evenodd"/><line x1="5.992" x2="90.022" y1="26.489" y2="26.489" fill="none" fill-rule="evenodd" stroke="#000" stroke-linecap="round" stroke-linejoin="round" stroke-width=".25" clip-rule="evenodd"/></g><g opacity=".5"><line x1="84.682" x2="84.682" y1="4.95" y2="105.03" fill="none" fill-rule="evenodd" stroke="#000" stroke-linecap="round" stroke-linejoin="round" stroke-width=".25" clip-rule="evenodd"/><line x1="69.692" x2="69.692" y1="4.95" y2="105.03" fill="none" fill-rule="evenodd" stroke="#000" stroke-linecap="round" stroke-linejoin="round" stroke-width=".25" clip-rule="evenodd"/><line x1="54.702" x2="54.702" y1="4.95" y2="105.03" fill="none" fill-rule="evenodd" stroke="#000" stroke-linecap="round" stroke-linejoin="round" stroke-width=".25" clip-rule="evenodd"/><line x1="39.712" x2="39.712" y1="4.95" y2="105.03" fill="none" fill-rule="evenodd" stroke="#000" stroke-linecap="round" stroke-linejoin="round" stroke-width=".25" clip-rule="evenodd"/><line x1="24.732" x2="24.732" y1="4.95" y2="105.03" fill="none" fill-rule="evenodd" stroke="#000" stroke-linecap="round" stroke-linejoin="round" stroke-width=".25" clip-rule="evenodd"/><line x1="9.742" x2="9.742" y1="4.95" y2="105.03" fill="none" fill-rule="evenodd" stroke="#000" stroke-linecap="round" stroke-linejoin="round" stroke-width=".25" clip-rule="evenodd"/></g><polygon fill="none" fill-rule="evenodd" stroke="#000" stroke-linecap="round" points="9.742 11.5 9.742 101.43 39.712 101.43 39.712 71.46 69.692 71.46 69.692 41.479 84.682 41.479 84.682 11.5" clip-rule="evenodd"/><g opacity=".5"><text font-family="'Helvetica'" font-size="6" transform="matrix(1 0 0 1 8.042 110.4199)">0</text><text font-family="'Helvetica'" font-size="6" transform="matrix(1 0 0 1 23.062 110.4199)">1</text><text font-family="'Helvetica'" font-size="6" transform="matrix(1 0 0 1 38.082 110.4199)">2</text><text font-family="'Helvetica'" font-size="6" transform="matrix(1 0 0 1 52.9521 110.4199)">3</text><text font-family="'Helvetica'" font-size="6" transform="matrix(1 0 0 1 68.1021 110.4199)">4</text><text font-family="'Helvetica'" font-size="6" transform="matrix(1 0 0 1 83.002 110.4199)">5</text></g><g opacity=".5"><text font-family="'Helvetica'" font-size="6" transform="matrix(0 -1 1 0 5.022 102.9492)">0</text><text font-family="'Helvetica'" font-size="6" transform="matrix(0 -1 1 0 5.022 87.9297)">1</text><text font-family="'Helvetica'" font-size="6" transform="matrix(0 -1 1 0 5.022 72.9102)">2</text><text font-family="'Helvetica'" font-size="6" transform="matrix(0 -1 1 0 5.022 58.0391)">3</text><text font-family="'Helvetica'" font-size="6" transform="matrix(0 -1 1 0 5.022 42.8896)">4</text><text font-family="'Helvetica'" font-size="6" transform="matrix(0 -1 1 0 5.022 27.9902)">5</text><text font-family="'Helvetica'" font-size="6" transform="matrix(0 -1 1 0 5.022 13.25)">6</text></g><g><path fill="none" fill-rule="evenodd" stroke="#000" stroke-dasharray=".49 .49" stroke-linecap="round" stroke-linejoin="round" stroke-width=".25" d="M338.091,15.43c1-2.68,1.021-4.99,0.07-7.69" clip-rule="evenodd"/><path fill="none" fill-rule="evenodd" stroke="#000" stroke-dasharray=".49 .49" stroke-linecap="round" stroke-linejoin="round" stroke-width=".25" d="M399.352,22.289c2.57,0.75,4.77,0.65,7.27-0.329" clip-rule="evenodd"/><path fill="none" fill-rule="evenodd" stroke="#000" stroke-dasharray=".49 .49" stroke-linecap="round" stroke-linejoin="round" stroke-width=".25" d="M391.551,8.979c-0.549,2.4-0.39,4.471,0.54,6.75" clip-rule="evenodd"/><path fill="none" fill-rule="evenodd" stroke="#000" stroke-dasharray=".49 .49" stroke-linecap="round" stroke-linejoin="round" stroke-width=".25" d="M391.612,38.689c-0.779,3.08-0.46,5.54,1.1,8.311" clip-rule="evenodd"/><path fill="none" fill-rule="evenodd" stroke="#000" stroke-dasharray=".49 .49" stroke-linecap="round" stroke-linejoin="round" stroke-width=".25" d="M405.322,30.59c-1.939-0.5-3.71-0.5-5.64,0.01" clip-rule="evenodd"/><path fill="none" fill-rule="evenodd" stroke="#000" stroke-dasharray=".49 .49" stroke-linecap="round" stroke-linejoin="round" stroke-width=".25" d="M398.242,44.85c0.67-2.14,0.72-4.069,0.15-6.24" clip-rule="evenodd"/><path fill="none" fill-rule="evenodd" stroke="#000" stroke-dasharray=".49 .49" stroke-linecap="round" stroke-linejoin="round" stroke-width=".25" d="M383.662,52.039c2.11,0.771,4.04,0.9,6.23,0.421" clip-rule="evenodd"/><path fill="none" fill-rule="evenodd" stroke="#000" stroke-dasharray=".49 .49" stroke-linecap="round" stroke-linejoin="round" stroke-width=".25" d="M376.872,67.84c-1.16,3.42-0.899,6.09,0.9,9.21" clip-rule="evenodd"/><path fill="none" fill-rule="evenodd" stroke="#000" stroke-dasharray=".49 .49" stroke-linecap="round" stroke-linejoin="round" stroke-width=".25" d="M391.222,60.84c-2.74-0.96-5.07-0.91-7.771,0.14" clip-rule="evenodd"/><path fill="none" fill-rule="evenodd" stroke="#000" stroke-dasharray=".49 .49" stroke-linecap="round" stroke-linejoin="round" stroke-width=".25" d="M368.072,75.39c0.86-2.31,0.97-4.38,0.351-6.76" clip-rule="evenodd"/><path fill="none" fill-rule="evenodd" stroke="#000" stroke-dasharray=".49 .49" stroke-linecap="round" stroke-linejoin="round" stroke-width=".25" d="M354.042,82.14c1.98,0.649,3.8,0.74,5.83,0.31" clip-rule="evenodd"/><path fill="none" fill-rule="evenodd" stroke="#000" stroke-dasharray=".49 .49" stroke-linecap="round" stroke-linejoin="round" stroke-width=".25" d="M346.522,99.199c-0.54,2.66-0.24,4.87,0.98,7.301" clip-rule="evenodd"/><path fill="none" fill-rule="evenodd" stroke="#000" stroke-dasharray=".49 .49" stroke-linecap="round" stroke-linejoin="round" stroke-width=".25" d="M360.512,90.59c-2.04-0.56-3.9-0.56-5.94,0" clip-rule="evenodd"/><path fill="none" fill-rule="evenodd" stroke="#000" stroke-dasharray=".49 .49" stroke-linecap="round" stroke-linejoin="round" stroke-width=".25" d="M338.172,105.13c0.8-2.271,0.869-4.3,0.239-6.63" clip-rule="evenodd"/><path fill="none" fill-rule="evenodd" stroke="#000" stroke-dasharray=".49 .49" stroke-linecap="round" stroke-linejoin="round" stroke-width=".25" d="M330.422,90.56c-2.7-0.71-4.961-0.521-7.5,0.63" clip-rule="evenodd"/><path fill="none" fill-rule="evenodd" stroke="#000" stroke-dasharray=".49 .49" stroke-linecap="round" stroke-linejoin="round" stroke-width=".25" d="M324.482,22.31c2.21,0.63,4.18,0.609,6.38-0.07" clip-rule="evenodd"/></g><g><polyline fill="none" fill-rule="evenodd" stroke="#000" stroke-dasharray=".99 .99" stroke-linecap="round" stroke-linejoin="round" stroke-width=".5" points="338.801 11.5 327.562 11.5 327.562 22.739" clip-rule="evenodd"/><line x1="391.272" x2="338.801" y1="11.5" y2="11.5" fill="none" fill-rule="evenodd" stroke="#000" stroke-linecap="round" stroke-linejoin="round" stroke-width=".5" clip-rule="evenodd"/><polyline fill="none" fill-rule="evenodd" stroke="#000" stroke-dasharray=".99 .99" stroke-linecap="round" stroke-linejoin="round" stroke-width=".5" points="402.512 22.739 402.512 11.5 391.272 11.5" clip-rule="evenodd"/><line x1="402.512" x2="402.512" y1="30.229" y2="22.739" fill="none" fill-rule="evenodd" stroke="#000" stroke-linecap="round" stroke-linejoin="round" stroke-width=".5" clip-rule="evenodd"/><polyline fill="none" fill-rule="evenodd" stroke="#000" stroke-dasharray=".99 .99" stroke-linecap="round" stroke-linejoin="round" stroke-width=".5" points="398.762 41.479 402.512 41.479 402.512 30.229" clip-rule="evenodd"/><line x1="391.272" x2="398.762" y1="41.479" y2="41.479" fill="none" fill-rule="evenodd" stroke="#000" stroke-dasharray=".99 .99" stroke-linecap="round" stroke-linejoin="round" stroke-width=".5" clip-rule="evenodd"/><polyline fill="none" fill-rule="evenodd" stroke="#000" stroke-dasharray=".99 .99" stroke-linecap="round" stroke-linejoin="round" stroke-width=".5" points="387.522 52.72 387.522 41.479 391.272 41.479" clip-rule="evenodd"/><line x1="387.522" x2="387.522" y1="60.21" y2="52.72" fill="none" fill-rule="evenodd" stroke="#000" stroke-linecap="round" stroke-linejoin="round" stroke-width=".5" clip-rule="evenodd"/><polyline fill="none" fill-rule="evenodd" stroke="#000" stroke-dasharray=".99 .99" stroke-linecap="round" stroke-linejoin="round" stroke-width=".5" points="376.282 71.46 387.522 71.46 387.522 60.21" clip-rule="evenodd"/><line x1="368.782" x2="376.282" y1="71.46" y2="71.46" fill="none" fill-rule="evenodd" stroke="#000" stroke-linecap="round" stroke-linejoin="round" stroke-width=".5" clip-rule="evenodd"/><polyline fill="none" fill-rule="evenodd" stroke="#000" stroke-dasharray=".99 .99" stroke-linecap="round" stroke-linejoin="round" stroke-width=".5" points="357.542 82.699 357.542 71.46 368.782 71.46" clip-rule="evenodd"/><line x1="357.542" x2="357.542" y1="90.189" y2="82.699" fill="none" fill-rule="evenodd" stroke="#000" stroke-linecap="round" stroke-linejoin="round" stroke-width=".5" clip-rule="evenodd"/><polyline fill="none" fill-rule="evenodd" stroke="#000" stroke-dasharray=".99 .99" stroke-linecap="round" stroke-linejoin="round" stroke-width=".5" points="346.301 101.43 357.542 101.43 357.542 90.189" clip-rule="evenodd"/><line x1="338.801" x2="346.301" y1="101.43" y2="101.43" fill="none" fill-rule="evenodd" stroke="#000" stroke-linecap="round" stroke-linejoin="round" stroke-width=".5" clip-rule="evenodd"/><polyline fill="none" fill-rule="evenodd" stroke="#000" stroke-dasharray=".99 .99" stroke-linecap="round" stroke-linejoin="round" stroke-width=".5" points="327.562 90.189 327.562 101.43 338.801 101.43" clip-rule="evenodd"/><line x1="327.562" x2="327.562" y1="22.739" y2="90.189" fill="none" fill-rule="evenodd" stroke="#000" stroke-linecap="round" stroke-linejoin="round" stroke-width=".5" clip-rule="evenodd"/></g><path fill="#FFF" fill-rule="evenodd" stroke="#000" stroke-linecap="round" stroke-linejoin="round" stroke-width=".5" d="M396.211,41.439c0-0.85-0.35-1.2-1.199-1.2c-0.851,0-1.2,0.351-1.2,1.2s0.35,1.2,1.2,1.2 C395.862,42.64,396.211,42.289,396.211,41.439z" clip-rule="evenodd"/><path fill="#FFF" fill-rule="evenodd" stroke="#000" stroke-linecap="round" stroke-linejoin="round" stroke-width=".5" d="M334.452,11.5c0-0.851-0.35-1.2-1.199-1.2c-0.851,0-1.201,0.35-1.201,1.2c0,0.85,0.351,1.2,1.201,1.2 C334.102,12.7,334.452,12.35,334.452,11.5z" clip-rule="evenodd"/><path fill="#FFF" fill-rule="evenodd" stroke="#000" stroke-linecap="round" stroke-linejoin="round" stroke-width=".5" d="M397.882,11.5c0-0.851-0.36-1.2-1.2-1.2c-0.85,0-1.2,0.35-1.2,1.2c0,0.85,0.351,1.2,1.2,1.2 C397.522,12.7,397.882,12.35,397.882,11.5z" clip-rule="evenodd"/><path fill="#FFF" fill-rule="evenodd" stroke="#000" stroke-linecap="round" stroke-linejoin="round" stroke-width=".5" d="M403.702,17.1c0-0.85-0.35-1.2-1.189-1.2c-0.851,0-1.2,0.351-1.2,1.2c0,0.851,0.35,1.2,1.2,1.2 C403.352,18.3,403.702,17.95,403.702,17.1z" clip-rule="evenodd"/><path fill="#FFF" fill-rule="evenodd" stroke="#000" stroke-linecap="round" stroke-linejoin="round" stroke-width=".5" d="M403.702,35.83c0-0.841-0.35-1.19-1.189-1.19c-0.851,0-1.2,0.35-1.2,1.19c0,0.85,0.35,1.2,1.2,1.2 C403.352,37.03,403.702,36.68,403.702,35.83z" clip-rule="evenodd"/><path fill="#FFF" fill-rule="evenodd" stroke="#000" stroke-linecap="round" stroke-linejoin="round" stroke-width=".5" d="M388.722,47.09c0-0.851-0.351-1.2-1.2-1.2s-1.2,0.35-1.2,1.2c0,0.85,0.351,1.199,1.2,1.199S388.722,47.939,388.722,47.09z" clip-rule="evenodd"/><path fill="#FFF" fill-rule="evenodd" stroke="#000" stroke-linecap="round" stroke-linejoin="round" stroke-width=".5" d="M388.722,65.88c0-0.85-0.351-1.2-1.2-1.2s-1.2,0.351-1.2,1.2s0.351,1.2,1.2,1.2S388.722,66.729,388.722,65.88z" clip-rule="evenodd"/><path fill="#FFF" fill-rule="evenodd" stroke="#000" stroke-linecap="round" stroke-linejoin="round" stroke-width=".5" d="M382.812,71.46c0-0.851-0.351-1.2-1.2-1.2s-1.2,0.35-1.2,1.2c0,0.84,0.351,1.2,1.2,1.2S382.812,72.3,382.812,71.46z" clip-rule="evenodd"/><path fill="#FFF" fill-rule="evenodd" stroke="#000" stroke-linecap="round" stroke-linejoin="round" stroke-width=".5" d="M364.642,71.46c0-0.851-0.36-1.2-1.2-1.2c-0.851,0-1.2,0.35-1.2,1.2c0,0.84,0.35,1.2,1.2,1.2 C364.282,72.66,364.642,72.3,364.642,71.46z" clip-rule="evenodd"/><path fill="#FFF" fill-rule="evenodd" stroke="#000" stroke-linecap="round" stroke-linejoin="round" stroke-width=".5" d="M358.742,76.899c0-0.85-0.35-1.2-1.2-1.2c-0.85,0-1.2,0.351-1.2,1.2c0,0.851,0.351,1.2,1.2,1.2 C358.392,78.1,358.742,77.75,358.742,76.899z" clip-rule="evenodd"/><path fill="#FFF" fill-rule="evenodd" stroke="#000" stroke-linecap="round" stroke-linejoin="round" stroke-width=".5" d="M358.742,95.919c0-0.85-0.35-1.199-1.2-1.199c-0.85,0-1.2,0.35-1.2,1.199c0,0.841,0.351,1.2,1.2,1.2 C358.392,97.119,358.742,96.76,358.742,95.919z" clip-rule="evenodd"/><path fill="#FFF" fill-rule="evenodd" stroke="#000" stroke-linecap="round" stroke-linejoin="round" stroke-width=".5" d="M352.612,101.43c0-0.84-0.35-1.2-1.2-1.2c-0.85,0-1.2,0.36-1.2,1.2c0,0.851,0.351,1.2,1.2,1.2 C352.262,102.63,352.612,102.28,352.612,101.43z" clip-rule="evenodd"/><path fill="#FFF" fill-rule="evenodd" stroke="#000" stroke-linecap="round" stroke-linejoin="round" stroke-width=".5" d="M334.132,101.43c0-0.84-0.351-1.2-1.2-1.2s-1.2,0.36-1.2,1.2c0,0.851,0.351,1.2,1.2,1.2S334.132,102.28,334.132,101.43z" clip-rule="evenodd"/><path fill="#FFF" fill-rule="evenodd" stroke="#000" stroke-linecap="round" stroke-linejoin="round" stroke-width=".5" d="M328.762,95.6c0-0.85-0.351-1.2-1.2-1.2c-0.851,0-1.2,0.351-1.2,1.2s0.35,1.2,1.2,1.2C328.412,96.8,328.762,96.449,328.762,95.6z" clip-rule="evenodd"/><path fill="#FFF" fill-rule="evenodd" stroke="#000" stroke-linecap="round" stroke-linejoin="round" stroke-width=".5" d="M328.762,17.6c0-0.85-0.351-1.2-1.2-1.2c-0.851,0-1.2,0.351-1.2,1.2c0,0.84,0.35,1.189,1.2,1.189 C328.412,18.789,328.762,18.439,328.762,17.6z" clip-rule="evenodd"/><path fill="#FFF" fill-rule="evenodd" stroke="#000" stroke-linecap="round" stroke-linejoin="round" stroke-width=".5" d="M343.812,101.43c0-0.84-0.36-1.2-1.2-1.2c-0.85,0-1.2,0.36-1.2,1.2c0,0.851,0.351,1.2,1.2,1.2 C343.452,102.63,343.812,102.28,343.812,101.43z" clip-rule="evenodd"/><path fill="#FFF" fill-rule="evenodd" stroke="#000" stroke-linecap="round" stroke-linejoin="round" stroke-width=".5" d="M358.742,86.619c0-0.85-0.35-1.2-1.2-1.2c-0.85,0-1.2,0.351-1.2,1.2c0,0.851,0.351,1.2,1.2,1.2 C358.392,87.819,358.742,87.47,358.742,86.619z" clip-rule="evenodd"/><path fill="#FFF" fill-rule="evenodd" stroke="#000" stroke-linecap="round" stroke-linejoin="round" stroke-width=".5" d="M373.591,71.46c0-0.851-0.35-1.2-1.199-1.2c-0.851,0-1.2,0.35-1.2,1.2c0,0.84,0.35,1.2,1.2,1.2 C373.242,72.66,373.591,72.3,373.591,71.46z" clip-rule="evenodd"/><path fill="#FFF" fill-rule="evenodd" stroke="#000" stroke-linecap="round" stroke-linejoin="round" stroke-width=".5" d="M388.722,56.419c0-0.85-0.351-1.199-1.2-1.199s-1.2,0.35-1.2,1.199c0,0.851,0.351,1.2,1.2,1.2S388.722,57.27,388.722,56.419z" clip-rule="evenodd"/><path fill="#FFF" fill-rule="evenodd" stroke="#000" stroke-linecap="round" stroke-linejoin="round" stroke-width=".5" d="M403.702,26.439c0-0.85-0.35-1.2-1.189-1.2c-0.851,0-1.2,0.351-1.2,1.2s0.35,1.2,1.2,1.2 C403.352,27.64,403.702,27.289,403.702,26.439z" clip-rule="evenodd"/><path fill="#FFF" fill-rule="evenodd" stroke="#000" stroke-linecap="round" stroke-linejoin="round" stroke-width=".5" d="M367.402,11.5c0-0.851-0.351-1.2-1.2-1.2s-1.199,0.35-1.199,1.2c0,0.85,0.35,1.2,1.199,1.2S367.402,12.35,367.402,11.5z" clip-rule="evenodd"/><path fill="#FFF" fill-rule="evenodd" stroke="#000" stroke-linecap="round" stroke-linejoin="round" stroke-width=".5" d="M328.762,56.56c0-0.85-0.351-1.2-1.2-1.2c-0.851,0-1.2,0.351-1.2,1.2c0,0.851,0.35,1.2,1.2,1.2 C328.412,57.76,328.762,57.41,328.762,56.56z" clip-rule="evenodd"/><path fill="#FFF" fill-rule="evenodd" stroke="#000" stroke-linecap="round" stroke-linejoin="round" stroke-width=".5" d="M390.694,41.474c0-0.85-0.35-1.2-1.199-1.2c-0.851,0-1.2,0.351-1.2,1.2s0.35,1.2,1.2,1.2 C390.344,42.674,390.694,42.323,390.694,41.474z" clip-rule="evenodd"/><path fill="#FFF" fill-rule="evenodd" stroke="#000" stroke-linecap="round" stroke-linejoin="round" stroke-width=".5" d="M401.763,41.423c0-0.85-0.351-1.199-1.2-1.199s-1.2,0.35-1.2,1.199c0,0.851,0.351,1.2,1.2,1.2S401.763,42.273,401.763,41.423z" clip-rule="evenodd"/><text font-family="'TrebuchetMS'" font-size="8" transform="matrix(1 0 0 1 225.605 8.3496)">A</text><text font-family="'TrebuchetMS'" font-size="8" transform="matrix(1 0 0 1 235.188 8.5166)">W</text><text font-family="'TrebuchetMS'" font-size="8" transform="matrix(0.583 0 0 0.583 241.4448 9.1807)">1</text><text font-family="'TrebuchetMS'" font-size="8" transform="matrix(1 0 0 1 288.772 8.3496)">W</text><text font-family="'TrebuchetMS'" font-size="8" transform="matrix(0.583 0 0 0.583 295.0288 9.0137)">2</text><text font-family="'TrebuchetMS'" font-size="8" transform="matrix(1 0 0 1 300.771 8.3496)">B</text></g></svg>