<svg xmlns="http://www.w3.org/2000/svg" xmlns:xlink="http://www.w3.org/1999/xlink" id="Layer_1" width="127.758" height="35.317" x="0" y="0" enable-background="new 0 0 127.758 35.317" version="1.0" viewBox="0 0 127.758 35.317" xml:space="preserve"><g><defs><rect id="SVGID_1_" width="127.758" height="34.127"/></defs><clipPath id="SVGID_2_"><use overflow="visible" xlink:href="#SVGID_1_"/></clipPath><g clip-path="url(#SVGID_2_)"><text font-family="'MMTimesBold'" font-size="10.636" transform="matrix(1 0 0 1 62.8638 32.1045)">3</text></g></g><text font-family="'MMTimesBold'" font-size="10.636" transform="matrix(1 0 0 1 78.3193 20.6377)">1</text><text font-family="'MMTimesBold'" font-size="10.636" transform="matrix(1 0 0 1 108.9814 21.6377)">2</text><text font-family="'MMTimesBoldItalic'" font-size="10.636" transform="matrix(1 0 0 1 3.4028 26.5088)">y</text><g><defs><rect id="SVGID_3_" width="127.758" height="34.127"/></defs><clipPath id="SVGID_4_"><use overflow="visible" xlink:href="#SVGID_3_"/></clipPath><g clip-path="url(#SVGID_4_)"><text font-family="'MMTimesBoldItalic'" font-size="10.636" transform="matrix(1 0 0 1 43.5322 32.1045)">x</text></g></g><text transform="matrix(1 0 0 1 31.9819 20.6377)"><tspan x="0" y="0" font-family="'MMTimesBoldItalic'" font-size="10.636" letter-spacing="21">x</tspan><tspan x="26.376" y="0" font-family="'MMTimesBoldItalic'" font-size="10.636">x</tspan></text><text font-family="'MMTimesBoldItalic'" font-size="10.636" transform="matrix(1 0 0 1 106.5684 31.9648)">x</text><text font-family="'MMTimesBoldItalic'" font-size="10.636" transform="matrix(1 0 0 1 114.6514 21.6377)">x</text><text font-family="'MMTimesBold'" font-size="5.318" transform="matrix(1 0 0 1 38.9897 17.8682)">2</text><text transform="matrix(1 0 0 1 113.5771 29.1953)"><tspan x="0" y="0" font-family="'MMTimesBold'" font-size="5.318">0</tspan><tspan x="2.744" y="0" font-family="'MMTimesBold'" font-size="5.318">.</tspan></text><text font-family="'MMTimesBold'" font-size="5.318" transform="matrix(1 0 0 1 117.5923 29.1953)">5</text><text font-family="'MMTimesBoldItalic'" font-size="5.318" transform="matrix(1 0 0 1 120.4424 29.1953)">x</text><text font-family="'MMTimesBold'" font-size="10.636" transform="matrix(1 0 0 1 11.2373 27.0635)">=</text><g><defs><rect id="SVGID_5_" width="127.758" height="34.127"/></defs><clipPath id="SVGID_6_"><use overflow="visible" xlink:href="#SVGID_5_"/></clipPath><g clip-path="url(#SVGID_6_)"><text font-family="'MMTimesBold'" font-size="10.636" transform="matrix(1 0 0 1 52.0342 32.6582)">-</text></g></g><text transform="matrix(1 0 0 1 44.6948 21.1924)"><tspan x="0" y="0" font-family="'MMTimesBold'" font-size="10.636" letter-spacing="15">+</tspan><tspan x="21.909" y="0" font-family="'MMTimesBold'" font-size="10.636">-</tspan></text><text font-family="'MMTimesBold'" font-size="10.636" transform="matrix(1 0 0 1 91.5869 27.0625)">+</text><g><defs><polygon id="SVGID_7_" points="25.296 10.03 25.296 17.664 23.701 19.94 23.701 22.826 25.296 22.826 30.083 10.403 87.57 10.403 87.57 10.03"/></defs><clipPath id="SVGID_8_"><use overflow="visible" xlink:href="#SVGID_7_"/></clipPath><polyline fill="none" stroke="#231F20" stroke-miterlimit="10" stroke-width=".498" points="23.701 19.939 24.233 19.036 25.296 22.826 30.082 10.403 87.57 10.403" clip-path="url(#SVGID_8_)"/></g><text transform="matrix(1.0867 0 0 1 53.9839 19.4287)"><tspan x="0" y="0" font-family="'MMVariableA'" font-size="9.688" letter-spacing="22.084">^</tspan><tspan x="28.501" y="0" font-family="'MMVariableA'" font-size="9.688">h</tspan></text><rect width=".25" height="20.522" x="101.777" y="12.578" fill="#231F20"/><rect width=".249" height="20.522" x="127.508" y="12.578" fill="#231F20"/><rect width="65.947" height=".249" x="22.676" y="23.713" fill="#231F20"/><rect width="19.111" height=".249" x="105.212" y="23.713" fill="#231F20"/></svg>