<svg xmlns="http://www.w3.org/2000/svg" xmlns:xlink="http://www.w3.org/1999/xlink" width="521.28" height="417.41" x="0" y="0" enable-background="new 0 0 521.28 417.41" version="1.0" viewBox="0 0 521.28 417.41" xml:space="preserve"><g id="Viewport_x5F_BG"><g><line x1="65.88" x2="520.28" y1="164.03" y2="283.79" fill="none" fill-rule="evenodd" stroke="#D4D4D4" stroke-linecap="round" stroke-linejoin="round" clip-rule="evenodd"/><line x1="397.56" x2="520.28" y1="416.41" y2="187.69" fill="none" fill-rule="evenodd" stroke="#D4D4D4" stroke-linecap="round" stroke-linejoin="round" clip-rule="evenodd"/><line x1="163.75" x2="520.28" y1="95.23" y2="173.12" fill="none" fill-rule="evenodd" stroke="#D4D4D4" stroke-linecap="round" stroke-linejoin="round" clip-rule="evenodd"/><line x1="152.94" x2="520.28" y1="102.83" y2="184.84" fill="none" fill-rule="evenodd" stroke="#D4D4D4" stroke-linecap="round" stroke-linejoin="round" clip-rule="evenodd"/><line x1="141.76" x2="520.28" y1="110.69" y2="197.08" fill="none" fill-rule="evenodd" stroke="#D4D4D4" stroke-linecap="round" stroke-linejoin="round" clip-rule="evenodd"/><line x1="130.2" x2="520.28" y1="118.82" y2="209.88" fill="none" fill-rule="evenodd" stroke="#D4D4D4" stroke-linecap="round" stroke-linejoin="round" clip-rule="evenodd"/><line x1="435.93" x2="520.28" y1="416.41" y2="243.34" fill="none" fill-rule="evenodd" stroke="#D4D4D4" stroke-linecap="round" stroke-linejoin="round" clip-rule="evenodd"/><line x1="105.84" x2="520.28" y1="135.94" y2="237.32" fill="none" fill-rule="evenodd" stroke="#D4D4D4" stroke-linecap="round" stroke-linejoin="round" clip-rule="evenodd"/><line x1="93" x2="520.28" y1="144.96" y2="252.051" fill="none" fill-rule="evenodd" stroke="#D4D4D4" stroke-linecap="round" stroke-linejoin="round" clip-rule="evenodd"/><line x1="79.69" x2="520.28" y1="154.32" y2="267.521" fill="none" fill-rule="evenodd" stroke="#D4D4D4" stroke-linecap="round" stroke-linejoin="round" clip-rule="evenodd"/><line x1="205.69" x2="421.44" y1="416.41" y2="140.75" fill="none" fill-rule="evenodd" stroke="#D4D4D4" stroke-linecap="round" stroke-linejoin="round" clip-rule="evenodd"/><line x1="1" x2="413.081" y1="279.56" y2="416.41" fill="none" fill-rule="evenodd" stroke="#D4D4D4" stroke-linecap="round" stroke-linejoin="round" clip-rule="evenodd"/><line x1="1" x2="336.78" y1="301.16" y2="416.41" fill="none" fill-rule="evenodd" stroke="#D4D4D4" stroke-linecap="round" stroke-linejoin="round" clip-rule="evenodd"/><line x1="359.19" x2="509.61" y1="416.41" y2="159.61" fill="none" fill-rule="evenodd" stroke="#D4D4D4" stroke-linecap="round" stroke-linejoin="round" clip-rule="evenodd"/><line x1="320.81" x2="486.959" y1="416.41" y2="154.77" fill="none" fill-rule="evenodd" stroke="#D4D4D4" stroke-linecap="round" stroke-linejoin="round" clip-rule="evenodd"/><line x1="1" x2="260.48" y1="324.25" y2="416.41" fill="none" fill-rule="evenodd" stroke="#D4D4D4" stroke-linecap="round" stroke-linejoin="round" clip-rule="evenodd"/><line x1="244.07" x2="442.879" y1="416.41" y2="145.34" fill="none" fill-rule="evenodd" stroke="#D4D4D4" stroke-linecap="round" stroke-linejoin="round" clip-rule="evenodd"/><line x1="1" x2="493.93" y1="222.46" y2="371.62" fill="none" fill-rule="evenodd" stroke="#D4D4D4" stroke-linecap="round" stroke-linejoin="round" clip-rule="evenodd"/><line x1="1" x2="244.58" y1="301.65" y2="102.92" fill="none" fill-rule="evenodd" stroke="#D4D4D4" stroke-linecap="round" stroke-linejoin="round" clip-rule="evenodd"/><line x1="1" x2="226.55" y1="275.98" y2="99.07" fill="none" fill-rule="evenodd" stroke="#D4D4D4" stroke-linecap="round" stroke-linejoin="round" clip-rule="evenodd"/><line x1="1" x2="208.82" y1="252.221" y2="95.27" fill="none" fill-rule="evenodd" stroke="#D4D4D4" stroke-linecap="round" stroke-linejoin="round" clip-rule="evenodd"/><line x1="1" x2="476.169" y1="259.33" y2="412.171" fill="none" fill-rule="evenodd" stroke="#D4D4D4" stroke-linecap="round" stroke-linejoin="round" clip-rule="evenodd"/><line x1="1" x2="191.38" y1="230.16" y2="91.54" fill="none" fill-rule="evenodd" stroke="#D4D4D4" stroke-linecap="round" stroke-linejoin="round" clip-rule="evenodd"/><line x1="60.61" x2="319.79" y1="370.94" y2="119.01" fill="none" fill-rule="evenodd" stroke="#D4D4D4" stroke-linecap="round" stroke-linejoin="round" clip-rule="evenodd"/><line x1="34.74" x2="300.51" y1="361.421" y2="114.88" fill="none" fill-rule="evenodd" stroke="#D4D4D4" stroke-linecap="round" stroke-linejoin="round" clip-rule="evenodd"/><line x1="9.53" x2="281.55" y1="352.15" y2="110.83" fill="none" fill-rule="evenodd" stroke="#D4D4D4" stroke-linecap="round" stroke-linejoin="round" clip-rule="evenodd"/><line x1="87.17" x2="339.419" y1="380.721" y2="123.21" fill="none" fill-rule="evenodd" stroke="#D4D4D4" stroke-linecap="round" stroke-linejoin="round" clip-rule="evenodd"/><line x1="142.47" x2="379.7" y1="401.07" y2="131.83" fill="none" fill-rule="evenodd" stroke="#D4D4D4" stroke-linecap="round" stroke-linejoin="round" clip-rule="evenodd"/><line x1="171.27" x2="400.39" y1="411.66" y2="136.25" fill="none" fill-rule="evenodd" stroke="#D4D4D4" stroke-linecap="round" stroke-linejoin="round" clip-rule="evenodd"/><line x1="21.15" x2="509.93" y1="195.47" y2="335.101" fill="none" fill-rule="evenodd" stroke="#D4D4D4" stroke-linecap="round" stroke-linejoin="round" clip-rule="evenodd"/><line x1="5.03" x2="502.129" y1="206.8" y2="352.891" fill="none" fill-rule="evenodd" stroke="#D4D4D4" stroke-linecap="round" stroke-linejoin="round" clip-rule="evenodd"/><line x1="36.64" x2="517.35" y1="184.58" y2="318.171" fill="none" fill-rule="evenodd" stroke="#D4D4D4" stroke-linecap="round" stroke-linejoin="round" clip-rule="evenodd"/></g><g><line x1="174.22" x2="520.28" y1="87.87" y2="161.89" fill="none" fill-rule="evenodd" stroke="#8A8A8A" stroke-linecap="round" stroke-linejoin="round" clip-rule="evenodd"/><line x1="118.23" x2="520.28" y1="127.23" y2="223.28" fill="none" fill-rule="evenodd" stroke="#8A8A8A" stroke-linecap="round" stroke-linejoin="round" clip-rule="evenodd"/><line x1="474.31" x2="520.28" y1="416.41" y2="311.48" fill="none" fill-rule="evenodd" stroke="#8A8A8A" stroke-linecap="round" stroke-linejoin="round" clip-rule="evenodd"/><line x1="282.44" x2="464.72" y1="416.41" y2="150.01" fill="none" fill-rule="evenodd" stroke="#8A8A8A" stroke-linecap="round" stroke-linejoin="round" clip-rule="evenodd"/><line x1="1" x2="184.18" y1="349.01" y2="416.41" fill="none" fill-rule="evenodd" stroke="#8A8A8A" stroke-linecap="round" stroke-linejoin="round" clip-rule="evenodd"/><line x1="1" x2="262.911" y1="329.46" y2="106.84" fill="none" fill-rule="evenodd" stroke="#8A8A8A" stroke-linecap="round" stroke-linejoin="round" clip-rule="evenodd"/><line x1="1" x2="485.29" y1="240.33" y2="391.351" fill="none" fill-rule="evenodd" stroke="#8A8A8A" stroke-linecap="round" stroke-linejoin="round" clip-rule="evenodd"/><line x1="1" x2="174.22" y1="209.63" y2="87.87" fill="none" fill-rule="evenodd" stroke="#8A8A8A" stroke-linecap="round" stroke-linejoin="round" clip-rule="evenodd"/><line x1="262.82" x2="51.54" y1="231.271" y2="174.11" fill="none" fill-rule="evenodd" stroke="#8A8A8A" stroke-linecap="round" stroke-linejoin="round" clip-rule="evenodd"/><line x1="262.82" x2="114.45" y1="231.271" y2="390.75" fill="none" fill-rule="evenodd" stroke="#8A8A8A" stroke-linecap="round" stroke-linejoin="round" clip-rule="evenodd"/></g><line x1="359.379" x2="262.82" y1="127.48" y2="231.271" fill="none" fill-rule="evenodd" stroke="#12AB00" stroke-linecap="round" stroke-linejoin="round" stroke-width="2" clip-rule="evenodd"/><line x1="520.28" x2="262.82" y1="300.921" y2="231.271" fill="none" fill-rule="evenodd" stroke="#A80000" stroke-linecap="round" stroke-linejoin="round" stroke-width="2" clip-rule="evenodd"/></g><g id="Viewport_x5F_MG"><g><path fill-rule="evenodd" d="M43.84,254.06l-11.11-3.47L134.22,171c-5.63,1.88-12.08,3.58-19.35,5.1 c-7.27,1.51-13.36,2.51-18.2,2.97l14.07-10.63c9.33-1.4,18.68-3.57,27.93-6.46c9.26-2.89,17-5.92,23.26-9.08l6.43,1.55 L43.84,254.06z" clip-rule="evenodd"/><path fill-rule="evenodd" d="M135.49,282.68l-64.06-20c4.18-3.62,8.67-6.87,13.45-9.789 c7.86-4.831,16.37-9.181,25.56-13.101c9.18-3.92,20.62-8.1,34.13-12.489c20.98-6.83,35.77-12.36,45.11-16.761 c9.32-4.39,16.37-8.87,21.27-13.41c5.14-4.76,7.78-9.06,8.1-12.95c0.32-3.89-1.99-6.39-6.86-7.59c-5.15-1.28-11.03-0.7-17.82,1.77 c-6.78,2.47-13.58,6.57-20.56,12.56l-9.55-4.08c11.23-8.65,21.53-14.32,31.42-17.5c9.87-3.17,18.7-3.74,26.89-1.77 c8.26,2.01,12.33,5.93,12.07,12.03c-0.29,6.11-4.29,12.98-12.5,20.77c-4.18,3.96-9.12,7.74-14.85,11.31 c-5.73,3.58-12.79,7.161-21.25,10.75c-8.46,3.601-21.21,8.301-38.77,14.271c-14.62,4.94-24.59,8.471-29.46,10.44 c-4.89,1.97-9.49,4.08-13.81,6.319l47.26,14.28L135.49,282.68z" clip-rule="evenodd"/><path fill-rule="evenodd" d="M170.15,293.51l-14.41-4.5l18.23-17.989l14.15,4.25L170.15,293.51z M239.22,223.38l-13.35-3.57l14.64-14.439l13.12,3.39L239.22,223.38z" clip-rule="evenodd"/><path fill-rule="evenodd" d="M229.53,314.24c-2.93-0.23-5.74-0.76-8.41-1.61 c-9.65-3.01-14.17-9.239-13.77-18.18c0.38-8.93,5.33-18.771,14.2-29.25l14.49,1.63c-6.5,9.03-9.99,16.32-10.08,21.46 c-0.09,5.15,2.46,8.601,7.73,10.21c6.25,1.91,14.01,0.771,22.96-3.35c8.95-4.11,16.65-10.091,23-17.67 c6.07-7.221,8.9-13.51,8.811-18.99c-0.091-5.48-3.081-8.931-8.88-10.52c-2.381-0.65-5.791-0.931-10.25-0.841l12.39-11.909 c0.729,0.319,1.35,0.55,1.85,0.689c5.25,1.399,11.391,1.141,18.25-0.79c6.87-1.92,12.97-6.069,18.15-12.18 c4.1-4.83,5.88-9.11,5.5-12.89c-0.39-3.781-2.92-6.201-7.57-7.36c-4.61-1.14-9.739-0.59-15.54,1.66 c-5.79,2.26-11.93,6.3-18.609,12.371l-9.74-5.33c9.46-8.101,18.55-13.53,27.64-16.7c9.08-3.16,17.22-3.8,24.75-1.99 c5.2,1.26,9.03,3.55,11.5,6.96c2.479,3.41,3.24,7.46,2.17,12.25c-1.06,4.79-3.569,9.649-7.64,14.59 c-3.86,4.7-8.65,8.78-14.37,12.171c-5.71,3.38-11.979,5.689-18.72,6.839c4.729,3.23,6.76,7.82,5.94,13.98 c-0.831,6.16-4.471,13.319-11.271,21.689c-9.19,11.33-20.971,20.491-35.16,26.851C248.21,312.82,238.31,314.91,229.53,314.24z" clip-rule="evenodd"/><path fill-rule="evenodd" d="M351.911,350.271l-78.891-24.63c3.359-4.41,7.17-8.36,11.44-11.9 c6.979-5.86,14.859-11.12,23.62-15.85c8.76-4.73,19.899-9.761,33.229-15.03c20.7-8.2,34.979-14.81,43.63-20.07 c8.641-5.25,14.721-10.6,18.4-16c3.859-5.67,5.12-10.79,4-15.41c-1.13-4.63-4.62-7.59-10.421-9.029 c-6.14-1.51-12.369-0.841-18.899,2.07c-6.54,2.919-12.47,7.779-17.93,14.889l-12.03-4.869c9.16-10.27,18.359-16.95,28.01-20.7 c9.66-3.72,19.12-4.38,28.841-2.04c9.81,2.391,15.779,7.021,17.819,14.26c2.021,7.25,0.25,15.42-5.819,24.711 c-3.091,4.72-7.11,9.239-12.08,13.52c-4.971,4.28-11.42,8.58-19.42,12.88c-8,4.31-20.351,9.96-37.601,17.15 c-14.38,5.95-24.16,10.22-28.85,12.6c-4.7,2.38-9.05,4.93-13.03,7.65l57.949,17.51L351.911,350.271z" clip-rule="evenodd"/><path fill-rule="evenodd" d="M394.831,363.68l-17.87-5.579l13.52-22.061l17.431,5.23L394.831,363.68z M444.661,278.32l-16.16-4.33l10.6-17.311l15.8,4.091L444.661,278.32z" clip-rule="evenodd"/><path fill-rule="evenodd" d="M480.89,390.56l-16.96-5.3l55.21-116.159c-5.19,2.64-11.54,5.04-19.07,7.17 c-7.52,2.14-14.08,3.539-19.58,4.17l7.94-15.07c10.1-1.949,19.56-4.99,28.239-9.04l3.61-1.95v48.58L480.89,390.56z" clip-rule="evenodd"/></g></g><g id="Viewport_x5F_FG"><rect width="145.5" height="23" x="1" y="1" fill="#0000B0" fill-rule="evenodd" clip-rule="evenodd"/><rect width="519.28" height="415.41" x="1" y="1" fill="none" fill-rule="evenodd" stroke="#000" stroke-linecap="round" stroke-width="2" clip-rule="evenodd"/><g><text fill="#FFF" font-family="'Helvetica-Bold'" font-size="18" transform="matrix(1 0 0 1 7.48 18.9004)">R</text><text fill="#FFF" font-family="'Helvetica-Bold'" font-size="18" transform="matrix(1 0 0 1 17.1641 18.9004)">h</text><text fill="#FFF" font-family="'Helvetica-Bold'" font-size="18" transform="matrix(1 0 0 1 27.1538 18.9004)">i</text><text fill="#FFF" font-family="'Helvetica-Bold'" font-size="18" transform="matrix(1 0 0 1 31.3657 18.9004)">n</text><text fill="#FFF" font-family="'Helvetica-Bold'" font-size="18" transform="matrix(1 0 0 1 41.3555 18.9004)">o</text><text fill="#FFF" font-family="'Helvetica-Bold'" font-size="18" transform="matrix(1 0 0 1 55.0532 18.9004)">V</text><text fill="#FFF" font-family="'Helvetica-Bold'" font-size="18" transform="matrix(1 0 0 1 65.0972 18.9004)">i</text><text fill="#FFF" font-family="'Helvetica-Bold'" font-size="18" transform="matrix(1 0 0 1 69.3091 18.9004)">e</text><text fill="#FFF" font-family="'Helvetica-Bold'" font-size="18" transform="matrix(1 0 0 1 78.3271 18.9004)">w</text><text fill="#FFF" font-family="'Helvetica-Bold'" font-size="18" transform="matrix(1 0 0 1 91.5747 18.9004)">p</text><text fill="#FFF" font-family="'Helvetica-Bold'" font-size="18" transform="matrix(1 0 0 1 101.8164 18.9004)">o</text><text fill="#FFF" font-family="'Helvetica-Bold'" font-size="18" transform="matrix(1 0 0 1 111.6982 18.9004)">r</text><text fill="#FFF" font-family="'Helvetica-Bold'" font-size="18" transform="matrix(1 0 0 1 117.5845 18.9004)">t</text></g></g></svg>